<svg xmlns="http://www.w3.org/2000/svg" viewBox="0 0 45.72 46.3"><defs><style>.cls-1{fill:#616666;}.cls-2,.cls-4{fill:none;}.cls-2{stroke:#fff;stroke-miterlimit:10;}.cls-3{fill:#fff;}.cls-4{opacity:0.76;isolation:isolate;}</style></defs><title>friends_button</title><g id="Layer_2" data-name="Layer 2"><g id="Layer_1-2" data-name="Layer 1"><path class="cls-1" d="M45.72,23.15A23,23,0,0,1,22.86,46.3,23,23,0,0,1,0,23.15,23,23,0,0,1,22.86,0,23,23,0,0,1,45.72,23.15Z"/><path class="cls-2" d="M44.56,23.15a21.7,21.7,0,1,1-21.7-21.7A21.71,21.71,0,0,1,44.56,23.15Z"/><path class="cls-3" d="M17.62,9c-3.4,0-6.16,3-6.16,6.74A7,7,0,0,0,13.76,21c-3,2-5.38,6.42-6.3,11.85H18.39c.76-4.08,2.56-7.37,4.87-8.92a5.38,5.38,0,0,1-1.67-2.85l-.1-.08.08-.07a5.1,5.1,0,0,1-.12-1.11,5.39,5.39,0,0,1,2.33-4.52A6.43,6.43,0,0,0,17.62,9Z"/><path class="cls-3" d="M29.16,15.82a5.07,5.07,0,0,0-4.82,5.28,5.47,5.47,0,0,0,1.8,4.12c-2.37,1.59-4.21,5-4.93,9.27H37.12c-.72-4.25-2.56-7.67-4.93-9.27A5.47,5.47,0,0,0,34,21.1a5.07,5.07,0,0,0-4.83-5.28Z"/><path class="cls-4" d="M22.86,1.45A21.7,21.7,0,0,0,1.17,22.59C10.93,26.51,26,29.32,44.53,22A21.69,21.69,0,0,0,22.86,1.45Z"/></g></g></svg>