<?xml version="1.0" encoding="utf-8"?>
<!-- Generator: Adobe Illustrator 22.1.0, SVG Export Plug-In . SVG Version: 6.00 Build 0)  -->
<svg version="1.1" id="Layer_1" xmlns="http://www.w3.org/2000/svg" xmlns:xlink="http://www.w3.org/1999/xlink" x="0px" y="0px"
	 viewBox="0 0 50 50" style="enable-background:new 0 0 50 50;" xml:space="preserve">
<style type="text/css">
	.st0{fill-opacity:0;}
	.st1{fill:#FFFFFF;}
</style>
<rect class="st0" width="50" height="50"/>
<g color-rendering="auto" image-rendering="auto" shape-rendering="auto">
	
		<image style="overflow:visible;opacity:0.75;" width="60" height="60" xlink:href="CDA335695FE8D311.png"  transform="matrix(1 0 0 1 -4 -4)">
	</image>
	<g>
		<path class="st1" d="M18.6,4.3c-7.9,0-14.4,6.5-14.4,14.4c0,7.9,6.5,14.4,14.4,14.4c3.2,0,6.2-1.1,8.6-2.9c0,0.1,0.1,0.1,0.2,0.2
			l14.9,14.9c0.8,0.8,2,0.8,2.8,0.1c0.8-0.8,0.8-2,0.1-2.8c0,0,0,0-0.1-0.1L30.2,27.4c-0.1-0.1-0.1-0.1-0.2-0.2
			c1.8-2.4,2.9-5.4,2.9-8.6C33,10.7,26.5,4.3,18.6,4.3L18.6,4.3z M18.6,7.8c6,0,10.8,4.8,10.8,10.8c0,6-4.8,10.8-10.8,10.8
			S7.8,24.6,7.8,18.6C7.8,12.6,12.7,7.8,18.6,7.8z"/>
	</g>
</g>
</svg>
