<svg xmlns="http://www.w3.org/2000/svg" xmlns:xlink="http://www.w3.org/1999/xlink" viewBox="0 0 53.41 52.97"><defs><style>.cls-1,.cls-2{fill:#626566;}.cls-2{stroke:#fff;stroke-width:0.72px;}.cls-3{fill:url(#linear-gradient);}</style><linearGradient id="linear-gradient" x1="285.97" y1="-729.07" x2="306.66" y2="-750.92" gradientTransform="matrix(-0.8, 0, 0, 1.25, 264.04, 947.15)" gradientUnits="userSpaceOnUse"><stop offset="0" stop-color="#fff" stop-opacity="0.73"/><stop offset="1" stop-color="#fff"/></linearGradient></defs><title>closeFriends</title><g id="Layer_2" data-name="Layer 2"><g id="Layer_1-2" data-name="Layer 1"><path class="cls-1" d="M26.71,0a26.48,26.48,0,1,0-.45,53h.45a26.48,26.48,0,1,0,.44-53Z"/><path class="cls-2" d="M26.71,2.31a24.18,24.18,0,0,0-.41,48.36h.41a24.18,24.18,0,0,0,.4-48.36Z"/><path class="cls-1" d="M50.89,26.51A24,24,0,0,1,10.24,44,35.27,35.27,0,0,0,41.35,9c0-.48-.1-.94-.12-1.42a23.78,23.78,0,0,1,9.66,18.9Z"/><path class="cls-3" d="M30.59,42.29l4.13-4.13L23,26.46,34.61,14.87l-4.16-4.16L14.73,26.43,30.59,42.29Z"/></g></g></svg>