<?xml version="1.0" encoding="utf-8"?>
<!-- Generator: Adobe Illustrator 22.1.0, SVG Export Plug-In . SVG Version: 6.00 Build 0)  -->
<svg version="1.1" id="Layer_1" xmlns="http://www.w3.org/2000/svg" xmlns:xlink="http://www.w3.org/1999/xlink" x="0px" y="0px"
	 viewBox="0 0 436 414" style="enable-background:new 0 0 436 414;" xml:space="preserve">
<style type="text/css">
	.st0{fill:#D8B78B;}
	.st1{fill:#7F512E;}
	.st2{fill:#FFFFFF;}
</style>
<title>monkeylogo3</title>
<g id="Layer_2_1_">
	<g id="Layer_1-2">
		<path class="st0" d="M96.1,167c-3.4-11.4-14.1-12.4-23.4-8.4c-0.4-0.4-1-0.7-1.6-0.9c-21.4-8-25.4,25.2-22.5,39.2
			c2.9,14.1,12,72.9,38,60.4c8-3.9,9.4-27.6,10.4-34.6C99.4,205.6,101.1,183.9,96.1,167L96.1,167z"/>
		<path class="st0" d="M374.6,170.2l3.1-11.6c-3.4-2.3-7.7-2.9-13.1-0.9c-0.6,0.2-1.1,0.5-1.6,0.9c-9.3-4-20-3-23.4,8.4
			c-5,16.9-3.3,38.6-0.9,55.7c1,7,2.4,30.7,10.4,34.6c26,12.5,35.1-46.2,38-60.4c1.7-8.1,1-22.5-3.9-31.8L374.6,170.2L374.6,170.2z"
			/>
		<path d="M356.1,261.5c-2.8,0-5.6-0.7-8.1-2c-7.5-3.6-9.8-18.8-11.4-32.8c-0.2-1.5-0.3-2.8-0.4-3.7c-3.4-24.5-3.1-43,1-56.8
			c2.4-7.9,8.3-12.4,16.3-12.4c3.2,0,6.3,0.7,9.3,1.8c0.3-0.2,0.7-0.3,1-0.4c5.8-2.2,11.1-1.7,15.4,1.2l1.5,1l-2,7.4l5.6-3.3
			l1.2,2.3c5.1,9.7,6,24.5,4.1,33.5l-0.7,3.6C385.5,219.1,377.3,261.5,356.1,261.5z M353.5,158.9c-4,0-9.3,1.5-11.4,8.7
			c-3.9,13-4.2,30.9-0.9,54.6c0.1,1,0.3,2.3,0.5,3.9c0.9,7.8,2.9,26.1,8.5,28.8c1.8,0.9,3.8,1.4,5.9,1.5c17,0,25.2-42.4,27.9-56.4
			l0.7-3.7c1.5-7.5,0.9-19.3-2.5-27.7l-11.6,6.8l4.2-15.7c-2.6-1.2-5.7-1.1-9.2,0.2c-0.3,0.1-0.5,0.2-0.7,0.4l-1.2,1.2l-1.6-0.7
			C359.4,159.7,356.5,159,353.5,158.9L353.5,158.9z"/>
		<polyline class="st1" points="118.5,88.5 116,57.7 124.4,66.1 136.5,46.1 141.6,61.9 150.7,51.7 153.2,65.7 		"/>
		<polygon points="116,88.7 112.9,51.1 123.9,62 137.2,40.1 142.7,56.9 152.3,46.2 155.7,65.3 150.7,66.1 149.1,57.3 140.6,66.9 
			135.8,52.2 124.9,70.2 119.1,64.4 121,88.3 		"/>
		<polyline class="st1" points="204.8,52.3 249.9,21.3 234.6,39.4 286.5,18.7 266.1,42 319,42 266.1,59.6 		"/>
		<polygon points="266.9,62 265.3,57.2 303.4,44.5 260.5,44.5 277.7,25 226.2,45.4 235.8,34.1 206.2,54.4 203.4,50.2 264,8.6 
			243.1,33.3 295.4,12.5 271.7,39.4 334.6,39.4 		"/>
		<path class="st1" d="M362.6,191.8c0-77.4-64.6-140.1-144.4-140.1S73.9,108.6,73.9,191.8c0,155.4,64.6,140,144.4,140
			S362.6,347.2,362.6,191.8z"/>
		<path d="M256.3,334.8L256.3,334.8c-6,0-12.1-0.1-18.3-0.2c-12.9-0.2-26.6-0.2-39.6,0c-6.2,0.1-12.3,0.2-18.3,0.2
			c-61.7,0-108.8-10.5-108.8-143c0-81.3,63.2-142.6,146.9-142.6c81,0,146.9,64,146.9,142.6c0,61.3-9.8,99.6-30.9,120.7
			C315.6,331.1,290.6,334.8,256.3,334.8L256.3,334.8z M218.3,329.3c6.7,0,13.4,0.1,19.9,0.2c6.2,0.1,12.3,0.2,18.2,0.2l0,0
			c33,0,57-3.5,74.3-20.8c20.1-20.1,29.4-57.3,29.4-117.1c0-75.8-63.6-137.5-141.8-137.5c-80.9,0-141.8,59.1-141.8,137.5
			c0,128,43,137.9,103.8,137.9c5.9,0,12-0.1,18.2-0.2C204.9,329.4,211.6,329.3,218.3,329.3L218.3,329.3z"/>
		<path class="st0" d="M99.4,240.1c0,71.9,53.5,130.2,119.4,130.2s119.4-58.3,119.4-130.2s-0.6-162.8-119.9-134.5
			C83.1,77.2,99.4,168.2,99.4,240.1z"/>
		<path d="M218.8,373.3c-67.5,0-122.5-59.8-122.5-133.2c0-6.9-0.2-13.9-0.3-21.1c-0.8-38.9-1.7-79.2,21.2-102.6
			c19.2-19.6,52-24.1,101-14c14.8-3.5,28.4-5.2,40.3-5.2c82.7,0,82.7,82.6,82.7,142.8C341.2,313.5,286.3,373.2,218.8,373.3
			L218.8,373.3z M173.4,103.3c-23.4,0-40.4,5.7-51.8,17.4c-21,21.5-20.2,60.5-19.4,98.2c0.2,7.2,0.3,14.3,0.3,21.2
			c0,70.1,52.2,127.1,116.4,127.1s116.4-57,116.4-127.1c0-60.9,0-136.8-76.6-136.8c-11.7,0-25,1.8-39.6,5.2l-0.7,0.2l-0.7-0.1
			C201,105,186.2,103.3,173.4,103.3L173.4,103.3z"/>
		<path class="st2" d="M194.1,201.2c0-23.9-15.1-26.5-33.8-26.5s-33.8,2.6-33.8,26.5s15.1,35.8,33.8,35.8S194.1,225.1,194.1,201.2z"
			/>
		<path d="M160.3,244.2c-24.5,0-41-17.2-41-42.9c0-33.6,27.7-33.6,41-33.6s41,0,41,33.6C201.3,226.9,184.8,244.2,160.3,244.2z
			 M160.3,182c-19.6,0-26.6,2.9-26.6,19.3c0,17.9,9.9,28.6,26.6,28.6s26.6-10.7,26.6-28.6C186.9,184.9,180,181.9,160.3,182
			L160.3,182z"/>
		<path class="st2" d="M243,201.2c0-23.9,15.1-26.5,33.8-26.5s33.8,2.6,33.8,26.5S295.5,237,276.8,237
			C258.1,237,243,225.1,243,201.2L243,201.2z"/>
		<path d="M276.8,244.2c-24.5,0-41-17.2-41-42.9c0-33.6,27.7-33.6,41-33.6s41,0,41,33.6C317.7,226.9,301.3,244.2,276.8,244.2z
			 M276.8,182c-19.6,0-26.6,2.9-26.6,19.3c0,17.9,9.9,28.6,26.6,28.6s26.6-10.7,26.6-28.6C303.4,184.9,296.5,181.9,276.8,182
			L276.8,182z"/>
		<path d="M290.5,221.5c0,6.3-6.1,11.3-13.6,11.3s-13.6-5.1-13.6-11.3s6.1-11.4,13.6-11.4S290.5,215.2,290.5,221.5z"/>
		<path d="M146.7,186.1c0,6.3,6.1,11.3,13.6,11.3c7.5,0,13.6-5.1,13.6-11.3s-6.1-11.4-13.6-11.4S146.7,179.8,146.7,186.1z"/>
		<path class="st0" d="M366.2,314.1c0,49-66.2,88.8-148,88.8s-148-39.8-148-88.8c0-49,66.2-88.8,148-88.8S366.2,265.1,366.2,314.1z"
			/>
		<path d="M218.3,405.4c-83,0-150.5-41-150.5-91.3c0-50.3,67.5-91.3,150.5-91.3s150.5,41,150.5,91.3S301.3,405.4,218.3,405.4
			L218.3,405.4z M218.3,227.9c-80.2,0-145.4,38.7-145.4,86.2s65.2,86.2,145.4,86.2s145.4-38.7,145.4-86.2S298.5,227.9,218.3,227.9z"
			/>
		<path d="M78.5,254.6c0,0-2.4,0.6-5.7-1.5c-5.2-3.2-12.3-12.3-17.2-37.5c-2.4-8.5-4-17.2-4.8-26c-0.1-1.4-0.2-2.7-0.2-4
			c-0.3-12.4,2.9-18.8,6.4-22c5.6-5.1,13.8-3.9,17.6-3c1.3,0.3,2.1,0.6,2.1,0.6l1.8-4.7c-0.6-0.2-15-5.5-24.8,3.4
			c-8.5,7.8-10.3,23.4-5.4,46.6c0.7,3.3,1.5,6.8,2.5,10.4c4.1,21.5,10.7,35.2,19.5,40.6c2.2,1.5,4.8,2.2,7.5,2.3
			c0.8,0,1.5-0.1,2.3-0.3L78.5,254.6z"/>
		<path d="M126.7,165.8c-0.7,2.8,3.2-1.4,5.4-2.5c3.6-1.8,8.3-2.8,12.8-3.6c11.6-1.9,24.4-0.2,36,2.9c2.4,0.6,7.2-14,1.9-15.4
			c-25.6-6.8-56.7-4.1-60.9,13.8c-0.6,2.5-1.8,7.2,0.8,9.7C124.7,172.7,126.7,166.2,126.7,165.8L126.7,165.8z"/>
		<path d="M306.2,165.8c0.7,2.8-3.2-1.4-5.4-2.5c-3.6-1.8-8.3-2.8-12.9-3.6c-11.6-1.9-24.4-0.2-36,2.9c-2.4,0.6-7.2-14-1.9-15.4
			c25.6-6.8,56.6-4.1,60.9,13.8c0.6,2.5,1.8,7.2-0.8,9.7C308.3,172.7,306.3,166.2,306.2,165.8z"/>
		<path d="M229.9,327.7c-1.8,0-3.7-0.3-5.4-1c-4.1-1.8-6.9-5.8-8.4-12c-0.1-0.6-0.4-1.1-0.9-1.4c-2.8-1.6-11.1,1-19.1,3.4
			c-15.2,4.7-34.2,10.6-44.7-1c-6.2-6.8-13.3-4.1-24.3,1.3c-10.4,5-22.1,10.8-31.4-1.5c-4.3-5.7-19.4-1.2-24.4,0.8l-1.9-4.7
			c2.3-1,23-9,30.4,0.8c6.4,8.5,13.7,5.5,25.1,0c9.9-4.8,21.1-10.3,30.3-0.2c8.3,9.1,25.6,3.8,39.5-0.5c10.2-3.2,18.4-5.7,23.1-3
			c1.7,1,2.9,2.6,3.3,4.6c1.1,4.6,2.9,7.4,5.5,8.5c6,2.6,16.5-3.3,25.8-8.6c10.6-6,20.7-11.8,26.3-5.9c3.7,3.9,8.4,3,15.6,1.1
			c7.5-1.9,16.8-4.2,24.5,3.7c6.5,6.7,13.7,10.2,21.4,10.2h0.3c13.4,0,23.9-10.2,24-10.3l3.5,3.6c-0.5,0.5-12.1,11.7-27.5,11.7h-0.3
			c-9.1-0.1-17.5-4-25-11.8c-5.7-5.8-12.5-4.1-19.6-2.3c-6.9,1.7-14.7,3.7-20.6-2.6c-2.8-3-12,2.2-20.1,6.8
			C246.3,322.7,237.4,327.7,229.9,327.7L229.9,327.7z"/>
		<path d="M93.8,333.9c-3.3,0-3.3,5.1,0,5.1C97,339,97,333.9,93.8,333.9z M103.5,331.1c3.3,0,3.3-5.1,0-5.1S100.3,331.1,103.5,331.1
			L103.5,331.1z M107.2,340.1c-3.3,0-3.3,5.1,0,5.1C110.5,345.1,110.5,340,107.2,340.1L107.2,340.1z M99.3,345.6
			c-3.3,0-3.3,5.1,0,5.1C102.5,350.6,102.5,345.6,99.3,345.6z M104.8,356.6c-3.3,0-3.3,5.1,0,5.1S108,356.5,104.8,356.6L104.8,356.6
			z M114.5,357.4c3.3,0,3.3-5.1,0-5.1S111.3,357.3,114.5,357.4L114.5,357.4z M117.5,345c-3.3,0-3.3,5.1,0,5.1S120.8,344.9,117.5,345
			L117.5,345z M120,330.3c-3.3,0-3.3,5.1,0,5.1S123.3,330.3,120,330.3L120,330.3z M123,327.5c3.3,0,3.3-5.1,0-5.1
			S119.8,327.4,123,327.5L123,327.5z M138.2,321.2c-3.3,0-3.3,5.1,0,5.1C141.5,326.2,141.6,321.1,138.2,321.2L138.2,321.2z
			 M124.8,332.2c-3.3,0-3.3,5.1,0,5.1C128.1,337.2,128.2,332.1,124.8,332.2L124.8,332.2z M124.8,341.9c-3.3,0-3.3,5.1,0,5.1
			C128.1,347,128.2,341.9,124.8,341.9L124.8,341.9z M126.6,365.3c3.3,0,3.3-5.1,0-5.1C123.4,360.3,123.5,365.2,126.6,365.3
			L126.6,365.3z M115,361.5c-3.3,0-3.3,5.1,0,5.1S118.4,361.4,115,361.5L115,361.5z M126.6,374.9c-3.3,0-3.3,5.1,0,5.1
			C129.9,380,130,374.8,126.6,374.9L126.6,374.9z M145.6,368.8c-3.3,0-3.3,5.1,0,5.1c3.3,0,3.4-5.1,0.1-5.1L145.6,368.8z
			 M138.8,356.8c3.3,0,3.3-5.1,0-5.1c-3.3,0-3.2,5,0.1,5L138.8,356.8z M136.5,359.6c-3.3,0-3.3,5.1,0,5.1S139.8,359.6,136.5,359.6z
			 M156.6,354.9c3.3,0,3.3-5.1,0-5.1S153.4,354.9,156.6,354.9L156.6,354.9z M146.8,339c3.3,0,3.3-5.1,0-5.1
			C143.6,333.9,143.6,339,146.8,339L146.8,339z M146.8,328c3.3,0,3.3-5.1,0-5.1C143.6,322.9,143.6,328,146.8,328L146.8,328z
			 M160.3,332.1c-3.3,0-3.3,5.1,0,5.1C163.5,337.2,163.6,332.1,160.3,332.1L160.3,332.1z M144.5,350.6c3.3,0,3.3-5.1,0-5.1
			S141.2,350.6,144.5,350.6z M164,365c-3.3,0-3.3,5.1,0,5.1C167.3,370.1,167.2,365.1,164,365L164,365z M148.1,377.9
			c-3.3,0-3.3,5.1,0,5.1S151.4,377.9,148.1,377.9L148.1,377.9z M141.4,377.3c-3.3,0-3.3,5.1,0,5.1S144.6,377.3,141.4,377.3
			L141.4,377.3z M166.4,339c3.3,0,3.3-5.1,0-5.1S163.1,339,166.4,339L166.4,339z M174.4,333.5c3.3,0,3.3-5.1,0-5.1
			S171.1,333.5,174.4,333.5L174.4,333.5z M180.5,324.2c-3.3,0-3.3,5.1,0,5.1S183.7,324.2,180.5,324.2L180.5,324.2z M161.5,324.8
			c-3.3,0-3.3,5.1,0,5.1C164.8,329.8,164.8,324.8,161.5,324.8L161.5,324.8z M165.2,354.2c3.3,0,3.3-5.1,0-5.1
			C161.9,349.2,161.9,354.3,165.2,354.2L165.2,354.2z M149.9,355.9c-3.3,0-3.3,5.1,0,5.1S153.2,355.9,149.9,355.9L149.9,355.9z
			 M154.2,374.8c-3.3,0-3.3,5.1,0,5.1C157.5,379.9,157.5,374.8,154.2,374.8L154.2,374.8z M167,380.3c-3.3,0-3.3,5.1,0,5.1
			S170.3,380.3,167,380.3L167,380.3z M180.5,362.6c-3.3,0-3.3,5.1,0,5.1S183.7,362.6,180.5,362.6z M178,360.4c3.3,0,3.3-5.1,0-5.1
			S174.7,360.4,178,360.4L178,360.4z M174.4,343.1c-3.3,0-3.3,5.1,0,5.1S177.6,343.1,174.4,343.1L174.4,343.1z M181.7,337.2
			c3.3,0,3.3-5.1,0-5.1S178.4,337.2,181.7,337.2L181.7,337.2z M185.3,322.9c-3.3,0-3.3,5.1,0,5.1S188.6,323,185.3,322.9L185.3,322.9
			z M195.1,324.4c3.3,0,3.3-5.1,0-5.1S191.8,324.4,195.1,324.4L195.1,324.4z M196.3,330.9c-3.3,0-3.3,5.1,0,5.1
			S199.6,330.9,196.3,330.9L196.3,330.9z M182.9,362.8c3.3,0,3.3-5.1,0-5.1S179.6,362.8,182.9,362.8L182.9,362.8z M170.1,378.1
			c3.3,0,3.3-5.1,0-5.1C166.8,373,166.8,378.1,170.1,378.1z M159.1,358.4c-3.3,0-3.3,5.1,0,5.1C162.3,363.4,162.3,358.4,159.1,358.4
			L159.1,358.4z M177.4,378.5c-3.3,0-3.3,5.1,0,5.1S180.7,378.5,177.4,378.5L177.4,378.5z M171.3,387.7c-3.3,0-3.3,5.1,0,5.1
			S174.6,387.7,171.3,387.7L171.3,387.7z M196.9,375.5c-3.3,0-3.3,5.1,0,5.1S200.2,375.5,196.9,375.5L196.9,375.5z M186.5,379.3
			c3.3,0,3.3-5.1,0-5.1S183.3,379.3,186.5,379.3L186.5,379.3z M193.2,357.7c-3.3,0-3.3,5.1,0,5.1S196.5,357.7,193.2,357.7
			L193.2,357.7z M184.7,344.3c-3.3,0-3.3,5.1,0,5.1S188,344.3,184.7,344.3L184.7,344.3z M201.8,348.2c3.3,0,3.3-5.1,0-5.1
			S198.5,348.2,201.8,348.2L201.8,348.2z M192.6,354.3c3.3,0,3.3-5.1,0-5.1S189.4,354.3,192.6,354.3L192.6,354.3z M206.1,331.5
			c-3.3,0-3.3,5.1,0,5.1S209.3,331.5,206.1,331.5L206.1,331.5z M204.8,324.4c3.3,0,3.3-5.1,0-5.1S201.6,324.4,204.8,324.4
			L204.8,324.4z M223.8,334.1c3.3,0,3.3-5.1,0-5.1S220.5,334.1,223.8,334.1L223.8,334.1z M214,344.9c-3.3,0-3.3,5.1,0,5.1
			S217.3,344.9,214,344.9L214,344.9z M203,359.7c3.3,0,3.3-5.1,0-5.1S199.8,359.8,203,359.7L203,359.7z M205.4,366.9
			c-3.3,0-3.3,5.1,0,5.1S208.7,366.9,205.4,366.9L205.4,366.9z M190.2,372c3.3,0,3.3-5.1,0-5.1S186.9,372,190.2,372L190.2,372z
			 M201.8,378.5c-3.3,0-3.3,5.1,0,5.1S205.1,378.5,201.8,378.5L201.8,378.5z M192,387.6c-1.3,0-2.4,1-2.4,2.3c0,0,0,0.1,0,0.1
			c0.1-1.3-1-2.4-2.3-2.5c0,0-0.1,0-0.1,0c-3.3,0-3.3,5.1,0,5.1c1.3,0,2.4-1,2.4-2.3c0-0.1,0-0.1,0-0.2c-0.1,1.3,1,2.4,2.3,2.5
			c0.1,0,0.1,0,0.2,0C195.3,392.7,195.3,387.7,192,387.6L192,387.6z M203.6,391.3c-3.3,0-3.3,5.1,0,5.1S206.9,391.3,203.6,391.3
			L203.6,391.3z M214.6,380.9c-3.3,0-3.3,5.1,0,5.1S217.9,380.9,214.6,380.9L214.6,380.9z M211,374.2c-3.3,0-3.3,5.1,0,5.1
			S214.2,374.2,211,374.2L211,374.2z M220.7,368.1c-3.3,0-3.3,5.1,0,5.1S224,368.1,220.7,368.1L220.7,368.1z M214,360.8
			c-3.3,0-3.3,5.1,0,5.1S217.3,360.8,214,360.8L214,360.8z M213.4,342c3.3,0,3.3-5.1,0-5.1S210.1,342,213.4,342L213.4,342z
			 M227.8,341.3c-1-2.4-5.1-1.1-4.7,1.9c0.3,1.2,1.2,2.1,2.4,2.4C228.2,346.6,229.5,343,227.8,341.3z M239,336.6
			c3.3,0,3.3-5.1,0-5.1S235.8,336.6,239,336.6z M243.9,326.6c-3.3,0-3.3,5.1,0,5.1S247.2,326.6,243.9,326.6L243.9,326.6z
			 M254.9,327.4c3.3,0,3.3-5.1,0-5.1C251.6,322.3,251.6,327.4,254.9,327.4L254.9,327.4z M247.6,348.1c3.3,0,3.3-5.1,0-5.1
			S244.3,348.2,247.6,348.1L247.6,348.1z M222.6,359.1c3.3,0,3.3-5.1,0-5.1S219.3,359.2,222.6,359.1L222.6,359.1z M229.9,363.2
			c-3.3,0-3.3,5.1,0,5.1S233.1,363.2,229.9,363.2L229.9,363.2z M226.3,377.9c-3.3,0-3.3,5.1,0,5.1S229.5,377.9,226.3,377.9
			L226.3,377.9z M217.7,389.5c-3.3,0-3.3,5.1,0,5.1S220.9,389.5,217.7,389.5L217.7,389.5z M233,388.2c-3.3,0-3.3,5.1,0,5.1
			S236.2,388.3,233,388.2L233,388.2z M251.3,379.7c-3.3,0-3.3,5.1,0,5.1S254.5,379.7,251.3,379.7L251.3,379.7z M245.2,373.2
			c3.3,0,3.3-5.1,0-5.1S241.9,373.2,245.2,373.2L245.2,373.2z M234.2,346.7c-3.3,0-3.3,5.1,0,5.1S237.5,346.8,234.2,346.7
			L234.2,346.7z M254.9,343.9c3.3,0,3.3-5.1,0-5.1S251.6,343.9,254.9,343.9L254.9,343.9z M257.4,328.4c-3.3,0-3.3,5.1,0,5.1
			C260.6,333.5,260.6,328.4,257.4,328.4L257.4,328.4z M266.5,316.4c3.3,0,3.3-5.1,0-5.1C263.3,311.3,263.2,316.4,266.5,316.4
			L266.5,316.4z M276.9,328c3.3,0,3.3-5.1,0-5.1C273.6,322.9,273.6,328,276.9,328L276.9,328z M267.1,337.6c-3.3,0-3.3,5.1,0,5.1
			S270.4,337.6,267.1,337.6z M239.6,361.6c3.3,0,3.3-5.1,0-5.1S236.4,361.6,239.6,361.6z M249.4,363.8c-3.3,0-3.3,5.1,0,5.1
			S252.7,363.8,249.4,363.8L249.4,363.8z M250,362.2c3.3,0,3.3-5.1,0-5.1S246.8,362.2,250,362.2z M257.3,373c-3.3,0-3.3,5.1,0,5.1
			C260.6,378.1,260.6,373,257.3,373z M239,375.5c-3.3,0-3.3,5.1,0,5.1S242.3,375.5,239,375.5z M246.4,391.3c-3.3,0-3.3,5.1,0,5.1
			S249.6,391.3,246.4,391.3L246.4,391.3z M260.4,387c-3.3,0-3.3,5.1,0,5.1C263.6,392.1,263.7,387,260.4,387L260.4,387z M262.8,377.9
			c-3.3,0-3.3,5.1,0,5.1S266.1,377.9,262.8,377.9L262.8,377.9z M267.7,368.7c-3.3,0-3.3,5.1,0,5.1S271,368.7,267.7,368.7
			L267.7,368.7z M267.7,355.9c-3.3,0-3.3,5.1,0,5.1S271,355.9,267.7,355.9L267.7,355.9z M271.4,349.8c-3.3,0-3.3,5.1,0,5.1
			S274.7,349.8,271.4,349.8L271.4,349.8z M275,337.6c-3.3,0-3.3,5.1,0,5.1C278.3,342.7,278.3,337.6,275,337.6L275,337.6z
			 M279.3,332.9c3.3,0,3.3-5.1,0-5.1S276.1,332.9,279.3,332.9L279.3,332.9z M286,325.6c3.3,0,3.3-5.1,0-5.1
			C282.7,320.5,282.8,325.6,286,325.6L286,325.6z M295.2,320.7c3.3,0,3.3-5.1,0-5.1C291.9,315.6,291.9,320.7,295.2,320.7
			L295.2,320.7z M294.6,335.3c3.3,0,3.3-5.1,0-5.1S291.3,335.3,294.6,335.3L294.6,335.3z M285.5,343.3c3.3,0,3.3-5.1,0-5.1
			S282.2,343.3,285.5,343.3z M280,355.5c3.3,0,3.3-5.1,0-5.1C276.7,350.4,276.7,355.5,280,355.5L280,355.5z M280,367.1
			c3.3,0,3.3-5.1,0-5.1C276.7,362,276.7,367.1,280,367.1L280,367.1z M274.5,378.5c-3.3,0-3.3,5.1,0,5.1S277.7,378.5,274.5,378.5z
			 M282.4,385.8c-3.3,0-3.3,5.1,0,5.1S285.6,385.8,282.4,385.8L282.4,385.8z M280.6,371.8c-3.3,0-3.3,5.1,0,5.1
			C283.8,376.9,283.8,371.8,280.6,371.8L280.6,371.8z M297.7,360.8c-3.3,0-3.3,5.1,0,5.1C300.9,365.9,300.9,360.8,297.7,360.8
			L297.7,360.8z M292.8,360.4c3.3,0,3.3-5.1,0-5.1C289.5,355.3,289.5,360.4,292.8,360.4L292.8,360.4z M286.1,371.2
			c-3.3,0-3.3,5.1,0,5.1C289.3,376.3,289.3,371.2,286.1,371.2L286.1,371.2z M297.7,376.1c-3.3,0-3.3,5.1,0,5.1
			C300.9,381.1,300.9,376,297.7,376.1L297.7,376.1z M313.5,361.4c-3.3,0-3.3,5.1,0,5.1S316.8,361.4,313.5,361.4z M298.2,348.6
			c-3.3,0-3.3,5.1,0,5.1C301.5,353.6,301.5,348.6,298.2,348.6z M304.3,338.4c3.3,0,3.3-5.1,0-5.1S301.1,338.4,304.3,338.4
			L304.3,338.4z M304.3,323.7c3.3,0,3.3-5.1,0-5.1S301.1,323.7,304.3,323.7L304.3,323.7z M287.9,346.7c-3.3,0-3.3,5.1,0,5.1
			C291.1,351.8,291.1,346.8,287.9,346.7L287.9,346.7z M291.5,344.5c3.3,0,3.3-5.1,0-5.1S288.3,344.5,291.5,344.5L291.5,344.5z
			 M304.3,343.7c-3.3,0-3.3,5.1,0,5.1C307.6,348.7,307.6,343.7,304.3,343.7L304.3,343.7z M312.3,332.1c-3.3,0-3.3,5.1,0,5.1
			S315.6,332.1,312.3,332.1L312.3,332.1z M311.1,324.1c-3.3,0-3.3,5.1,0,5.1S314.3,324.2,311.1,324.1L311.1,324.1z M319,334.1
			c3.3,0,3.3-5.1,0-5.1S315.7,334.1,319,334.1L319,334.1z M332.5,337.8c3.3,0,3.3-5.1,0-5.1S329.2,337.8,332.5,337.8z M343.5,328.4
			c-3.3,0-3.3,5.1,0,5.1S346.7,328.4,343.5,328.4L343.5,328.4z M352.6,326c-3.3,0-3.3,5.1,0,5.1S355.8,326,352.6,326L352.6,326z
			 M352,335.8c-3.3,0-3.3,5.1,0,5.1S355.2,335.8,352,335.8L352,335.8z M320.3,353.7c3.3,0,3.3-5.1,0-5.1S317,353.7,320.3,353.7
			L320.3,353.7z M306.3,350.4c-3.3,0-3.3,5.1,0,5.1S309.5,350.4,306.3,350.4L306.3,350.4z M305.7,363.8c-3.3,0-3.3,5.1,0,5.1
			S308.8,363.8,305.7,363.8L305.7,363.8z M305.7,370.6c-3.3,0-3.3,5.1,0,5.1S308.8,370.6,305.7,370.6L305.7,370.6z M321.5,366.3
			c-3.3,0-3.3,5.1,0,5.1S324.7,366.3,321.5,366.3z M334.3,353.5c-3.3,0-3.3,5.1,0,5.1S337.5,353.5,334.3,353.5L334.3,353.5z
			 M328.2,363.2c-3.3,0-3.3,5.1,0,5.1S331.5,363.2,328.2,363.2L328.2,363.2z M342.8,349.8c-3.3,0-3.3,5.1,0,5.1
			S346.1,349.8,342.8,349.8L342.8,349.8z M339.2,341.3c-3.3,0-3.3,5.1,0,5.1S342.4,341.3,339.2,341.3L339.2,341.3z M333.1,343.1
			c-3.3,0-3.3,5.1,0,5.1S336.3,343.1,333.1,343.1L333.1,343.1z M319.6,357.1c-3.3,0-3.3,5.1,0,5.1S322.9,357.1,319.6,357.1
			L319.6,357.1z M322.7,339.4c-3.3,0-3.3,5.1,0,5.1S325.9,339.4,322.7,339.4L322.7,339.4z M73.7,299.1c-3.3,0-3.3,5.1,0,5.1
			S76.9,299.2,73.7,299.1L73.7,299.1z M90.1,300.6c3.3,0,3.3-5.1,0-5.1S86.8,300.6,90.1,300.6z M98,302.4c3.3,0,3.3-5.1,0-5.1
			S94.8,302.4,98,302.4L98,302.4z M112,302.4c3.3,0,3.3-5.1,0-5.1S108.8,302.4,112,302.4L112,302.4z M117.5,301.8
			c3.3,0,3.3-5.1,0-5.1S114.3,301.8,117.5,301.8L117.5,301.8z M123,301.8c3.3,0,3.3-5.1,0-5.1S119.8,301.8,123,301.8L123,301.8z
			 M137.7,300c3.3,0,3.3-5.1,0-5.1C134.4,294.9,134.5,299.9,137.7,300L137.7,300z M146.8,300c3.3,0,3.3-5.1,0-5.1
			S143.6,299.9,146.8,300L146.8,300z M163.9,300c3.3,0,3.3-5.1,0-5.1S160.7,299.9,163.9,300L163.9,300z M169.4,300
			c3.3,0,3.3-5.1,0-5.1S166.2,299.9,169.4,300L169.4,300z M179.8,302.4c3.3,0,3.3-5.1,0-5.1S176.6,302.4,179.8,302.4L179.8,302.4z
			 M187.1,300c3.3,0,3.3-5.1,0-5.1S183.9,299.9,187.1,300L187.1,300z M198.1,300c3.3,0,3.3-5.1,0-5.1S194.9,299.9,198.1,300
			L198.1,300z M211.5,304.2c3.3,0,3.3-5.1,0-5.1S208.3,304.2,211.5,304.2L211.5,304.2z M233.5,304.2c3.3,0,3.3-5.1,0-5.1
			S230.3,304.2,233.5,304.2L233.5,304.2z M220.7,299.4c3.3,0,3.3-5.1,0-5.1S217.5,299.3,220.7,299.4L220.7,299.4z M240.2,299.4
			c3.3,0,3.3-5.1,0-5.1S237,299.3,240.2,299.4L240.2,299.4z M258.6,299.4c3.3,0,3.3-5.1,0-5.1C255.3,294.3,255.3,299.3,258.6,299.4
			L258.6,299.4z M273.8,299.4c3.3,0,3.3-5.1,0-5.1C270.5,294.3,270.6,299.3,273.8,299.4L273.8,299.4z M288.5,301.2
			c3.3,0,3.3-5.1,0-5.1S285.2,301.2,288.5,301.2z M314.1,306.6c3.3,0,3.3-5.1,0-5.1S310.8,306.7,314.1,306.6L314.1,306.6z
			 M331.8,306.6c3.3,0,3.3-5.1,0-5.1S328.5,306.7,331.8,306.6L331.8,306.6z M343.4,306.6c3.3,0,3.3-5.1,0-5.1
			S340.1,306.7,343.4,306.6L343.4,306.6z M350.1,307.9c3.3,0,3.3-5.1,0-5.1S346.9,307.9,350.1,307.9L350.1,307.9z M358,307.1
			c-3.3,0-3.3,5.1,0,5.1S361.3,307.1,358,307.1L358,307.1z M345.8,314.4c-3.3,0-3.3,5.1,0,5.1S349.1,314.4,345.8,314.4L345.8,314.4z
			 M331.8,313.4c3.3,0,3.3-5.1,0-5.1S328.5,313.4,331.8,313.4L331.8,313.4z M335.5,320.7c3.3,0,3.3-5.1,0-5.1
			S332.2,320.7,335.5,320.7L335.5,320.7z M297,305.5c3.3,0,3.3-5.1,0-5.1S293.8,305.4,297,305.5L297,305.5z M286,310.3
			c3.3,0,3.3-5.1,0-5.1S282.8,310.3,286,310.3L286,310.3z M269,306.1c3.3,0,3.3-5.1,0-5.1S265.7,306,269,306.1L269,306.1z
			 M246.4,303.1c3.3,0,3.3-5.1,0-5.1S243.1,303,246.4,303.1L246.4,303.1z M234.8,312.2c3.3,0,3.3-5.1,0-5.1S231.5,312.1,234.8,312.2
			L234.8,312.2z M226.8,311.6c3.3,0,3.3-5.1,0-5.1S223.6,311.6,226.8,311.6L226.8,311.6z M232.9,319.6c3.3,0,3.3-5.1,0-5.1
			S229.7,319.5,232.9,319.6L232.9,319.6z M242.1,308.4c-3.3,0-3.3,5.1,0,5.1S245.4,308.3,242.1,308.4L242.1,308.4z M254.9,309.2
			c3.3,0,3.3-5.1,0-5.1C251.6,304.1,251.6,309.1,254.9,309.2L254.9,309.2z M181.1,308.6c3.3,0,3.3-5.1,0-5.1
			S177.8,308.5,181.1,308.6L181.1,308.6z M171.9,312.2c3.3,0,3.3-5.1,0-5.1C168.6,307.2,168.6,312.1,171.9,312.2L171.9,312.2z
			 M159.7,309.2c3.3,0,3.3-5.1,0-5.1s-3.2,4.9,0,4.9L159.7,309.2z M185.3,317.2c3.3,0,3.3-5.1,0-5.1s-3.3,4.9,0,4.9L185.3,317.2z
			 M196.3,308c3.3,0,3.3-5.1,0-5.1s-3.3,4.9,0,4.9L196.3,308z M207.3,309.8c3.3,0,3.3-5.1,0-5.1s-3.3,4.9,0,4.9L207.3,309.8z
			 M82.8,305.4c3.3,0,3.3-5.1,0-5.1C79.5,300.4,79.5,305.4,82.8,305.4z M109,310.1c-3.3,0-3.3,5.1,0,5.1
			C112.3,315.2,112.3,310.1,109,310.1z M104.8,307.3c3.3,0,3.3-5.1,0-5.1S101.5,307.3,104.8,307.3z M116.3,311.6
			c3.3,0,3.3-5.1,0-5.1S113.1,311.6,116.3,311.6z M155.5,304.8c3.3,0,3.3-5.1,0-5.1S152.1,304.8,155.5,304.8z M135.3,306.6
			c3.3,0,3.3-5.1,0-5.1S132,306.7,135.3,306.6L135.3,306.6z M124.3,309.7c3.3,0,3.3-5.1,0-5.1S121,309.7,124.3,309.7L124.3,309.7z
			 M152.4,346.3c3.3,0,3.3-5.1,0-5.1S149.1,346.3,152.4,346.3L152.4,346.3z M80.9,329.7c-3.3,0-3.3,5.1,0,5.1
			C84.2,334.7,84.2,329.7,80.9,329.7z M87,318.7c-3.3,0-3.3,5.1,0,5.1C90.3,323.7,90.3,318.7,87,318.7L87,318.7z M92.5,327.2
			c-3.3,0-3.3,5.1,0,5.1C95.8,332.3,95.8,327.2,92.5,327.2L92.5,327.2z M85.2,341.2c-3.3,0-3.3,5.1,0,5.1S88.5,341.3,85.2,341.2
			L85.2,341.2z M109,332.1c-3.3,0-3.3,5.1,0,5.1S112.3,332.1,109,332.1L109,332.1z M134,331.1c3.3,0,3.3-5.1,0-5.1
			S130.8,331.1,134,331.1L134,331.1z M305.6,300.6c3.3,0,3.3-5.1,0-5.1S302.3,300.6,305.6,300.6z M319,298.7c3.3,0,3.3-5.1,0-5.1
			S315.7,298.7,319,298.7L319,298.7z M331.8,298.7c3.3,0,3.3-5.1,0-5.1S328.5,298.7,331.8,298.7L331.8,298.7z M344.6,301.8
			c3.3,0,3.3-5.1,0-5.1S341.4,301.8,344.6,301.8L344.6,301.8z M135.7,338.8c-3.3,0-3.3,5.1,0,5.1S139,338.8,135.7,338.8L135.7,338.8
			z M124.4,350.1c-3.3,0-3.3,5.1,0,5.1S127.7,350.1,124.4,350.1z M190.3,343.8c3.3,0,3.3-5.1,0-5.1S187,343.8,190.3,343.8z
			 M213.5,327.8c3.3,0,3.3-5.1,0-5.1S210.2,327.9,213.5,327.8L213.5,327.8z M293.3,368.6c-3.3,0-3.3,5.1,0,5.1
			C296.5,373.7,296.5,368.6,293.3,368.6L293.3,368.6z M243.3,383c-3.3,0-3.3,5.1,0,5.1S246.6,383,243.3,383L243.3,383z M131.6,369.2
			c-3.3,0-3.3,5.1,0,5.1S134.9,369.2,131.6,369.2z M152.2,368.5c3.3,0,3.3-5.1,0-5.1C148.9,363.5,148.9,368.6,152.2,368.5
			L152.2,368.5z M266.5,328.9c3.3,0,3.3-5.1,0-5.1S263.2,328.9,266.5,328.9z M323.6,304.8c-3.3,0-3.3,5.1,0,5.1
			S326.9,304.8,323.6,304.8L323.6,304.8z M91.5,305.3c-3.3,0-3.3,5.1,0,5.1S94.7,305.3,91.5,305.3z M257.9,357.4
			c3.3,0,3.3-5.1,0-5.1C254.7,352.3,254.7,357.4,257.9,357.4z"/>
	</g>
</g>
</svg>
