<svg xmlns="http://www.w3.org/2000/svg" viewBox="0 0 345.07 396.84"><defs><style>.cls-1{fill:#d8b78b;}.cls-2{fill:#7f512e;}.cls-3{fill:#fff;}</style></defs><title>monkeylogo3</title><g id="Layer_2" data-name="Layer 2"><g id="Layer_1-2" data-name="Layer 1"><path class="cls-1" d="M50.63,158.38C47.24,147,36.53,146,27.21,150a4.39,4.39,0,0,0-1.56-.95c-21.37-8-25.36,25.17-22.48,39.25s12,72.88,38,60.38c8-3.86,9.41-27.58,10.39-34.57,2.37-17.09,4.09-38.81-.95-55.7Z"/><path class="cls-1" d="M329.17,161.58,332.31,150c-3.36-2.3-7.66-2.94-13.08-.92a4.3,4.3,0,0,0-1.57.95c-9.32-4-20-3-23.42,8.4-5.05,16.9-3.32,38.61-.94,55.7,1,7,2.35,30.71,10.38,34.58,26,12.5,35.13-46.24,38-60.39,1.66-8.11,1-22.5-3.89-31.76l-8.64,5.07Z"/><path d="M310.65,252.92a18.48,18.48,0,0,1-8.07-2c-7.54-3.63-9.81-18.82-11.35-32.77-.17-1.49-.31-2.77-.44-3.73-3.41-24.47-3.08-43,1-56.77,2.35-7.85,8.28-12.36,16.27-12.36a26.45,26.45,0,0,1,9.26,1.81,9.16,9.16,0,0,1,1-.45c5.81-2.17,11.09-1.74,15.4,1.2l1.48,1-2,7.4,5.58-3.27,1.23,2.33c5.15,9.7,6,24.48,4.14,33.46l-.71,3.63C340,210.52,331.83,252.92,310.65,252.92Zm-2.57-102.56c-4,0-9.26,1.52-11.41,8.74-3.89,13-4.17,30.9-.86,54.63.13,1,.28,2.32.45,3.87.86,7.79,2.87,26.05,8.52,28.77a13.57,13.57,0,0,0,5.87,1.48c17,0,25.16-42.44,27.85-56.4l.72-3.69c1.53-7.47.92-19.3-2.52-27.66l-11.58,6.8,4.23-15.72c-2.61-1.19-5.69-1.1-9.23.22a1.86,1.86,0,0,0-.68.38L318.22,153l-1.57-.67a21.93,21.93,0,0,0-8.57-1.94Z"/><polyline class="cls-2" points="73.02 79.88 70.56 49.12 78.96 57.53 91.05 37.56 96.16 53.32 105.24 43.16 107.7 57.12"/><polygon points="70.5 80.08 67.48 42.47 78.47 53.45 91.75 31.51 97.21 48.35 106.82 37.58 110.19 56.68 105.2 57.56 103.65 48.74 95.11 58.3 90.35 43.61 79.46 61.6 73.63 55.77 75.54 79.68 70.5 80.08"/><polyline class="cls-2" points="159.32 43.71 204.41 12.74 189.18 30.77 241.08 10.14 220.64 33.38 273.53 33.38 220.64 51.04"/><polygon points="221.44 53.44 219.84 48.64 257.96 35.91 215.04 35.91 232.21 16.39 180.72 36.85 190.33 25.48 160.76 45.8 157.89 41.63 218.49 0 197.64 24.68 249.94 3.89 226.24 30.85 289.11 30.85 221.44 53.44"/><path class="cls-2" d="M317.18,183.23c0-77.36-64.64-140.06-144.38-140.06S28.43,100,28.43,183.23c0,155.43,64.64,140,144.37,140S317.18,338.66,317.18,183.23Z"/><path d="M210.86,326.23h0c-6,0-12.05-.1-18.28-.2-12.94-.22-26.63-.22-39.55,0-6.23.1-12.34.2-18.29.2-61.67,0-108.85-10.53-108.85-143,0-81.29,63.16-142.59,146.9-142.59,81,0,146.91,64,146.91,142.59,0,61.26-9.82,99.61-30.92,120.68-18.61,18.58-43.61,22.31-77.92,22.31Zm-38.06-5.48c6.74,0,13.37.1,19.86.21,6.2.11,12.28.21,18.2.21h0c33,0,57-3.49,74.35-20.84,20.08-20.06,29.44-57.27,29.44-117.1C314.65,107.39,251,45.7,172.8,45.7,91.94,45.7,31,104.82,31,183.23c0,128,43,137.94,103.78,137.94,5.92,0,12-.1,18.2-.2,6.49-.11,13.11-.22,19.85-.22Z"/><path class="cls-1" d="M53.89,231.47c0,71.89,53.47,130.17,119.41,130.17s119.4-58.28,119.4-130.17S292.07,68.67,172.78,97C37.67,68.67,53.89,159.57,53.89,231.47Z"/><path d="M173.31,364.68c-67.52,0-122.46-59.76-122.46-133.21,0-6.89-.15-13.95-.3-21.08-.82-38.94-1.67-79.21,21.17-102.55,19.21-19.62,52-24.14,101-14,14.79-3.47,28.36-5.23,40.34-5.23,82.67,0,82.67,82.56,82.67,142.83,0,73.45-54.93,133.21-122.44,133.21Zm-45.39-270c-23.44,0-40.4,5.69-51.85,17.39-21,21.5-20.23,60.47-19.43,98.16.15,7.16.3,14.27.3,21.2,0,70.1,52.21,127.13,116.37,127.13s116.36-57,116.36-127.13c0-60.93,0-136.75-76.59-136.75-11.68,0-25,1.76-39.59,5.22l-.66.16-.66-.14c-16.59-3.48-31.47-5.24-44.25-5.24Z"/><path class="cls-3" d="M148.64,192.67c0-23.86-15.11-26.48-33.77-26.48s-33.79,2.62-33.79,26.48,15.13,35.75,33.79,35.75,33.77-11.88,33.77-35.75Z"/><path d="M114.86,235.6c-24.5,0-41-17.25-41-42.93,0-33.65,27.67-33.65,41-33.65s41,0,41,33.65C155.82,218.35,139.36,235.6,114.86,235.6Zm0-62.23c-19.63,0-26.6,2.92-26.6,19.3,0,17.89,9.94,28.58,26.6,28.58s26.6-10.69,26.6-28.58C141.46,176.29,134.49,173.37,114.86,173.37Z"/><path class="cls-3" d="M197.54,192.67c0-23.86,15.13-26.48,33.79-26.48s33.77,2.62,33.77,26.48S250,228.42,231.33,228.42s-33.79-11.88-33.79-35.75Z"/><path d="M231.32,235.6c-24.5,0-41-17.25-41-42.93,0-33.65,27.67-33.65,41-33.65s41,0,41,33.65C272.28,218.35,255.82,235.6,231.32,235.6Zm0-62.23c-19.63,0-26.6,2.92-26.6,19.3,0,17.89,9.94,28.58,26.6,28.58s26.6-10.69,26.6-28.58C257.92,176.29,251,173.37,231.32,173.37Z"/><path d="M245,212.92c0,6.26-6.1,11.34-13.62,11.34s-13.64-5.08-13.64-11.34,6.11-11.35,13.64-11.35S245,206.65,245,212.92Z"/><path d="M101.22,177.47c0,6.26,6.11,11.34,13.63,11.34s13.63-5.08,13.63-11.34-6.1-11.35-13.63-11.35S101.22,171.2,101.22,177.47Z"/><path class="cls-1" d="M320.77,305.54c0,49-66.25,88.77-148,88.77s-148-39.75-148-88.77,66.25-88.78,148-88.78S320.77,256.51,320.77,305.54Z"/><path d="M172.8,396.84c-83,0-150.49-41-150.49-91.3s67.51-91.31,150.49-91.31,150.5,41,150.5,91.31-67.51,91.3-150.5,91.3Zm0-177.55c-80.18,0-145.43,38.69-145.43,86.25s65.24,86.24,145.43,86.24,145.43-38.69,145.43-86.24S253,219.29,172.8,219.29Z"/><path d="M33,246s-2.38.55-5.71-1.49C22.14,241.29,15,232.25,10.12,207a143.31,143.31,0,0,1-4.84-26c-.1-1.38-.16-2.7-.2-4C4.77,164.56,8,158.2,11.48,155c5.59-5.1,13.78-3.92,17.58-3,1.26.31,2.05.59,2.08.6l1.77-4.73c-.61-.23-15-5.51-24.82,3.36C-.42,159-2.21,174.68,2.7,197.88q1,5,2.5,10.35c4.13,21.53,10.68,35.18,19.48,40.56a14.37,14.37,0,0,0,7.52,2.3,8.85,8.85,0,0,0,2.26-.26L33,246Z"/><path d="M81.28,157.25c-.65,2.78,3.24-1.43,5.39-2.5,3.64-1.83,8.27-2.82,12.85-3.58,11.56-1.89,24.38-.17,36,2.92,2.39.63,7.17-14,1.91-15.43-25.59-6.83-56.66-4.08-60.93,13.83-.6,2.52-1.83,7.19.76,9.73,1.94,1.91,4-4.65,4.06-5Z"/><path d="M260.71,157.25c.67,2.78-3.23-1.43-5.38-2.5-3.64-1.83-8.27-2.82-12.85-3.58-11.56-1.89-24.38-.17-36,2.92-2.39.63-7.17-14-1.91-15.43,25.59-6.83,56.65-4.08,60.93,13.83.6,2.52,1.82,7.19-.77,9.73C262.84,164.13,260.79,157.57,260.71,157.25Z"/><path d="M184.47,319.16a13.46,13.46,0,0,1-5.39-1.05c-4.11-1.79-6.94-5.81-8.43-12a1.84,1.84,0,0,0-.91-1.36c-2.82-1.62-11.09,1-19.08,3.42-15.24,4.7-34.2,10.57-44.71-.95-6.19-6.8-13.33-4.06-24.34,1.3-10.37,5.05-22.14,10.78-31.39-1.48-4.27-5.66-19.44-1.19-24.43.82l-1.9-4.69c2.34-.95,23-9,30.37.82,6.41,8.49,13.73,5.53,25.14,0,9.89-4.81,21.09-10.26,30.29-.16,8.34,9.15,25.6,3.81,39.47-.48,10.25-3.17,18.36-5.66,23.09-3a7,7,0,0,1,3.33,4.57c1.1,4.59,2.91,7.38,5.52,8.51,6,2.62,16.53-3.35,25.81-8.63,10.65-6.05,20.71-11.77,26.25-5.88,3.7,3.93,8.36,3,15.65,1.14,7.47-1.89,16.76-4.24,24.5,3.68,6.54,6.7,13.74,10.15,21.4,10.23H295c13.35,0,23.89-10.16,24-10.26l3.54,3.61c-.48.48-12.08,11.72-27.53,11.72h-.31c-9.07-.09-17.48-4.05-25-11.76-5.7-5.85-12.47-4.13-19.64-2.31-6.87,1.74-14.65,3.71-20.58-2.58-2.8-3-12,2.22-20.06,6.82-8.62,4.89-17.47,9.92-24.94,9.92Z"/><path d="M48.3,325.36c-3.27,0-3.27,5.06,0,5.06S51.57,325.36,48.3,325.36Zm9.77-2.88c3.26,0,3.26-5.06,0-5.06S54.8,322.48,58.07,322.48Zm3.66,9c-3.27,0-3.27,5.07,0,5.07S65,331.46,61.73,331.46ZM53.8,337c-3.27,0-3.27,5.06,0,5.06S57.06,337,53.8,337Zm5.49,11c-3.27,0-3.27,5.06,0,5.06S62.55,347.94,59.29,347.94Zm9.77.79c3.26,0,3.26-5.06,0-5.06S65.79,348.73,69.06,348.73Zm3-12.38c-3.27,0-3.27,5.06,0,5.06S75.37,336.35,72.11,336.35Zm2.44-14.66c-3.27,0-3.27,5.06,0,5.06S77.81,321.69,74.55,321.69Zm3-2.87c3.27,0,3.27-5.06,0-5.06S74.33,318.82,77.6,318.82Zm15.26-6.28c-3.27,0-3.27,5.07,0,5.07S96.13,312.54,92.86,312.54Zm-13.43,11c-3.26,0-3.26,5.06,0,5.06S82.7,323.53,79.43,323.53Zm0,9.76c-3.26,0-3.26,5.06,0,5.06S82.7,333.29,79.43,333.29Zm1.83,23.38c3.27,0,3.27-5.06,0-5.06S78,356.67,81.26,356.67Zm-11.59-3.85c-3.27,0-3.27,5.07,0,5.07S72.93,352.82,69.67,352.82Zm11.59,13.43c-3.26,0-3.26,5.07,0,5.07S84.53,366.25,81.26,366.25Zm18.93-6.1c-3.27,0-3.27,5.06,0,5.06S103.45,360.15,100.19,360.15Zm-6.72-12c3.27,0,3.27-5.07,0-5.07S90.21,348.13,93.47,348.13ZM91,351c-3.27,0-3.27,5.06,0,5.06S94.3,351,91,351Zm20.14-4.71c3.27,0,3.27-5.07,0-5.07S107.9,346.29,111.17,346.29Zm-9.76-15.87c3.26,0,3.26-5.06,0-5.06S98.14,330.42,101.41,330.42Zm0-11c3.26,0,3.26-5.07,0-5.07S98.14,319.44,101.41,319.44Zm13.42,4.09c-3.26,0-3.26,5.06,0,5.06S118.1,323.53,114.83,323.53ZM99,342c3.27,0,3.27-5.07,0-5.07S95.7,342,99,342Zm19.54,14.46c-3.27,0-3.27,5.07,0,5.07S121.76,356.48,118.5,356.48Zm-15.87,12.83c-3.27,0-3.27,5.06,0,5.06S105.89,369.31,102.63,369.31Zm-6.72-.61c-3.27,0-3.27,5.06,0,5.06S99.18,368.7,95.91,368.7Zm25-38.28c3.26,0,3.26-5.06,0-5.06S117.67,330.42,120.94,330.42Zm7.94-5.49c3.26,0,3.26-5.07,0-5.07S125.61,324.93,128.88,324.93Zm6.1-9.34c-3.27,0-3.27,5.06,0,5.06S138.24,315.59,135,315.59Zm-18.93.61c-3.26,0-3.26,5.07,0,5.07S119.32,316.2,116.05,316.2Zm3.67,29.48c3.26,0,3.26-5.06,0-5.06S116.45,345.68,119.72,345.68Zm-15.26,1.66c-3.27,0-3.27,5.06,0,5.06S107.73,347.34,104.46,347.34Zm4.27,18.92c-3.26,0-3.26,5.06,0,5.06S112,366.26,108.73,366.26Zm12.82,5.48c-3.27,0-3.27,5.07,0,5.07S124.82,371.74,121.55,371.74ZM135,354.05c-3.27,0-3.27,5.07,0,5.07S138.24,354.05,135,354.05Zm-2.45-2.26c3.27,0,3.27-5.07,0-5.07S129.27,351.79,132.53,351.79Zm-3.65-17.27c-3.27,0-3.27,5.06,0,5.06S132.14,334.52,128.88,334.52Zm7.32-5.92c3.26,0,3.26-5.07,0-5.07S132.93,328.6,136.2,328.6Zm3.66-14.23c-3.27,0-3.27,5.07,0,5.07S143.13,314.37,139.86,314.37Zm9.76,1.41c3.27,0,3.27-5.07,0-5.07S146.36,315.78,149.62,315.78Zm1.23,6.52c-3.27,0-3.27,5.07,0,5.07S154.11,322.3,150.85,322.3Zm-13.43,31.93c3.26,0,3.26-5.06,0-5.06S134.15,354.23,137.42,354.23ZM124.6,369.49c3.27,0,3.27-5.06,0-5.06S121.33,369.49,124.6,369.49Zm-11-19.71c-3.26,0-3.26,5.06,0,5.06S116.88,349.78,113.61,349.78Zm18.32,20.13c-3.27,0-3.27,5.07,0,5.07S135.19,369.91,131.93,369.91Zm-6.11,9.16c-3.27,0-3.27,5.06,0,5.06S129.09,379.07,125.82,379.07Zm25.64-12.2c-3.27,0-3.27,5.06,0,5.06S154.72,366.87,151.46,366.87Zm-10.38,3.83c3.27,0,3.27-5.06,0-5.06S137.82,370.7,141.08,370.7Zm6.71-21.54c-3.26,0-3.26,5.07,0,5.07S151.06,349.16,147.79,349.16Zm-8.54-13.42c-3.27,0-3.27,5.06,0,5.06S142.51,335.74,139.25,335.74Zm17.09,3.84c3.27,0,3.27-5.06,0-5.06S153.08,339.58,156.34,339.58Zm-9.15,6.1c3.26,0,3.26-5.06,0-5.06S143.92,345.68,147.19,345.68Zm13.42-22.76c-3.26,0-3.26,5.06,0,5.06S163.88,322.92,160.61,322.92Zm-1.22-7.14c3.27,0,3.27-5.07,0-5.07S156.13,315.78,159.39,315.78Zm18.92,9.76c3.27,0,3.27-5.07,0-5.07S175.05,325.54,178.31,325.54Zm-9.76,10.81c-3.27,0-3.27,5.06,0,5.06S171.81,336.35,168.55,336.35Zm-11,14.82c3.27,0,3.27-5.06,0-5.06S154.3,351.17,157.56,351.17Zm2.44,7.15c-3.27,0-3.27,5.07,0,5.07S163.27,358.32,160,358.32Zm-15.26,5.07c3.27,0,3.27-5.07,0-5.07S141.47,363.39,144.74,363.39Zm11.6,6.52c-3.26,0-3.26,5.07,0,5.07S159.61,369.91,156.34,369.91Zm-9.77,9.16a2.39,2.39,0,0,0-2.44,2.48,2.39,2.39,0,0,0-2.44-2.48c-3.27,0-3.27,5.06,0,5.06a2.38,2.38,0,0,0,2.44-2.48,2.38,2.38,0,0,0,2.44,2.48C149.84,384.14,149.84,379.07,146.57,379.07Zm11.6,3.66c-3.27,0-3.27,5.06,0,5.06S161.44,382.73,158.17,382.73Zm11-10.37c-3.27,0-3.27,5.06,0,5.06S172.42,372.36,169.16,372.36Zm-3.66-6.72c-3.27,0-3.27,5.06,0,5.06S168.76,365.64,165.5,365.64Zm9.76-6.1c-3.27,0-3.27,5.06,0,5.06S178.53,359.54,175.26,359.54Zm-6.71-7.33c-3.27,0-3.27,5.06,0,5.06S171.81,352.21,168.55,352.21Zm-.61-18.74c3.26,0,3.26-5.06,0-5.06S164.67,333.47,167.94,333.47Zm14.45-.7c-1-2.43-5.11-1.07-4.68,1.9a3.16,3.16,0,0,0,2.37,2.38c2.67,1,4-2.6,2.31-4.28ZM193.57,328c3.27,0,3.27-5.06,0-5.06S190.3,328,193.57,328Zm4.88-10c-3.26,0-3.26,5.06,0,5.06S201.72,318,198.45,318Zm11,.79c3.27,0,3.27-5.06,0-5.06S206.18,318.82,209.44,318.82Zm-7.32,20.76c3.27,0,3.27-5.06,0-5.06S198.85,339.58,202.12,339.58Zm-25,11c3.27,0,3.27-5.06,0-5.06S173.83,350.57,177.09,350.57Zm7.33,4.08c-3.27,0-3.27,5.07,0,5.07S187.68,354.65,184.42,354.65Zm-3.66,14.66c-3.27,0-3.27,5.06,0,5.06S184,369.31,180.76,369.31Zm-8.55,11.59c-3.27,0-3.27,5.06,0,5.06S175.48,380.9,172.21,380.9Zm15.26-1.22c-3.27,0-3.27,5.07,0,5.07S190.73,379.68,187.47,379.68Zm18.31-8.54c-3.27,0-3.27,5.06,0,5.06S209.05,371.14,205.78,371.14Zm-6.1-6.54c3.26,0,3.26-5.06,0-5.06S196.41,364.6,199.68,364.6Zm-11-26.42c-3.27,0-3.27,5.06,0,5.06S192,338.18,188.69,338.18Zm20.75-2.87c3.27,0,3.27-5.06,0-5.06S206.18,335.31,209.44,335.31Zm2.44-15.45c-3.26,0-3.26,5.07,0,5.07S215.15,319.86,211.88,319.86Zm9.16-12c3.27,0,3.27-5.07,0-5.07S217.77,307.84,221,307.84Zm10.38,11.6c3.27,0,3.27-5.07,0-5.07S228.15,319.44,231.42,319.44ZM221.65,329c-3.26,0-3.26,5.06,0,5.06S224.92,329,221.65,329Zm-27.47,24c3.27,0,3.27-5.06,0-5.06S190.92,353,194.18,353Zm9.77,2.27c-3.27,0-3.27,5.06,0,5.06S207.22,355.27,204,355.27Zm.61-1.65c3.26,0,3.26-5.07,0-5.07S201.29,353.62,204.56,353.62Zm7.32,10.81c-3.26,0-3.26,5.06,0,5.06S215.15,364.43,211.88,364.43Zm-18.31,2.44c-3.27,0-3.27,5.06,0,5.06S196.84,366.87,193.57,366.87Zm7.33,15.86c-3.27,0-3.27,5.06,0,5.06S204.17,382.73,200.9,382.73Zm14-4.27c-3.26,0-3.26,5.06,0,5.06S218.2,378.46,214.93,378.46Zm2.45-9.15c-3.27,0-3.27,5.06,0,5.06S220.64,369.31,217.38,369.31Zm4.88-9.16c-3.27,0-3.27,5.06,0,5.06S225.53,360.15,222.26,360.15Zm0-12.81c-3.27,0-3.27,5.06,0,5.06S225.53,347.34,222.26,347.34Zm3.66-6.12c-3.26,0-3.26,5.07,0,5.07S229.19,341.22,225.92,341.22Zm3.67-12.2c-3.27,0-3.27,5.06,0,5.06S232.85,329,229.59,329Zm4.27-4.7c3.26,0,3.26-5.06,0-5.06S230.59,324.32,233.86,324.32Zm6.71-7.33c3.27,0,3.27-5.06,0-5.06S237.31,317,240.57,317Zm9.16-4.88c3.27,0,3.27-5.07,0-5.07S246.46,312.11,249.73,312.11Zm-.61,14.64c3.26,0,3.26-5.06,0-5.06S245.85,326.75,249.12,326.75ZM240,334.7c3.27,0,3.27-5.07,0-5.07S236.7,334.7,240,334.7Zm-5.49,12.2c3.27,0,3.27-5.06,0-5.06S231.2,346.9,234.47,346.9Zm0,11.6c3.27,0,3.27-5.06,0-5.06S231.2,358.5,234.47,358.5ZM229,369.91c-3.26,0-3.26,5.07,0,5.07S232.24,369.91,229,369.91Zm7.94,7.33c-3.27,0-3.27,5.06,0,5.06S240.17,377.24,236.91,377.24Zm-1.83-14c-3.27,0-3.27,5.06,0,5.06S238.34,363.2,235.08,363.2Zm17.09-11c-3.27,0-3.27,5.06,0,5.06S255.43,352.21,252.17,352.21Zm-4.88-.42c3.26,0,3.26-5.07,0-5.07S244,351.79,247.29,351.79Zm-6.72,10.8c-3.26,0-3.26,5.07,0,5.07S243.84,362.59,240.57,362.59Zm11.6,4.88c-3.27,0-3.27,5.06,0,5.06S255.43,367.47,252.17,367.47ZM268,352.82c-3.27,0-3.27,5.07,0,5.07S271.31,352.82,268,352.82ZM252.78,340c-3.27,0-3.27,5.06,0,5.06S256.05,340,252.78,340Zm6.1-10.2c3.27,0,3.27-5.06,0-5.06S255.62,329.81,258.88,329.81Zm0-14.65c3.27,0,3.27-5.06,0-5.06S255.62,315.16,258.88,315.16Zm-16.48,23c-3.27,0-3.27,5.06,0,5.06S245.67,338.18,242.4,338.18Zm3.67-2.27c3.26,0,3.26-5.06,0-5.06S242.8,335.91,246.07,335.91Zm12.81-.79c-3.26,0-3.26,5.06,0,5.06S262.15,335.12,258.88,335.12Zm7.94-11.59c-3.27,0-3.27,5.06,0,5.06S270.09,323.53,266.82,323.53Zm-1.22-7.94c-3.27,0-3.27,5.06,0,5.06S268.86,315.59,265.6,315.59Zm7.93,10c3.27,0,3.27-5.07,0-5.07S270.27,325.54,273.53,325.54ZM287,329.2c3.27,0,3.27-5.07,0-5.07S283.69,329.2,287,329.2Zm11-9.34c-3.27,0-3.27,5.06,0,5.06S301.21,319.86,298,319.86Zm9.15-2.44c-3.26,0-3.26,5.06,0,5.06S310.37,317.42,307.1,317.42Zm-.61,9.77c-3.26,0-3.26,5.06,0,5.06S309.76,327.19,306.49,327.19Zm-31.74,17.88c3.27,0,3.27-5.06,0-5.06S271.49,345.07,274.75,345.07Zm-14-3.23c-3.26,0-3.26,5.06,0,5.06S264,341.84,260.71,341.84Zm-.6,13.43c-3.27,0-3.27,5.06,0,5.06S263.37,355.27,260.11,355.27Zm0,6.71c-3.27,0-3.27,5.07,0,5.07S263.37,362,260.11,362ZM276,357.71c-3.26,0-3.26,5.06,0,5.06S279.24,357.71,276,357.71Zm12.82-12.82c-3.26,0-3.26,5.07,0,5.07S292.06,344.89,288.79,344.89Zm-6.1,9.76c-3.27,0-3.27,5.07,0,5.07S286,354.65,282.69,354.65Zm14.65-13.43c-3.27,0-3.27,5.07,0,5.07S300.6,341.22,297.34,341.22Zm-3.66-8.54c-3.27,0-3.27,5.06,0,5.06S296.94,332.68,293.68,332.68Zm-6.11,1.84c-3.26,0-3.26,5.06,0,5.06S290.84,334.52,287.57,334.52Zm-13.43,14c-3.26,0-3.26,5.06,0,5.06S277.41,348.55,274.14,348.55Zm3.06-17.7c-3.27,0-3.27,5.06,0,5.06S280.46,330.85,277.2,330.85Zm-249-40.28c-3.27,0-3.27,5.06,0,5.06S31.42,290.57,28.16,290.57ZM44.64,292c3.27,0,3.27-5.06,0-5.06S41.37,292,44.64,292Zm7.93,1.83c3.27,0,3.27-5.06,0-5.06S49.31,293.8,52.57,293.8Zm14,0c3.27,0,3.27-5.06,0-5.06S63.34,293.8,66.61,293.8Zm5.5-.61c3.26,0,3.26-5.06,0-5.06S68.84,293.19,72.11,293.19Zm5.49,0c3.26,0,3.26-5.06,0-5.06S74.33,293.19,77.6,293.19Zm14.65-1.83c3.27,0,3.27-5.06,0-5.06S89,291.36,92.25,291.36Zm9.15,0c3.27,0,3.27-5.06,0-5.06S98.14,291.36,101.4,291.36Zm17.09,0c3.27,0,3.27-5.06,0-5.06S115.23,291.36,118.49,291.36Zm5.5,0c3.27,0,3.27-5.06,0-5.06S120.72,291.36,124,291.36Zm10.37,2.44c3.27,0,3.27-5.06,0-5.06S131.1,293.8,134.36,293.8Zm7.33-2.44c3.26,0,3.26-5.06,0-5.06S138.42,291.36,141.69,291.36Zm11,0c3.26,0,3.26-5.06,0-5.06S149.41,291.36,152.68,291.36Zm13.42,4.27c3.27,0,3.27-5.06,0-5.06S162.84,295.63,166.1,295.63Zm22,0c3.26,0,3.26-5.06,0-5.06S184.81,295.63,188.08,295.63Zm-12.82-4.88c3.26,0,3.26-5.07,0-5.07S172,290.75,175.26,290.75Zm19.53,0c3.27,0,3.27-5.07,0-5.07S191.52,290.75,194.79,290.75Zm18.31,0c3.27,0,3.27-5.07,0-5.07S209.84,290.75,213.1,290.75Zm15.26,0c3.27,0,3.27-5.07,0-5.07S225.1,290.75,228.36,290.75ZM243,292.58c3.27,0,3.27-5.07,0-5.07S239.75,292.58,243,292.58Zm25.64,5.49c3.26,0,3.26-5.06,0-5.06S265.38,298.07,268.65,298.07Zm17.7,0c3.27,0,3.27-5.06,0-5.06S283.08,298.07,286.35,298.07Zm11.6,0c3.26,0,3.26-5.06,0-5.06S294.68,298.07,298,298.07Zm6.71,1.22c3.27,0,3.27-5.06,0-5.06S301.39,299.29,304.66,299.29Zm7.93-.79c-3.26,0-3.26,5.06,0,5.06S315.86,298.5,312.59,298.5Zm-12.2,7.33c-3.27,0-3.27,5.06,0,5.06S303.65,305.83,300.39,305.83Zm-14-1c3.27,0,3.27-5.06,0-5.06S283.08,304.79,286.35,304.79Zm3.66,7.32c3.27,0,3.27-5.07,0-5.07S286.75,312.11,290,312.11Zm-38.46-15.26c3.27,0,3.27-5.06,0-5.06S248.29,296.85,251.55,296.85Zm-11,4.88c3.27,0,3.27-5.06,0-5.06S237.3,301.73,240.57,301.73Zm-17.09-4.27c3.27,0,3.27-5.06,0-5.06S220.21,297.46,223.48,297.46Zm-22.59-3c3.27,0,3.27-5.07,0-5.07S197.63,294.41,200.89,294.41Zm-11.59,9.15c3.26,0,3.26-5.06,0-5.06S186,303.56,189.3,303.56Zm-7.94-.61c3.27,0,3.27-5.06,0-5.06S178.1,303,181.36,303Zm6.11,7.94c3.26,0,3.26-5.06,0-5.06S184.2,310.89,187.47,310.89Zm9.15-11.16c-3.26,0-3.26,5.06,0,5.06S199.89,299.73,196.62,299.73Zm12.82.79c3.27,0,3.27-5.07,0-5.07S206.18,300.52,209.44,300.52Zm-73.86-.62c3.27,0,3.27-5.06,0-5.06S132.32,299.9,135.58,299.9Zm-9.15,3.66c3.26,0,3.26-5.06,0-5.06S123.16,303.56,126.43,303.56Zm-12.21-3c3.27,0,3.27-5.07,0-5.07S111,300.52,114.22,300.52Zm25.64,7.93c3.26,0,3.26-5.06,0-5.06S136.59,308.45,139.86,308.45Zm11-9.16c3.27,0,3.27-5.06,0-5.06S147.58,299.29,150.84,299.29Zm11,1.83c3.27,0,3.27-5.06,0-5.06S158.57,301.12,161.83,301.12ZM37.31,296.85c3.26,0,3.26-5.06,0-5.06S34,296.85,37.31,296.85Zm26.25,4.71c-3.27,0-3.27,5.06,0,5.06S66.82,301.56,63.56,301.56Zm-4.27-2.88c3.26,0,3.26-5.07,0-5.07S56,298.68,59.29,298.68ZM70.88,303c3.27,0,3.27-5.06,0-5.06S67.61,303,70.88,303ZM110,296.24c3.26,0,3.26-5.06,0-5.06S106.68,296.24,110,296.24Zm-20.14,1.83c3.26,0,3.26-5.06,0-5.06S86.54,298.07,89.81,298.07Zm-11,3.05c3.26,0,3.26-5.06,0-5.06S75.55,301.12,78.82,301.12Zm28.08,36.62c3.26,0,3.26-5.06,0-5.06S103.63,337.74,106.9,337.74ZM35.48,321.09c-3.27,0-3.27,5.06,0,5.06S38.75,321.09,35.48,321.09Zm6.1-11c-3.27,0-3.27,5.06,0,5.06S44.85,310.1,41.58,310.1Zm5.5,8.55c-3.27,0-3.27,5.06,0,5.06S50.34,318.65,47.08,318.65Zm-7.33,14c-3.27,0-3.27,5.06,0,5.06S43,332.68,39.75,332.68Zm23.81-9.15c-3.27,0-3.27,5.06,0,5.06S66.82,323.53,63.56,323.53Zm25-1c3.27,0,3.27-5.06,0-5.06S85.32,322.48,88.58,322.48ZM260.1,292c3.27,0,3.27-5.06,0-5.06S256.84,292,260.1,292Zm13.43-1.84c3.27,0,3.27-5.06,0-5.06S270.27,290.13,273.53,290.13Zm12.82,0c3.27,0,3.27-5.06,0-5.06S283.08,290.13,286.35,290.13Zm12.82,3.06c3.26,0,3.26-5.06,0-5.06S295.9,293.19,299.17,293.19Zm-208.91,37c-3.26,0-3.26,5.06,0,5.06S93.53,330.19,90.26,330.19ZM78.94,341.51c-3.27,0-3.27,5.06,0,5.06S82.2,341.51,78.94,341.51Zm65.9-6.26c3.26,0,3.26-5.06,0-5.06S141.57,335.25,144.84,335.25Zm23.16-16c3.27,0,3.27-5.07,0-5.07S164.74,319.29,168,319.29Zm79.8,40.76c-3.26,0-3.26,5.07,0,5.07S251.07,360.05,247.8,360.05Zm-49.94,14.41c-3.26,0-3.26,5.07,0,5.07S201.13,374.46,197.86,374.46ZM86.14,360.57c-3.26,0-3.26,5.06,0,5.06S89.41,360.57,86.14,360.57Zm20.6-.61c3.27,0,3.27-5.06,0-5.06S103.48,360,106.74,360ZM221,320.32c3.27,0,3.27-5.07,0-5.07S217.78,320.32,221,320.32Zm57.15-24.12c-3.27,0-3.27,5.07,0,5.07S281.46,296.2,278.19,296.2ZM46,296.72c-3.27,0-3.27,5.06,0,5.06S49.26,296.72,46,296.72ZM212.47,348.8c3.26,0,3.26-5.06,0-5.06S209.2,348.8,212.47,348.8Z"/></g></g></svg>