<?xml version="1.0" encoding="utf-8"?>
<!-- Generator: Adobe Illustrator 22.1.0, SVG Export Plug-In . SVG Version: 6.00 Build 0)  -->
<svg version="1.1" id="Layer_1" xmlns="http://www.w3.org/2000/svg" xmlns:xlink="http://www.w3.org/1999/xlink" x="0px" y="0px"
	 viewBox="0 0 436 414" style="enable-background:new 0 0 436 414;" xml:space="preserve">
<style type="text/css">
	.st0{fill:#D8B78B;}
	.st1{fill:#7F512E;stroke:#000000;stroke-width:4.252;stroke-miterlimit:10;}
	.st2{fill:#D8B78B;stroke:#000000;stroke-width:4.252;stroke-miterlimit:10;}
	.st3{fill:#FFFFFF;stroke:#000000;stroke-width:4.252;stroke-miterlimit:10;}
	.st4{fill:none;stroke:#000000;stroke-width:4.252;stroke-miterlimit:10;}
	.st5{fill:#CC0033;}
	.st6{fill:none;stroke:#000000;stroke-width:2.8347;stroke-linecap:round;stroke-miterlimit:10;}
</style>
<path d="M163.3,308.2c-6.9-0.8-14.3-1.8-21.4-3.2c-3.3-1.3-6.6-2.5-9.8-3.7c-11.1-4.1-20.9-11.2-32.1-14.9c-3.5-1.2-12.1,4-6.2,5.9
	c10.1,3.3,18.8,10,28.7,13.7c0.8,0.3,1.6,0.6,2.3,0.9c-0.3,0.9,0.2,1.7,1.9,2.1c1,0.2,2,0.5,3,0.7c3.6,2.8,8.4,2.8,12.3,5.1
	c0.9,0.5,2.2,0.5,3.5,0.2c4.9,2,9.7,4.1,14.4,6.4c2.4,1.2,10.1,0,9.2-4C168.4,313.7,167.6,308.7,163.3,308.2L163.3,308.2z
	 M346,285.2c-1.7-1.9-4.9-1.1-6.9-0.4c0,0,0,0,0-0.1c-1.5,0.4-4.1,1.7-4.4,3.5c-0.7,0.2-1.4,0.5-2,0.8c-2.7,1.3-5.4,2.3-7.7,4.2
	c-1.8,0-4.3,0.5-6,1.5c-2,0.2-4.9,0.9-6.1,2.1c-0.4-0.1-0.8-0.1-1.2-0.1c-4.4,0-8.7,1.3-12.7,3.2c-0.8,0.4-1.5,1-2,1.7
	c-3.9,0.3-8.1,2.1-11.7,2.4c-1.4,0.1-3,0.6-4.3,1.5c-2.7-0.6-5.6-0.6-7.7,0.1c-2.1,0.7-3.9,1.6-5,3.6c-1,2,0.8,3.7,0.9,5.7
	c0.3,5.7,7.7,3.9,11,2.4c5.9-2.8,12.4-4.3,18.3-6.9c0.7-0.3,1.4-0.8,2-1.5c1.9,0.4,3.8,0.1,5.6-0.7c3-1.3,6.3-2.2,8.9-4.3
	c0.6-0.4,1-1,1.3-1.6c0,0,0.1,0,0.1,0c0.6-0.3,1.5-0.8,2.2-1.5c2-0.4,4-1.2,5.4-1.9c2.4-1.2,5-2.1,7.2-3.5c2.5-1.6,4.8-2.9,7.5-4.2
	c0.1-0.1,0.3-0.2,0.5-0.3c0.5-0.1,1-0.1,1.4-0.2c0.9-0.2,1.8-0.6,2.7-0.9C345,289.3,347.6,287,346,285.2L346,285.2z"/>
<path class="st0" d="M345.3,189.3c1,7.4,2.5,32.4,10.9,36.4c27.4,13.2,37-48.7,40.1-63.7c3-14.8-1.2-49.8-23.7-41.4
	c-0.7,0.3-1.3,0.6-1.7,1c-9.8-4.2-21.1-3.1-24.7,8.9C340.9,148.4,342.7,171.3,345.3,189.3L345.3,189.3z"/>
<path class="st0" d="M89.5,130.6c-3.6-12-14.9-13.1-24.7-8.9c-0.4-0.4-0.9-0.7-1.6-1c-22.5-8.4-26.7,26.5-23.7,41.4
	c3,14.9,12.7,76.8,40.1,63.7c8.5-4.1,9.9-29.1,10.9-36.4C93,171.3,94.8,148.4,89.5,130.6L89.5,130.6z"/>
<path class="st1" d="M370.4,156.7c0-81.5-68.1-147.6-152.2-147.6C134.2,9.1,66,69,66,156.7c0,163.9,68.1,147.6,152.2,147.6
	C302.3,304.4,370.4,320.6,370.4,156.7z"/>
<path class="st2" d="M92.9,207.6c0,75.8,56.4,137.2,125.9,137.2c69.5,0,125.9-61.4,125.9-137.2c0-75.8-0.7-171.6-126.4-141.8
	C75.8,36,92.9,131.8,92.9,207.6L92.9,207.6z"/>
<path class="st3" d="M192.8,166.7c0-25.2-15.9-45.6-35.6-45.6c-19.7,0-35.6,20.4-35.6,45.6s15.9,45.6,35.6,45.6
	C176.8,212.3,192.8,191.9,192.8,166.7z"/>
<path class="st3" d="M315.5,166.7c0-25.2-15.9-45.6-35.6-45.6c-19.7,0-35.6,20.4-35.6,45.6s15.9,45.6,35.6,45.6
	C299.6,212.3,315.5,191.9,315.5,166.7z"/>
<path d="M145.1,182.5c0,12.4,6.4,22.5,14.4,22.5c7.9,0,14.4-10.1,14.4-22.5c0-12.4-6.4-22.5-14.4-22.5
	C151.6,160.1,145.1,170.1,145.1,182.5z"/>
<path d="M262.5,182.5c0,12.4,6.4,22.5,14.4,22.5c7.9,0,14.4-10.1,14.4-22.5c0-12.4-6.4-22.5-14.4-22.5
	C269,160.1,262.5,170.1,262.5,182.5z"/>
<path class="st2" d="M374.2,285.7c0,51.7-69.8,93.6-156,93.6c-86.1,0-156-41.9-156-93.6c0-51.7,69.8-93.6,156-93.6
	C304.4,192.1,374.2,234,374.2,285.7L374.2,285.7z"/>
<path class="st4" d="M63,269.7c155.3,93.6,310.7,0,310.7,0"/>
<path class="st4" d="M64.1,269.7c154.5,133,308.7,0,308.7,0"/>
<path class="st5" d="M226.6,402.8c-1.3,0-2.6,0-3.9,0c-1.4,0-2.7,0-4.1,0l-5.6,0c-13.9,0-25.2-0.6-33.2-8.8
	c-9.2-9.4-13.5-27.9-13.5-58.4c0-8.9,0.4-17,1.2-24.1c14.6,2.2,29.6,3.3,44.5,3.3c18.8,0,38.2-1.7,57.6-5.1
	c0.9,7.5,1.4,16.2,1.4,25.9c0,30.2-4.1,48.6-12.8,58.1C250.4,402.1,239.3,402.8,226.6,402.8L226.6,402.8L226.6,402.8z"/>
<path d="M267.7,312.1c0.7,6.9,1.1,14.7,1.1,23.4c0,29.2-4,47.7-12.2,56.7c-7.2,7.8-17.3,8.4-29.9,8.4c-1.3,0-2.6,0-3.9,0
	c-1.4,0-2.7,0-4.1,0c-1,0-1.9,0-2.8,0c-0.9,0-1.8,0-2.8,0c-13.4,0-24.2-0.6-31.7-8.2c-8.7-8.8-12.9-27.5-12.9-56.9
	c0-7.9,0.3-15.2,0.9-21.6c14,2,28.3,3,42.6,3C230.2,316.9,248.9,315.3,267.7,312.1 M271.4,307.1c-18.3,3.3-38.2,5.5-59.4,5.5
	c-14.9,0-30.5-1.1-46.4-3.6c-0.9,7.5-1.5,16.2-1.5,26.5c0,67.2,21.4,69.4,48.9,69.4c1.8,0,3.7,0,5.6,0c2.7,0,5.4,0,8.1,0
	c26.2,0,46.4-3,46.4-69.4C273,324.4,272.4,315,271.4,307.1L271.4,307.1z"/>
<path d="M70.9,222.9c0,0-2.5,0.6-6-1.6c-5.5-3.3-13-12.9-18.1-39.5c-3-11.1-4.5-20.1-5.1-27.4c-0.1-1.5-0.2-2.8-0.2-4.2
	c-0.3-13.2,3-19.9,6.7-23.3c5.9-5.4,14.5-4.1,18.5-3.2c1.3,0.3,2.2,0.6,2.2,0.6l1.9-5c-0.6-0.2-15.9-5.8-26.2,3.6
	c-9,8.1-10.9,24.7-5.7,49.2c0.7,3.5,1.6,7.1,2.6,10.9c4.3,22.7,11.3,37.1,20.5,42.8c3.2,2,6.1,2.4,7.9,2.4c1.3,0,2.2-0.2,2.4-0.3
	L70.9,222.9L70.9,222.9z"/>
<path d="M391.4,123c-10.3-9.3-25.5-3.8-26.2-3.6l1.9,5c0.1-0.1,12.9-4.6,20.7,2.5c0.4,0.3,0.7,0.7,1.1,1.1c5,5.7,8.7,18.5,1.9,47.4
	c-0.5,2-1,4.1-1.6,6.3c0,0.1,0,0.1-0.1,0.2c-5,26.1-12.4,35.7-17.8,39.1c-3.6,2.4-6.3,1.8-6.3,1.7l-1.5,5.1c0.2,0.1,1.1,0.3,2.4,0.3
	c1.9,0,4.7-0.4,7.9-2.4c9.3-5.7,16.2-20.1,20.5-42.6C402.6,152.6,401.6,132.3,391.4,123L391.4,123z"/>
<path d="M119.6,120.8c0.1,3,2.9-2.4,4.7-4.1c3.2-2.9,7.6-5.3,12-7.4c11.2-5.3,24.6-7.3,37.3-7.6c2.6-0.1,3.2-16.3-2.6-16.2
	c-27.9,0.6-58.6,12.4-57.7,31.8c0.1,2.7,0.2,7.8,3.6,9.6C119.5,128.4,119.6,121.1,119.6,120.8L119.6,120.8z"/>
<path d="M318.6,120.8c-0.1,3-2.9-2.4-4.7-4.1c-3.2-2.9-7.6-5.3-12-7.4c-11.2-5.3-24.6-7.3-37.3-7.6c-2.6-0.1-3.2-16.3,2.6-16.2
	c27.9,0.6,58.6,12.4,57.7,31.8c-0.1,2.7-0.2,7.8-3.6,9.6C318.8,128.4,318.6,121.1,318.6,120.8L318.6,120.8z"/>
<line class="st6" x1="218.2" y1="313.6" x2="218.2" y2="350.9"/>
</svg>
