<?xml version="1.0" encoding="utf-8"?>
<!-- Generator: Adobe Illustrator 22.1.0, SVG Export Plug-In . SVG Version: 6.00 Build 0)  -->
<svg version="1.1" id="Layer_1" xmlns="http://www.w3.org/2000/svg" xmlns:xlink="http://www.w3.org/1999/xlink" x="0px" y="0px"
	 viewBox="0 0 436 414" style="enable-background:new 0 0 436 414;" xml:space="preserve">
<style type="text/css">
	.st0{fill:#D8B78B;}
	.st1{fill:#7F512E;}
	.st2{fill:#1A171B;}
	.st3{fill:#FFFFFF;}
	.st4{fill:none;}
</style>
<path class="st0" d="M342.9,202.2c1,7.2,2.4,31.8,10.7,35.8c26.9,12.9,36.3-47.8,39.3-62.5c3-14.6-1.1-48.8-23.2-40.6
	c-0.7,0.3-1.2,0.6-1.6,1c-9.6-4.2-20.7-3.1-24.2,8.7C338.6,162,340.4,184.5,342.9,202.2L342.9,202.2z"/>
<path class="st0" d="M91.9,144.6c-3.5-11.8-14.6-12.9-24.2-8.7c-0.4-0.4-0.9-0.7-1.6-1c-22.1-8.2-26.2,26-23.3,40.6
	c3,14.6,12.4,75.4,39.3,62.5c8.3-4,9.7-28.5,10.7-35.8C95.3,184.5,97.1,162,91.9,144.6L91.9,144.6z"/>
<path class="st1" d="M124.1,305.4c-2.7-0.4-5.3-0.9-7.9-1.5c-0.5,0.1-1,0.2-1.5,0.3c12.6,6.9,27.3,9.8,43.6,10.8
	c0-0.1,0-0.2,0.1-0.3C148.8,313.6,135.7,309.3,124.1,305.4z"/>
<path class="st2" d="M160.8,317.8l-2.7-0.2c-18.9-1.3-33.1-4.8-44.7-11.2l-6.4-3.5l9.2-1.7l0.5,0.1c2.5,0.6,5.1,1.1,7.7,1.5
	c12.6,4.2,25.1,8.3,34.2,9.3l2.8,0.3l-0.5,2.7L160.8,317.8L160.8,317.8z"/>
<path class="st1" d="M218.2,25.4c-82.5,0-149.4,58.8-149.4,144.9c0,65.7,11.2,101.9,30,121.7c0.2,0,0.3,0,0.5,0
	c15.5,4.2,31.6,1.9,47.2,6.3c7.5,2.1,17.2,3.8,23.1,9.4c0.2,0.1,0.5,0.2,0.7,0.3c0.3-0.1,0.7-0.3,1-0.4c3.2-1,4.6,4.1,1.4,5
	c-0.8,0.3-1.6,0.6-2.4,0.9c-0.6,1-1.6,1.3-2.6,1.2c-0.4,0.2-0.7,0.4-1.1,0.6c16.1,0.5,33.5-0.2,51.6-0.2
	c82.5,0,149.4,15.9,149.4-144.9C367.6,90.2,300.7,25.4,218.2,25.4L218.2,25.4z"/>
<path d="M257.6,318.2c-6.2,0-12.5-0.1-18.9-0.2c-13.3-0.2-27.4-0.2-40.6,0c-10.9,0.2-21.5,0.3-31.5,0l-10.1-0.3l10.8-5.5l0.8,0.1
	l0.4-0.7l0.7-0.3c0.3-0.1,0.5-0.2,0.8-0.3l-2.2-1.2c-4.4-4.2-11.6-6-18-7.7c-1.4-0.4-2.7-0.7-4-1.1c-7.6-2.1-15.6-2.7-23.4-3.1
	c-7.8-0.5-15.9-1-23.8-3.2l-1-0.1l-0.7-0.7c-21-22.1-30.7-61.3-30.7-123.5c0-84.1,65.3-147.5,152-147.5c83.8,0,152,66.2,152,147.5
	c0,63.4-10.2,103-32,124.9C319,314.3,293.1,318.2,257.6,318.2L257.6,318.2z M218.2,312.5c7,0,13.8,0.1,20.5,0.2
	c6.4,0.1,12.7,0.2,18.8,0.2c34.2,0,58.9-3.6,76.9-21.6c20.8-20.8,30.5-59.2,30.5-121.1C365,91.8,299.1,28,218.2,28
	C134.6,28,71.5,89.1,71.5,170.3c0,60.1,9.1,98.1,28.7,119.3c7.4,2,14.8,2.5,22.7,3c8,0.5,16.3,1,24.4,3.3c1.2,0.4,2.6,0.7,3.9,1
	c6.6,1.7,14.1,3.7,19.4,8.2c3-0.9,6,1.1,6.5,4.3c0.2,1.3-0.1,2.6-0.7,3.6c7,0,14.2-0.1,21.6-0.2
	C204.6,312.6,211.4,312.5,218.2,312.5L218.2,312.5z"/>
<path class="st0" d="M218.2,81c-139.8-29.3-123,64.8-123,139.1c0,27.5,7.6,53.1,20.6,74.4c10.3,0.8,20.6,0.9,30.7,3.7
	c7.5,2.1,17.2,3.8,23.1,9.4c0.2,0.1,0.5,0.2,0.7,0.3c0.3-0.1,0.7-0.3,1-0.4c3.2-1,4.6,4.1,1.4,5c-0.8,0.3-1.6,0.6-2.4,0.9
	c-0.6,1-1.6,1.3-2.6,1.2c-2,1-4.1,2.1-6.3,2.8c-2.1,0.7-3.4-1.2-3.1-3c-9.5-1.1-22.6-5.4-34.3-9.3c-0.4-0.1-0.7-0.2-1.1-0.2
	c22.7,30.3,57.1,49.6,95.8,49.6c68.2,0,123.5-60.3,123.5-134.7C342.3,145.8,341.6,51.8,218.2,81L218.2,81z"/>
<path d="M218.8,358c-38.3,0-74.1-18.6-98.3-50.9l-4.7-6.3l9.3,1.6c12.1,4.1,24.7,8.1,33.6,9.2l3.2,0.4l-0.4,2.4
	c1.3-0.5,2.7-1.2,4.1-2l1.5-0.8l0.6,0.1l0.3-0.5l0.7-0.3l-1.4-0.8c-4.3-4.1-11.4-5.9-17.7-7.5c-1.4-0.4-2.7-0.7-4-1.1
	c-7.6-2.1-15.2-2.6-23.3-3.1c-2.3-0.1-4.6-0.3-6.8-0.5l-1.6-0.1l-0.8-1.4c-13.8-22.6-21.1-48.9-21.1-76.1c0-7.1-0.2-14.4-0.3-21.8
	c-0.9-40.3-1.7-81.9,21.9-106.1c19.9-20.3,53.8-25,104.5-14.5c15.3-3.6,29.3-5.4,41.7-5.4c85.5,0,85.5,85.4,85.5,147.8
	C345.4,296.2,288.6,358,218.8,358L218.8,358z M132,311.3c22.7,25.8,53.8,40.3,86.7,40.3c66.4,0,120.4-59,120.4-131.5
	c0-63,0-141.5-79.2-141.5c-12.1,0-25.9,1.8-41,5.4l-0.7,0.2l-0.7-0.1C169,73.9,136.5,78,118.2,96.7c-21.8,22.2-20.9,62.6-20.1,101.5
	c0.2,7.4,0.3,14.8,0.3,21.9c0,25.5,6.7,50.1,19.3,71.4c1.7,0.1,3.4,0.2,5.1,0.3c8.1,0.5,16.4,1.1,24.6,3.4c1.2,0.4,2.6,0.7,3.9,1
	c6.6,1.7,14,3.6,19.4,8.2c3.2-0.8,6.3,1.4,6.8,4.8c0.4,2.9-1.2,5.5-4,6.4c-0.5,0.1-0.9,0.3-1.4,0.5c-1,1.1-2.3,1.7-3.8,1.8
	c-1.9,1-3.8,2-6,2.7c-2.2,0.7-4.4,0.1-5.9-1.6c-0.4-0.5-0.7-1-1-1.6C148.8,316.5,140.5,314.1,132,311.3L132,311.3z"/>
<path class="st3" d="M193.2,180c0-24.7-15.6-44.7-34.9-44.7c-19.3,0-34.9,20-34.9,44.7c0,24.7,15.6,44.7,34.9,44.7
	C177.6,224.7,193.2,204.7,193.2,180L193.2,180z"/>
<path d="M158.3,227.4c-20.7,0-37.6-21.2-37.6-47.3s16.9-47.3,37.6-47.3s37.6,21.2,37.6,47.3S179,227.4,158.3,227.4z M158.3,137.9
	c-17.8,0-32.3,18.9-32.3,42.1c0,23.2,14.5,42.1,32.3,42.1c17.8,0,32.3-18.9,32.3-42.1C190.6,156.8,176.1,137.9,158.3,137.9
	L158.3,137.9z"/>
<path class="st3" d="M313.7,180c0-24.7-15.6-44.7-34.9-44.7c-19.3,0-34.9,20-34.9,44.7c0,24.7,15.6,44.7,34.9,44.7
	C298.1,224.7,313.7,204.7,313.7,180L313.7,180z"/>
<path d="M278.8,227.4c-20.7,0-37.6-21.2-37.6-47.3s16.9-47.3,37.6-47.3c20.7,0,37.6,21.2,37.6,47.3S299.5,227.4,278.8,227.4z
	 M278.8,137.9c-17.8,0-32.3,18.9-32.3,42.1c0,23.2,14.5,42.1,32.3,42.1c17.8,0,32.3-18.9,32.3-42.1
	C311.1,156.8,296.6,137.9,278.8,137.9L278.8,137.9z"/>
<path d="M146.5,195.5c0,12.2,6.3,22,14.1,22c7.8,0,14.1-9.9,14.1-22c0-12.2-6.3-22-14.1-22C152.8,173.5,146.5,183.4,146.5,195.5z"/>
<path d="M261.7,195.5c0,12.2,6.3,22,14.1,22c7.8,0,14.1-9.9,14.1-22c0-12.2-6.3-22-14.1-22C268,173.5,261.7,183.4,261.7,195.5z"/>
<path class="st0" d="M371.3,296.8c0,50.7-68.5,91.8-153.1,91.8S65.2,347.5,65.2,296.8c0-50.7,68.5-91.8,153.1-91.8
	S371.3,246.1,371.3,296.8L371.3,296.8z"/>
<path d="M218.2,391.2c-85.8,0-155.7-42.4-155.7-94.5c0-52.1,69.8-94.5,155.7-94.5c85.8,0,155.7,42.4,155.7,94.5
	C373.9,348.9,304.1,391.2,218.2,391.2z M218.2,207.6c-83,0-150.4,40-150.4,89.2c0,49.2,67.5,89.2,150.4,89.2s150.5-40,150.5-89.2
	C368.7,247.6,301.2,207.6,218.2,207.6z"/>
<path d="M73.7,235.2c0,0-2.5,0.6-5.9-1.5c-5.4-3.3-12.8-12.6-17.8-38.7c-2.9-10.9-4.5-19.7-5-26.9c-0.1-1.4-0.2-2.8-0.2-4.1
	c-0.3-13,3-19.5,6.6-22.9c5.8-5.3,14.3-4.1,18.2-3.1c1.3,0.3,2.1,0.6,2.1,0.6l1.8-4.9c-0.6-0.2-15.6-5.7-25.7,3.5
	c-8.8,8-10.7,24.3-5.6,48.3c0.7,3.4,1.6,7,2.6,10.7c4.3,22.3,11,36.4,20.1,42c3.2,1.9,5.9,2.4,7.8,2.4c1.3,0,2.1-0.2,2.3-0.3
	L73.7,235.2L73.7,235.2z"/>
<path d="M388.2,137.2c-10.1-9.2-25-3.7-25.7-3.5l1.8,4.9c0.1-0.1,12.6-4.6,20.3,2.5c0.4,0.3,0.7,0.7,1.1,1.1
	c4.9,5.6,8.6,18.2,1.9,46.5c-0.5,2-1,4-1.6,6.2c0,0.1,0,0.1-0.1,0.2c-4.9,25.6-12.2,35-17.5,38.4c-3.6,2.3-6.1,1.7-6.2,1.7l-1.5,5
	c0.2,0.1,1,0.3,2.3,0.3c1.8,0,4.6-0.4,7.8-2.4c9.1-5.6,15.9-19.7,20.1-41.9C399.2,166.2,398.2,146.3,388.2,137.2L388.2,137.2z"/>
<path d="M121.4,135c0.1,2.9,2.8-2.4,4.6-4c3.1-2.9,7.4-5.2,11.8-7.2c10.9-5.2,24.2-7.2,36.6-7.4c2.6-0.1,3.1-16-2.5-15.9
	c-27.4,0.6-57.5,12.2-56.6,31.2c0.1,2.7,0.2,7.7,3.5,9.5C121.3,142.4,121.5,135.3,121.4,135L121.4,135z"/>
<path d="M309.9,128.9c1.1,2.7-3.5-1-5.9-1.8c-4-1.3-8.9-1.7-13.7-1.8c-12.1-0.2-25,3.4-36.4,8.3c-2.3,1-9.4-13.3-4.2-15.5
	c25.2-10.8,57.4-12.5,64.4,5.2c1,2.5,2.9,7.1,0.7,10.1C313.1,135.7,310.1,129.3,309.9,128.9z"/>
<path class="st3" d="M318.7,329.8c0,0-42.1-58.5-143.9-14.9l-2.5-0.3C221.7,334.5,269.9,361.3,318.7,329.8L318.7,329.8z"/>
<path d="M320.7,328.4c-0.4-0.6-44.4-59.5-146.8-15.7c-0.3-0.1-6.7,2.3-7,2.5c7.1,2.8,14.2,5.7,21.2,8.6c30,12.5,60.6,25.4,91.5,22.4
	c13.4-1.3,26.9-5.6,40.4-14.3l2.1-1.4L320.7,328.4L320.7,328.4z M190,319.4c-3.2-1.4-6.5-2.7-9.8-4.1
	c84.8-34.3,126.3,4.4,134.8,13.9C273.7,354.4,233,337.4,190,319.4L190,319.4z"/>
<path d="M318.7,332.3c-0.1,0-0.2,0-0.3,0l-143.9-14.9c-1.3-0.1-2.3-1.3-2.2-2.7c0.1-1.3,1.3-2.3,2.7-2.2L319,327.4
	c1.3,0.1,2.3,1.3,2.2,2.7C321,331.3,319.9,332.3,318.7,332.3z"/>
<path d="M207.7,331.7c0,0-0.1,0-0.1,0c-1.3-0.1-2.4-1.2-2.3-2.5l1.2-25.9c0.1-1.3,1.2-2.5,2.5-2.3c1.3,0.1,2.4,1.2,2.3,2.5
	l-1.2,25.9C210.1,330.7,209,331.7,207.7,331.7L207.7,331.7z"/>
<path d="M232.3,340.7L232.3,340.7c-1.4,0-2.5-1.2-2.4-2.5l1.2-39c0-1.3,1.2-2.3,2.5-2.3c1.3,0,2.4,1.2,2.3,2.5l-1.2,39
	C234.7,339.7,233.6,340.7,232.3,340.7L232.3,340.7z"/>
<path d="M258.5,344.8L258.5,344.8c-1.4,0-2.5-1.1-2.4-2.5l1-42.7c0-1.3,1-2.4,2.5-2.4c1.3,0,2.4,1.1,2.4,2.5l-1,42.7
	C260.8,343.8,259.8,344.8,258.5,344.8z"/>
<line class="st4" x1="288.4" y1="308.5" x2="287" y2="341.8"/>
<rect x="271" y="322.6" transform="matrix(4.400139e-02 -0.999 0.999 4.400139e-02 -49.8771 598.2414)" width="33.4" height="5.2"/>
</svg>
