<svg xmlns="http://www.w3.org/2000/svg" viewBox="0 0 357.05 368.5"><defs><style>.cls-1{fill:#d8b78b;}.cls-2{fill:#7f512e;}.cls-3{fill:#fff;}.cls-4{fill:#570d59;}.cls-5{fill:#f4e9e1;}</style></defs><title>Asset 1</title><g id="Layer_2" data-name="Layer 2"><g id="Layer_1-2" data-name="Layer 1"><path class="cls-1" d="M303.4,179.43c1,7.23,2.44,31.76,10.75,35.76,26.9,12.94,36.34-47.83,39.32-62.47s-1.14-48.83-23.24-40.59a4.54,4.54,0,0,0-1.63,1c-9.63-4.16-20.7-3.09-24.22,8.7-5.22,17.47-3.44,39.94-1,57.62Z"/><path class="cls-1" d="M52.38,121.81C48.87,110,37.8,109,28.15,113.11a4.43,4.43,0,0,0-1.61-1c-22.1-8.24-26.23,26-23.26,40.59s12.43,75.4,39.34,62.46c8.31-4,9.73-28.52,10.74-35.76,2.46-17.67,4.24-40.15-1-57.62Z"/><path class="cls-2" d="M328.11,147.51c0-80-66.86-144.89-149.36-144.89S29.4,61.4,29.4,147.51C29.4,308.3,96.27,292.4,178.75,292.4S328.11,308.31,328.11,147.51Z"/><path d="M218.12,295.45c-6.15,0-12.47-.1-18.91-.21-13.38-.22-27.54-.22-40.9,0-6.44.1-12.76.21-18.92.21-63.8,0-112.61-10.89-112.61-147.94C26.78,63.42,92.12,0,178.75,0c83.8,0,152,66.17,152,147.51,0,63.38-10.16,103.05-32,124.85-19.25,19.22-45.12,23.09-80.62,23.09Zm-39.36-5.67c7,0,13.82.11,20.54.22,6.41.11,12.7.21,18.82.21,34.17,0,58.95-3.6,76.92-21.56,20.78-20.75,30.46-59.24,30.46-121.15,0-78.44-65.83-142.27-146.74-142.27C95.11,5.23,32,66.4,32,147.5,32,280,76.53,290.21,139.4,290.21c6.13,0,12.41-.11,18.82-.21,6.72-.12,13.58-.23,20.54-.23Z"/><path class="cls-1" d="M55.75,197.41c0,74.37,55.31,134.66,123.53,134.66S302.8,271.78,302.8,197.41,302.15,29,178.74,58.28C39,29,55.74,123,55.74,197.41Z"/><path d="M179.28,335.22c-69.85,0-126.68-61.82-126.68-137.81,0-7.13-.15-14.44-.31-21.8-.85-40.29-1.73-82,21.9-106.08,19.87-20.3,53.79-25,104.51-14.47,15.3-3.59,29.34-5.41,41.73-5.41C306,49.65,306,135.06,306,197.41c0,76-56.83,137.81-126.67,137.81Zm-47-279.28c-24.24,0-41.78,5.88-53.63,18C56.91,96.17,57.76,136.48,58.58,175.47c.16,7.41.32,14.77.32,21.94,0,72.52,54,131.52,120.39,131.52s120.38-59,120.38-131.52c0-63,0-141.46-79.23-141.46-12.08,0-25.86,1.81-41,5.39l-.69.17-.68-.15C161,57.77,145.55,56,132.33,56Z"/><path class="cls-3" d="M153.76,157.29c0-24.69-15.64-44.71-34.94-44.71s-34.95,20-34.95,44.71S99.52,202,118.82,202s34.94-20,34.94-44.71Z"/><path d="M118.81,204.61c-20.71,0-37.56-21.23-37.56-47.33S98.1,110,118.81,110s37.57,21.23,37.57,47.32S139.53,204.61,118.81,204.61Zm0-89.42c-17.82,0-32.32,18.89-32.32,42.09s14.5,42.09,32.32,42.09,32.33-18.88,32.33-42.09-14.5-42.09-32.33-42.09Z"/><path class="cls-3" d="M239.29,211.65c-24.58,0-44.59-24.39-44.59-54.36,0-38.88,33.57-38.88,44.6-38.88s44.6,0,44.6,38.88c0,30-20,54.36-44.61,54.36Z"/><path class="cls-4" d="M239.29,128.05c19.31,0,35,4.54,35,29.23S258.59,202,239.29,202s-34.94-20-34.94-44.71,15.65-29.23,34.94-29.23m0-19.3c-47.19,0-54.24,30.41-54.24,48.53,0,35.3,24.33,64,54.24,64s54.25-28.71,54.25-64c0-18.12-7-48.53-54.25-48.53Z"/><path d="M107,172.8c0,12.17,6.32,22,14.1,22s14.11-9.86,14.11-22-6.32-22-14.11-22S107,160.63,107,172.8Z"/><path d="M222.24,172.8c0,12.17,6.32,22,14.1,22s14.11-9.86,14.11-22-6.31-22-14.11-22S222.24,160.63,222.24,172.8Z"/><path class="cls-1" d="M331.83,274c0,50.72-68.53,91.84-153.07,91.84S25.7,324.76,25.7,274,94.24,182.2,178.76,182.2,331.83,223.32,331.83,274Z"/><path d="M178.76,368.5C92.92,368.5,23.08,326.13,23.08,274s69.85-94.46,155.68-94.46S334.45,222,334.45,274,264.61,368.5,178.76,368.5Zm0-183.68c-82.95,0-150.44,40-150.44,89.22s67.49,89.22,150.44,89.22,150.45-40,150.45-89.22S261.72,184.82,178.76,184.82Z"/><path class="cls-3" d="M30.64,274.68c14.48,11.35,76.11,55.73,153.79,55.74h0c50.84,0,98.79-18.75,142.63-55.75-43.8-20.68-91.78-31.16-142.64-31.16-77.11,0-138.31,24.4-153.79,31.17Z"/><path d="M184.45,335.65h0c-90.62,0-159.76-59-160.45-59.63l.57-4.33c.69-.34,69.61-33.43,159.88-33.43,53.06,0,103,11.25,148.54,33.43l.57,4.33c-45.63,39.57-95.8,59.63-149.09,59.63Zm-153.81-61C45.13,286,106.75,330.4,184.43,330.41h0c50.83,0,98.79-18.75,142.62-55.75C283.26,254,235.29,243.5,184.43,243.5c-77.06,0-138.3,24.41-153.79,31.18Z"/><path d="M184.86,292.77c-90.37,0-158.76-15.94-159.78-16.18l1.22-5.1c1.52.37,154.24,35.92,304.88,0l1.22,5.1c-50.89,12.14-102,16.18-147.54,16.18Z"/><rect x="53.94" y="262" width="5.24" height="35.14"/><rect x="94.67" y="251.91" width="5.24" height="61.23"/><rect x="132.58" y="244.77" width="5.24" height="81.01"/><rect x="300.18" y="262" width="5.24" height="35.14"/><rect x="259.3" y="249.47" width="5.55" height="68.66"/><rect x="221.49" y="244.77" width="5.35" height="84.55"/><rect x="176.12" y="240.94" width="5.24" height="92.1"/><path d="M34.18,212.41s-2.46.57-5.91-1.55c-5.36-3.28-12.8-12.63-17.8-38.74a147.28,147.28,0,0,1-5-26.86c-.11-1.43-.18-2.79-.21-4.09-.33-13,3-19.55,6.61-22.86,5.79-5.29,14.26-4.07,18.19-3.11a21.61,21.61,0,0,1,2.15.63L34,110.92c-.63-.23-15.56-5.69-25.67,3.49-8.81,8-10.66,24.25-5.58,48.25q1.09,5.13,2.59,10.72c4.27,22.26,11.05,36.38,20.15,42a14.84,14.84,0,0,0,7.78,2.38,9.22,9.22,0,0,0,2.34-.27l-1.47-5Z"/><path d="M348.68,114.41c-10.09-9.17-25-3.72-25.66-3.49l1.83,4.91c.12,0,12.63-4.56,20.34,2.48.36.33.72.69,1.08,1.09,4.94,5.6,8.58,18.2,1.89,46.55q-.71,3-1.56,6.18c0,.06,0,.12-.05.18-4.89,25.57-12.21,35-17.49,38.39-3.58,2.31-6.14,1.73-6.19,1.71l-1.46,5a8.47,8.47,0,0,0,2.34.28,14.93,14.93,0,0,0,7.78-2.38c9.11-5.59,15.9-19.73,20.12-41.85,8.08-30.08,7.09-49.95-3-59.08Z"/><path d="M82,112.23c.14,2.94,2.81-2.35,4.63-4C89.69,105.33,94,103,98.34,101c11-5.2,24.19-7.17,36.58-7.43,2.56,0,3.1-16-2.53-15.89C105,78.21,74.91,89.86,75.8,108.88c.13,2.68.25,7.67,3.55,9.46,2.48,1.34,2.63-5.77,2.61-6.11Z"/><path d="M277.25,112.23c-.13,2.94-2.8-2.35-4.62-4-3.11-2.86-7.42-5.17-11.75-7.23-10.95-5.2-24.19-7.17-36.59-7.43-2.55,0-3.09-16,2.54-15.89,27.39.57,57.47,12.22,56.58,31.24-.12,2.68-.24,7.67-3.55,9.46C277.39,119.68,277.23,112.57,277.25,112.23Z"/><path d="M113.89,265.37a5.61,5.61,0,0,1,2.59-.73c10.08-.42,10.17-15.61,0-15.71-1.8,0-3.58,0-5.38.06-1.28.17-2.56.35-3.83.54-2,.53-2,.69-.08.5-5.25-1.78-9.47,2.81-10,7.57-.25,2.56.34,5.1.32,7.67,0,4.25-.47,8.64-.81,12.88-.37,4.52,3.87,7.51,7.86,7.85,6.76.57,13.84.91,20.34,3,3.77,1.21,9-1.38,9.66-5.48.85-5-.2-9.69.14-14.69a58.52,58.52,0,0,0,.24-6.88c-.06-1.44-.66-4,0-5.37,2.76-5.83-.69-11-6.78-11.82-4.7-.63-11.46-.3-15,3.22-4.25,4.25-4,11.45-6.85,16.47-2.66,4.64-.07,9.87,4.69,11.54a17.74,17.74,0,0,0,6.84.61c10.09-.45,10.13-16.17,0-15.71a8.14,8.14,0,0,1-2.66-.05q2.34,5.78,4.69,11.54a38.76,38.76,0,0,0,4.62-11.83c1.06-4.91.93.07-1.93,0,1.91,0,3.69-.38,5.59-.12l-6.78-11.83c-2.34,4.94-2.29,9.53-2.05,14.87a65.32,65.32,0,0,1-.45,7.25c-.18,2.79,1,5.87.56,8.57l9.66-5.49c-7.77-2.49-16.42-2.87-24.51-3.55l7.86,7.85c.29-3.64.33-7.3.66-10.94.3-3.25-.5-6.4-.17-9.6L103,265.18c4.35,1.47,8.93-.59,13.47-.54V248.92A23.09,23.09,0,0,0,106,251.8c-8.86,4.91-.94,18.48,7.93,13.57Z"/><path d="M185.67,303.64c5.37,1.39,10.42,1.43,16,1.43,5.88,0,12.94.5,18.26-2.3L208.06,296c-.31,9.58-2.38,20.17-.13,29.59l5.49-9.66c-9.2,2.31-19,.71-28.24,3.11l9.67,5.48c-.57-2,.22-5.24.13-7.4-.15-4.29-1.82-8.29-1.82-12.61q-5.9,3.4-11.82,6.79c1.29.83,2.24,4.46,2.91,5.85,2.15,4.46,9.12,5.18,12.34,1.6,2.72-3,3.62-6.29,5.48-9.78H188.51c.88,1.6.7,4.51.89,6.27.79,7.38,10.38,11.21,14.64,4,2-3.33,2.79-7,4.42-10.47H194.89c.6,1.39-.69,5.71-.74,7.41-.21,6.22,6.75,9.44,11.82,6.78,4-2.12,6-6.36,7.62-10.42,3.67-9.47-11.53-13.52-15.15-4.18-.35.89-1.54,1.63-.4,1l11.82,6.79c.19-5.62.88-10-1.4-15.34s-11.21-5-13.57,0c-1.62,3.42-2.5,7.22-4.42,10.47l14.64,4c-.51-4.82-.65-9.89-3-14.2-2.79-5-10.8-5.17-13.56,0-1.06,2-1.54,4.94-3,6.59l12.34,1.6c-2.21-4.58-4.13-8.66-8.55-11.5-5.08-3.27-11.81,1-11.82,6.79a59.19,59.19,0,0,0,1.83,12.89c.83,3.75-.65,7.46.41,11.29a8,8,0,0,0,9.67,5.49c9.08-2.36,19.06-.8,28.23-3.11a7.94,7.94,0,0,0,5.49-9.66c-.88-3.7,0-7.8,0-11.56,0-4.66.5-9.22.65-13.86.21-6.21-6.76-9.45-11.82-6.78-1.85,1-8,.15-10.33.15-4.08,0-7.83.15-11.77-.86-9.82-2.53-14,12.63-4.18,15.15Z"/><path class="cls-5" d="M172.61,51c2.53,2.52,3.09,6,1.26,7.87l-9.48,9.48c-1.82,1.83-5.35,1.27-7.87-1.25L122.43,33c-2.52-2.52-3.08-6-1.25-7.87l9.47-9.48c1.83-1.83,5.36-1.27,7.88,1.25L172.61,51Z"/><path d="M161.58,70.8a8.76,8.76,0,0,1-6-2.73L121.46,34a8.76,8.76,0,0,1-2.73-6,5.18,5.18,0,0,1,1.48-3.78l9.47-9.48c2.32-2.32,6.85-1.72,9.82,1.25L173.59,50c3.1,3.1,3.65,7.42,1.25,9.82l-9.47,9.48a5.25,5.25,0,0,1-3.79,1.47ZM133.46,16a2.6,2.6,0,0,0-1.84.67l-9.47,9.48a2.56,2.56,0,0,0-.67,1.84A6,6,0,0,0,123.4,32l34.09,34.09a6.09,6.09,0,0,0,4.09,1.92,2.54,2.54,0,0,0,1.84-.67l9.48-9.48c1.26-1.26.69-4-1.26-5.93L137.56,17.89A6.1,6.1,0,0,0,133.46,16Z"/><path d="M126.71,30a.83.83,0,0,0,0,1.16.84.84,0,0,0,1.17,0A.82.82,0,0,0,126.71,30ZM137,22.1a.82.82,0,0,0-1.17-1.16.84.84,0,0,0,0,1.16A.85.85,0,0,0,137,22.1Zm-5.84,3.51a.84.84,0,0,0,0,1.16.82.82,0,1,0,0-1.16Zm.89,5.55a.84.84,0,0,0,0,1.16.83.83,0,0,0,1.16,0A.82.82,0,0,0,132,31.16Zm4.73-4.73a.83.83,0,0,0,0,1.16.82.82,0,1,0,0-1.16Zm-3.59,10a.83.83,0,0,0,0,1.16.82.82,0,1,0,1.17-1.16A.83.83,0,0,0,133.15,36.46Zm9.09-9.08a.8.8,0,0,0,0,1.15.82.82,0,1,0,0-1.15Zm-4.68,4.67a.84.84,0,0,0,0,1.16.82.82,0,1,0,0-1.16Zm.89,5.55a.82.82,0,1,0,1.16,0A.82.82,0,0,0,138.45,37.6Zm4.73-4.73a.82.82,0,1,0,1.16,0A.82.82,0,0,0,143.18,32.87Zm-3.59,10a.82.82,0,0,0,0,1.15.82.82,0,1,0,1.16-1.15A.82.82,0,0,0,139.59,42.9Zm9.08-9.08A.82.82,0,0,0,149.83,35a.82.82,0,0,0-1.16-1.16ZM144,38.49a.82.82,0,1,0,1.16,0A.82.82,0,0,0,144,38.49Zm.89,5.55a.82.82,0,1,0,1.16,0A.82.82,0,0,0,144.89,44Zm4.74-4.73a.82.82,0,1,0,1.15,1.16.82.82,0,0,0,0-1.16A.81.81,0,0,0,149.63,39.31Zm-3.59,10a.79.79,0,0,0,0,1.15.8.8,0,0,0,1.15,0A.81.81,0,1,0,146,49.34Zm9.07-9.08a.81.81,0,0,0,0,1.15.82.82,0,0,0,1.16,0,.81.81,0,0,0,0-1.15A.82.82,0,0,0,155.11,40.26Zm-4.67,4.67a.82.82,0,1,0,1.16,0A.82.82,0,0,0,150.44,44.93Zm.89,5.55a.82.82,0,0,0,0,1.16.83.83,0,0,0,1.16,0,.82.82,0,1,0-1.16-1.16Zm4.73-4.73a.82.82,0,1,0,1.16,0A.82.82,0,0,0,156.06,45.75Zm-3.58,10a.79.79,0,0,0,0,1.15.8.8,0,0,0,1.15,0,.81.81,0,1,0-1.15-1.15Zm9.08-9.08a.79.79,0,0,0,0,1.15.81.81,0,1,0,0-1.15Zm-4.68,4.67a.82.82,0,0,0,0,1.16.83.83,0,0,0,1.16,0,.82.82,0,0,0-1.16-1.16Zm2,10.85a.82.82,0,0,0,0,1.16.84.84,0,0,0,1.16,0,.82.82,0,1,0-1.16-1.16ZM168,53.14a.81.81,0,0,0,0,1.15.82.82,0,0,0,1.16,0,.81.81,0,0,0,0-1.15A.82.82,0,0,0,168,53.14Zm-4.67,4.67A.82.82,0,1,0,164.48,59a.83.83,0,0,0,0-1.16A.82.82,0,0,0,163.32,57.81Zm-5.55-.89a.82.82,0,0,0,0,1.16.84.84,0,0,0,1.16,0,.82.82,0,1,0-1.16-1.16Zm4.73-4.73a.82.82,0,1,0,1.16,0A.82.82,0,0,0,162.5,52.19Z"/><path class="cls-5" d="M156.51,16.91c2.53-2.52,6.05-3.08,7.88-1.25l9.48,9.47c1.82,1.83,1.26,5.36-1.26,7.88L138.53,67.1c-2.52,2.51-6.05,3.07-7.88,1.25l-9.48-9.48c-1.82-1.82-1.27-5.35,1.26-7.88l34.08-34.08Z"/><path d="M133.46,70.8a5.21,5.21,0,0,1-3.78-1.48l-9.48-9.47c-2.36-2.37-1.79-6.78,1.26-9.82l34.09-34.09c3-3,7.5-3.56,9.81-1.25l9.48,9.47c2.36,2.37,1.8,6.77-1.25,9.82L139.51,68.07a8.76,8.76,0,0,1-6,2.73ZM161.58,16a6.1,6.1,0,0,0-4.09,1.93L123.41,52c-2,2-2.53,4.66-1.26,5.94l9.48,9.47a2.53,2.53,0,0,0,1.84.67,6.09,6.09,0,0,0,4.09-1.92L171.65,32c1.94-1.95,2.51-4.66,1.25-5.93l-9.48-9.48A2.57,2.57,0,0,0,161.58,16Z"/><path d="M135.52,62.81a.82.82,0,1,0,0-1.16A.83.83,0,0,0,135.52,62.81ZM127.6,52.57a.82.82,0,1,0,0,1.16A.82.82,0,0,0,127.6,52.57Zm3.52,5.83a.81.81,0,0,0,1.15,0,.82.82,0,0,0,0-1.16.81.81,0,0,0-1.15,0A.82.82,0,0,0,131.12,58.4Zm5.55-.89a.81.81,0,0,0,1.15,0,.82.82,0,1,0-1.15,0Zm-4.73-4.73a.82.82,0,0,0,1.16-1.16.84.84,0,0,0-1.16,0A.82.82,0,0,0,131.94,52.78Zm10,3.59a.82.82,0,0,0,1.16,0,.84.84,0,0,0,0-1.16.82.82,0,0,0-1.16,0A.81.81,0,0,0,142,56.37Zm-9.08-9.08a.81.81,0,0,0,1.15,0,.82.82,0,0,0,0-1.16.82.82,0,1,0-1.15,1.16ZM137.56,52a.81.81,0,0,0,1.15,0,.82.82,0,0,0,0-1.16.81.81,0,0,0-1.15,0A.82.82,0,0,0,137.56,52Zm5.55-.89a.81.81,0,0,0,1.15,0,.79.79,0,0,0,0-1.15.81.81,0,0,0-1.15,0A.8.8,0,0,0,143.11,51.07Zm-4.73-4.73a.82.82,0,0,0,1.16-1.15.82.82,0,0,0-1.16,0A.81.81,0,0,0,138.38,46.34Zm10,3.59a.81.81,0,1,0,1.15-1.15.79.79,0,0,0-1.15,0A.81.81,0,0,0,148.41,49.93Zm-9.08-9.08a.81.81,0,0,0,1.15,0,.82.82,0,0,0,0-1.16.82.82,0,1,0-1.15,1.16ZM144,45.52a.81.81,0,1,0,0-1.15A.8.8,0,0,0,144,45.52Zm5.55-.89a.82.82,0,0,0,1.16-1.15.82.82,0,1,0-1.16,1.15Zm-4.73-4.73A.82.82,0,0,0,146,38.75a.82.82,0,1,0-1.16,1.15Zm10,3.59A.81.81,0,1,0,156,42.34a.81.81,0,0,0-1.15,1.15Zm-9.08-9.08a.81.81,0,0,0,1.15,0,.82.82,0,0,0,0-1.16.82.82,0,0,0-1.15,1.16Zm4.67,4.67a.81.81,0,1,0,0-1.15A.8.8,0,0,0,150.44,39.08Zm5.54-.89a.82.82,0,0,0,1.16,0,.81.81,0,0,0,0-1.15A.82.82,0,0,0,156,38.19Zm-4.73-4.72a.84.84,0,0,0,1.16,0,.82.82,0,0,0-1.16-1.16A.84.84,0,0,0,151.25,33.47Zm10,3.58a.81.81,0,1,0,0-1.15A.8.8,0,0,0,161.29,37.05ZM152.21,28a.81.81,0,1,0,1.15-1.15A.81.81,0,0,0,152.21,28Zm4.67,4.67A.82.82,0,0,0,158,31.48a.83.83,0,0,0-1.15,0A.81.81,0,0,0,156.88,32.64Zm10.84-2a.82.82,0,0,0,1.16,0,.82.82,0,1,0-1.16-1.15A.82.82,0,0,0,167.72,30.61Zm-9.08-9.08a.82.82,0,1,0,1.16-1.16.84.84,0,0,0-1.16,0A.83.83,0,0,0,158.64,21.53Zm4.68,4.67a.8.8,0,0,0,1.15,0,.81.81,0,0,0-1.15-1.15A.79.79,0,0,0,163.32,26.2Zm-.89,5.55a.8.8,0,0,0,1.15,0,.79.79,0,0,0,0-1.15.81.81,0,1,0-1.15,1.15ZM157.7,27a.8.8,0,0,0,1.15,0,.81.81,0,1,0-1.15,0Z"/></g></g></svg>