<svg xmlns="http://www.w3.org/2000/svg" viewBox="0 0 357.05 368.5"><defs><style>.cls-1{fill:#d8b78b;}.cls-2{fill:#7f512e;}.cls-3{fill:#fff;}.cls-4{fill:#c03;}</style></defs><title>monkeylogo4</title><g id="Layer_2" data-name="Layer 2"><g id="Layer_1-2" data-name="Layer 1"><path class="cls-1" d="M303.41,179.44c1,7.23,2.43,31.77,10.74,35.76,26.9,12.94,36.34-47.83,39.33-62.46s-1.15-48.83-23.25-40.6a4.53,4.53,0,0,0-1.62,1C319,109,307.9,110,304.38,121.82c-5.21,17.46-3.43,39.94-1,57.62Z"/><path class="cls-1" d="M52.39,121.82C48.87,110,37.79,109,28.15,113.11a4.4,4.4,0,0,0-1.62-1c-22.1-8.24-26.22,26-23.25,40.6s12.43,75.4,39.34,62.46c8.3-4,9.74-28.53,10.74-35.76,2.46-17.68,4.24-40.16-1-57.62Z"/><path class="cls-2" d="M328.12,147.51c0-80-66.87-144.89-149.35-144.89S29.42,61.41,29.42,147.51c0,160.8,66.87,144.89,149.35,144.89S328.12,308.31,328.12,147.51Z"/><path d="M218.14,295.45h0c-6.15,0-12.46-.11-18.91-.21-13.37-.22-27.54-.22-40.91,0-6.44.1-12.76.21-18.91.21-63.81,0-112.6-10.89-112.6-147.94C26.8,63.42,92.13,0,178.77,0c83.8,0,152,66.17,152,147.51,0,63.38-10.16,103.06-32,124.86-19.25,19.22-45.12,23.09-80.61,23.09Zm-39.38-5.67c7,0,13.83.11,20.55.22,6.41.11,12.69.21,18.82.21,34.16,0,58.95-3.6,76.92-21.55,20.77-20.76,30.45-59.25,30.45-121.15,0-78.45-65.83-142.27-146.74-142.27C95.11,5.24,32,66.4,32,147.51,32,280,76.53,290.21,139.4,290.21c6.12,0,12.41-.11,18.82-.21,6.71-.12,13.57-.23,20.54-.23Z"/><path class="cls-1" d="M55.76,197.41c0,74.38,55.3,134.67,123.53,134.67s123.52-60.29,123.52-134.67S302.15,29,178.75,58.28C39,29,55.76,123,55.76,197.41Z"/><path d="M179.29,335.23c-69.85,0-126.68-61.82-126.68-137.81,0-7.13-.16-14.43-.32-21.8-.85-40.29-1.73-81.95,21.9-106.08,19.88-20.3,53.81-25,104.51-14.47,15.3-3.58,29.34-5.4,41.73-5.4C306,49.67,306,135.07,306,197.43c0,76-56.82,137.81-126.67,137.81ZM132.33,56c-24.24,0-41.79,5.89-53.64,18C56.91,96.18,57.77,136.5,58.59,175.49c.16,7.4.31,14.75.31,21.93,0,72.52,54,131.52,120.39,131.52s120.38-59,120.38-131.52c0-63,0-141.47-79.24-141.47-12.08,0-25.86,1.81-41,5.4l-.69.16-.68-.15C161,57.77,145.55,56,132.34,56Z"/><path class="cls-3" d="M153.77,157.29c0-24.69-15.65-44.71-35-44.71s-34.94,20-34.94,44.71S99.52,202,118.82,202s35-20,35-44.71Z"/><path class="cls-1" d="M131.65,150.34a2.24,2.24,0,0,1,2.62.8l2.54-1.18a2.65,2.65,0,0,1,1.17-.76,121.39,121.39,0,0,0,14.16-5.39c-4.47-18.1-17.7-31.23-33.32-31.23-15.28,0-28.24,12.57-33,30.06,6.42,4.44,17,10.75,24.58,10.21,6.79-.5,14.76-.46,21.24-2.51Z"/><path d="M118.82,204.61c-20.72,0-37.57-21.23-37.57-47.33S98.1,110,118.82,110s37.56,21.23,37.56,47.33S139.53,204.61,118.82,204.61Zm0-89.42c-17.83,0-32.33,18.89-32.33,42.09s14.5,42.09,32.33,42.09,32.32-18.87,32.32-42.09-14.5-42.09-32.32-42.09Z"/><path class="cls-3" d="M274.24,157.29c0-24.69-15.65-44.71-35-44.71s-34.94,20-34.94,44.71S220,202,239.29,202s35-20,35-44.71Z"/><path class="cls-1" d="M239.3,112.58c-16.31,0-30,14.31-33.81,33.63l.17.08a2.63,2.63,0,0,1,3.13-.67c12.34,5.69,23.37,11.25,37.32,7.29,7.53-2.14,16.05-2.65,23.17-5.92a2.61,2.61,0,0,1,2.78.31c.4-.14.8-.26,1.19-.43-3.68-19.65-17.46-34.29-33.95-34.29Z"/><path d="M239.3,204.61c-20.72,0-37.57-21.23-37.57-47.33S218.58,110,239.3,110s37.56,21.23,37.56,47.33S260,204.61,239.3,204.61Zm0-89.42c-17.82,0-32.33,18.89-32.33,42.09s14.5,42.09,32.33,42.09,32.32-18.87,32.32-42.09-14.5-42.09-32.32-42.09Z"/><path d="M107,172.81c0,12.16,6.31,22,14.1,22s14.1-9.87,14.1-22-6.31-22-14.1-22S107,160.63,107,172.81Z"/><path d="M222.25,172.81c0,12.16,6.31,22,14.1,22s14.1-9.87,14.1-22-6.31-22-14.1-22S222.25,160.63,222.25,172.81Z"/><path d="M236.46,155.17a53,53,0,0,1-31.82-10.08,2.62,2.62,0,0,1,3.09-4.24c27.62,20.15,63,.06,63.36-.15a2.62,2.62,0,0,1,2.63,4.54c-1,.59-17.49,9.93-37.26,9.93Z"/><path d="M115.91,155.17a53,53,0,0,1-31.85-10.08,2.62,2.62,0,0,1,3.09-4.24c27.57,20.11,63.12.05,63.47-.15a2.62,2.62,0,1,1,2.62,4.54C152.21,145.83,135.71,155.17,115.91,155.17Z"/><path class="cls-1" d="M331.83,274c0,50.72-68.53,91.84-153.06,91.84S25.7,324.76,25.7,274s68.53-91.83,153.07-91.83S331.83,223.33,331.83,274Z"/><path d="M178.77,368.5C92.92,368.5,23.08,326.12,23.08,274s69.84-94.45,155.69-94.45S334.45,222,334.45,274,264.61,368.5,178.77,368.5Zm0-183.67c-83,0-150.45,40-150.45,89.21s67.49,89.23,150.45,89.23,150.44-40,150.44-89.23S261.72,184.83,178.77,184.83Z"/><path d="M34.19,212.41s-2.47.57-5.92-1.54c-5.37-3.29-12.8-12.64-17.8-38.75a148.87,148.87,0,0,1-5-26.86c-.1-1.43-.17-2.79-.21-4.09-.32-13,3-19.55,6.62-22.86,5.79-5.28,14.27-4.06,18.19-3.1a20.28,20.28,0,0,1,2.15.62L34,110.92c-.63-.23-15.56-5.69-25.67,3.49-8.8,8-10.66,24.26-5.58,48.26.72,3.41,1.59,7,2.59,10.71,4.27,22.26,11.05,36.38,20.15,42a14.93,14.93,0,0,0,7.78,2.38,9.22,9.22,0,0,0,2.34-.27l-1.46-5Z"/><path d="M348.69,114.41c-10.1-9.18-25-3.72-25.68-3.49l1.84,4.91c.12,0,12.63-4.56,20.34,2.48.36.33.72.69,1.08,1.09,4.94,5.6,8.59,18.19,1.89,46.54-.47,2-1,4-1.57,6.18,0,.07,0,.13,0,.2-4.89,25.56-12.21,35-17.49,38.38-3.58,2.3-6.14,1.72-6.18,1.71l-1.47,5a8.62,8.62,0,0,0,2.34.28,14.93,14.93,0,0,0,7.78-2.38c9.11-5.59,15.89-19.73,20.12-41.86,8.09-30.07,7.09-49.94-3-59.07Z"/><path d="M82.75,114.61c0,1.74,2.92-1.58,4.85-2.69a69.86,69.86,0,0,1,12.09-5c11.17-3.8,24.4-5.83,36.69-6.79,2.53-.19,4.1-9.69-1.48-9.26-27.14,2.12-57.67,11-58,22.21,0,1.58-.25,4.53,2.9,5.38,2.37.63,3-3.6,3-3.8Z"/><path d="M274.22,114.61c0,1.74-2.93-1.58-4.85-2.69a70.65,70.65,0,0,0-12.1-5c-11.17-3.8-24.4-5.83-36.68-6.79-2.54-.19-4.11-9.69,1.48-9.26,27.14,2.12,57.66,11,58,22.21.06,1.58.26,4.53-2.9,5.38-2.36.63-3-3.6-3-3.8Z"/><path class="cls-4" d="M178.53,274.05c-20.95,0-37.93,11.77-37.93,26.31s17,26.33,37.93,26.33,37.93-11.79,37.93-26.33S199.48,274.05,178.53,274.05Z"/><path d="M161,300.37c0,2.57,7.84,4.65,17.53,4.65s17.53-2.08,17.53-4.65-7.85-4.67-17.53-4.67S161,297.79,161,300.37Z"/><path d="M67.16,160.18a1.49,1.49,0,0,1-.35-2.93c11.58-2.78,19.93-13.44,20-13.55a1.49,1.49,0,1,1,2.35,1.82c-.36.47-9.09,11.59-21.66,14.62a1.45,1.45,0,0,1-.35,0Z"/><path d="M77.63,165.42a1.49,1.49,0,0,1-.35-2.93c11.57-2.78,19.93-13.44,20-13.55a1.49,1.49,0,1,1,2.35,1.82c-.36.47-9.09,11.6-21.67,14.62a1.32,1.32,0,0,1-.34,0Z"/><path d="M89.64,169.61a1.49,1.49,0,0,1-.46-2.9c11.31-3.63,18.86-14.91,18.93-15a1.48,1.48,0,0,1,2.48,1.63c-.33.5-8.18,12.26-20.5,16.22a1.41,1.41,0,0,1-.45.07Z"/><path d="M102.48,172.91a1.48,1.48,0,0,1-.67-2.81c10.61-5.38,16.25-17.71,16.3-17.83a1.49,1.49,0,1,1,2.72,1.22c-.25.54-6.14,13.4-17.68,19.26a1.5,1.5,0,0,1-.67.16Z"/><path d="M117.27,171.08a1.49,1.49,0,0,1-.68-2.81c10.59-5.39,16.26-17.71,16.31-17.83a1.49,1.49,0,0,1,2.71,1.22c-.24.54-6.13,13.39-17.67,19.26a1.5,1.5,0,0,1-.67.16Z"/><path d="M133.64,168.91a1.48,1.48,0,0,1-.88-2.68c9.56-7,13.14-20.13,13.17-20.26a1.46,1.46,0,0,1,1.81-1.05,1.48,1.48,0,0,1,1.06,1.81c-.15.58-3.86,14.23-14.28,21.89a1.47,1.47,0,0,1-.88.29Z"/><path d="M286.4,161.55a1.39,1.39,0,0,1-.35,0c-12.59-3-21.31-14.15-21.68-14.63a1.49,1.49,0,0,1,2.36-1.81c.08.1,8.46,10.79,20,13.55a1.49,1.49,0,0,1-.34,2.93Z"/><path d="M275.93,166.79a1.39,1.39,0,0,1-.35,0c-12.59-3-21.3-14.15-21.67-14.63a1.48,1.48,0,1,1,2.35-1.81c.08.1,8.46,10.79,20,13.55a1.49,1.49,0,0,1,1.1,1.79A1.47,1.47,0,0,1,275.93,166.79Z"/><path d="M263.92,171a1.47,1.47,0,0,1-.46-.07c-12.32-4-20.17-15.72-20.5-16.22a1.49,1.49,0,0,1,2.48-1.64c.08.12,7.63,11.4,18.93,15a1.49,1.49,0,0,1-.45,2.9Z"/><path d="M251.08,174.29a1.51,1.51,0,0,1-.68-.16c-11.53-5.87-17.43-18.72-17.67-19.26a1.49,1.49,0,0,1,2.71-1.22c.05.12,5.72,12.45,16.31,17.83a1.49,1.49,0,0,1-.67,2.81Z"/><path d="M236.29,172.45a1.44,1.44,0,0,1-.67-.16c-11.54-5.86-17.44-18.72-17.68-19.26a1.49,1.49,0,1,1,2.71-1.22c.06.12,5.72,12.45,16.31,17.83a1.49,1.49,0,0,1-.67,2.81Z"/><path d="M219.92,170.29A1.43,1.43,0,0,1,219,170c-10.42-7.67-14.14-21.31-14.29-21.89a1.49,1.49,0,0,1,1.05-1.81,1.45,1.45,0,0,1,1.82,1c0,.13,3.62,13.22,13.18,20.26a1.49,1.49,0,0,1-.88,2.68Z"/></g></g></svg>