<?xml version="1.0" encoding="utf-8"?>
<!-- Generator: Adobe Illustrator 22.1.0, SVG Export Plug-In . SVG Version: 6.00 Build 0)  -->
<svg version="1.1" id="Layer_1" xmlns="http://www.w3.org/2000/svg" xmlns:xlink="http://www.w3.org/1999/xlink" x="0px" y="0px"
	 viewBox="0 0 436 414" style="enable-background:new 0 0 436 414;" xml:space="preserve">
<style type="text/css">
	.st0{fill:#D8B78B;}
	.st1{fill:#7F512E;stroke:#000000;stroke-width:4.252;stroke-miterlimit:10;}
	.st2{fill:#D8B78B;stroke:#000000;stroke-width:4.252;stroke-miterlimit:10;}
	.st3{fill:#FFFFFF;stroke:#000000;stroke-width:4.252;stroke-miterlimit:10;}
	.st4{fill:#FFFFFF;}
	.st5{fill:#CC0033;}
</style>
<path class="st0" d="M346.3,206.3c1,7.3,2.5,32,10.8,36c27.1,13,36.6-48.2,39.6-62.9c3-14.7-1.2-49.2-23.4-40.9
	c-0.7,0.3-1.3,0.6-1.6,1c-9.7-4.2-20.9-3.1-24.4,8.8C342,165.9,343.8,188.5,346.3,206.3L346.3,206.3z"/>
<path class="st0" d="M93.5,148.3c-3.5-11.9-14.7-12.9-24.4-8.8c-0.4-0.4-0.9-0.7-1.6-1C45.2,130.3,41,164.8,44,179.4
	c3,14.7,12.5,75.9,39.6,62.9c8.4-4,9.8-28.7,10.8-36C96.9,188.5,98.7,165.9,93.5,148.3L93.5,148.3z"/>
<path class="st1" d="M371.2,174.2c0-80.6-67.3-145.9-150.4-145.9c-83.1,0-150.4,59.2-150.4,145.9c0,161.9,67.3,145.9,150.4,145.9
	C303.8,320.1,371.2,336.1,371.2,174.2L371.2,174.2z"/>
<path class="st2" d="M96.9,224.4c0,74.9,55.7,135.6,124.4,135.6c68.7,0,124.4-60.7,124.4-135.6c0-74.9-0.7-169.6-125-140.1
	C80,54.8,96.9,149.5,96.9,224.4L96.9,224.4z"/>
<ellipse class="st3" cx="160.4" cy="184" rx="35.2" ry="45"/>
<ellipse class="st3" cx="281.7" cy="184" rx="35.2" ry="45"/>
<path d="M143.2,183.8c0,12.3,6.4,22.2,14.2,22.2c7.8,0,14.2-9.9,14.2-22.2c0-12.3-6.4-22.2-14.2-22.2
	C149.6,161.6,143.2,171.6,143.2,183.8z"/>
<ellipse cx="284" cy="183.8" rx="14.2" ry="22.2"/>
<ellipse class="st0" cx="220.7" cy="301.6" rx="154.2" ry="92.5"/>
<path d="M374.9,301.6c0-4.7-0.6-9.3-1.7-13.8c0,0,0,0,0,0c0.2-0.3,0.4-0.6,0.5-1c0.4-1.4-0.5-2.9-1.9-3.2c-0.3-0.1-5.7-1.5-15.4-3.5
	v-25.2c0-1.5-1.2-2.6-2.6-2.6s-2.6,1.2-2.6,2.6V279c-7.2-1.4-16.1-3-26.4-4.6v-28.1c13.3,3,21.1,5.4,21.4,5.5
	c1.4,0.4,2.9-0.3,3.3-1.7c0.4-1.4-0.3-2.9-1.7-3.3c-0.7-0.2-35.9-11.2-87.6-15.8c-0.2,0-0.4-0.1-0.5-0.1c-0.1,0-0.1,0-0.2,0
	c-11.7-1-24.3-1.7-37.5-1.9c-0.3-0.1-0.6-0.2-0.9-0.2c-0.3,0-0.5,0.1-0.8,0.2c-22.4-0.2-46.6,1.1-71.5,5c-0.1,0-0.2,0-0.2,0
	c-0.4,0-0.8,0.1-1.1,0.3c-10.7,1.7-21.6,3.8-32.5,6.5c-0.2,0-0.4,0.1-0.5,0.1c-7.1,1.8-14.2,3.7-21.4,5.9c-1.4,0.4-2.2,1.9-1.7,3.3
	c0.4,1.1,1.4,1.9,2.5,1.9c0.3,0,0.5,0,0.8-0.1c6.1-1.9,12.2-3.6,18.2-5.1v27.7c-7.4,1.3-14.9,2.8-22.4,4.4v-23.8H85v24.9
	c-5.1,1.2-10.2,2.4-15.3,3.8c-1.4,0.4-2.2,1.8-1.9,3.2c0.1,0.3,0.3,0.5,0.5,0.7c0,0,0,0,0,0c-1.2,4.6-1.8,9.3-1.8,14.1
	c0,11.7,3.7,22.9,10.3,33.2h0c-0.2,0.3-0.3,0.6-0.4,1c-0.3,1.4,0.7,2.8,2.1,3.1c2.2,0.4,4.3,0.7,6.5,1.1v8.4h5.3v-7.5
	c7.5,1.2,15,2.4,22.4,3.3v21.2c-1,0.2-1.8,0.9-2,1.9c-0.3,1.4,0.5,2.9,2,3.2c23.6,5.7,47.1,8.9,69.5,10.4c0.2,0.1,0.5,0.2,0.8,0.2
	c0.1,0,0.3-0.1,0.4-0.1c11.5,0.8,22.7,1.1,33.5,1.1c63.5,0,111.1-11.5,111.8-11.6c1.4-0.3,2.3-1.8,1.9-3.2c-0.3-1.4-1.8-2.3-3.2-1.9
	c-0.1,0-1,0.2-2.5,0.6v-21.7c11-1.3,19.9-2.5,26.4-3.5v8.9h5.3v-9.7c3.9-0.6,6-1,6.2-1c1.4-0.3,2.4-1.6,2.1-3.1
	c0-0.3-0.2-0.5-0.3-0.7C371.2,324.7,374.9,313.4,374.9,301.6L374.9,301.6z M364,334.5c0,0-0.1-0.1-0.1-0.1
	C364,334.4,364,334.4,364,334.5z M372.1,288.5c-0.1,0-0.2,0.1-0.3,0.1C371.9,288.6,372,288.6,372.1,288.5z M294,240.4
	c9.7,1.5,18.3,3.2,25.6,4.7v28.5c-7.8-1.2-16.4-2.3-25.6-3.3V240.4z M262.3,236.4c9.4,0.9,18.2,2,26.4,3.2v30.1
	c-8.3-0.9-17.2-1.6-26.4-2.2V236.4L262.3,236.4z M223.7,234.2c11.7,0.2,22.8,0.8,33.3,1.7v31.2c-10.6-0.6-21.8-1.1-33.3-1.2V234.2z
	 M185.6,235.1c11.3-0.7,22.3-1,32.8-1v31.7c-10.6,0-21.6,0.2-32.8,0.7V235.1z M151.1,238.8c9.9-1.5,19.6-2.5,29.2-3.3v31.2
	c-9.6,0.5-19.3,1.3-29.2,2.3V238.8z M118,245.2c9.3-2.2,18.6-4.1,27.8-5.5v29.9c-9.2,1-18.5,2.3-27.8,3.8V245.2z M69.2,288.3
	c0.4,0.2,0.8,0.4,1.3,0.4C70,288.8,69.6,288.6,69.2,288.3z M77.9,333.9c0.1-0.1,0.2-0.1,0.3-0.1C78.1,333.9,78,333.9,77.9,333.9z
	 M145.1,371.5c-9-1.4-18-3.1-27.1-5.2v-21.5c9.1,1.1,18.1,2,27.1,2.8V371.5L145.1,371.5z M180.3,375.5c-9.8-0.7-19.8-1.8-29.9-3.2
	V348c10.1,0.8,20.1,1.3,29.9,1.7V375.5L180.3,375.5z M218.4,376.8c-10.5,0-21.5-0.3-32.8-1V350c10.2,0.4,20.3,0.5,30,0.5
	c1,0,1.9,0,2.8,0V376.8L218.4,376.8z M257,375.3c-10.4,0.8-21.5,1.3-33.3,1.5v-26.4c11.6-0.1,22.7-0.4,33.3-0.9V375.3L257,375.3z
	 M288.7,372.1c-7.9,1-16.7,2-26.4,2.8v-25.6c9.3-0.5,18.1-1,26.4-1.7V372.1z M319.5,367c-5.8,1.2-14.5,2.8-25.6,4.3v-24.1
	c9.3-0.8,17.9-1.6,25.6-2.4V367z M362.6,333.7c-0.3-0.1-0.6-0.1-0.9,0C362,333.6,362.3,333.6,362.6,333.7z M363.4,334
	c-0.1-0.1-0.3-0.1-0.4-0.2C363.2,333.9,363.3,333.9,363.4,334z"/>
<path class="st4" d="M223.7,265.9c11.6,0.1,22.7,0.6,33.3,1.2v-31.2c-10.5-0.9-21.7-1.5-33.3-1.7V265.9z M151.1,269
	c9.9-1,19.6-1.8,29.2-2.3v-31.2c-9.6,0.7-19.3,1.8-29.2,3.3V269z M85,345.6V340c-1.8-0.3-3.5-0.6-5.3-0.9
	C81.4,341.3,83.1,343.4,85,345.6L85,345.6z M69.8,283.6c5.1-1.3,10.2-2.6,15.3-3.8v-22.1c-7.2,8-12.5,16.8-15.6,26
	C69.6,283.7,69.7,283.6,69.8,283.6L69.8,283.6z M118,273.4c9.4-1.5,18.6-2.8,27.8-3.8v-29.9c-9.2,1.5-18.5,3.3-27.8,5.5V273.4z
	 M185.6,266.5c11.2-0.5,22.2-0.7,32.8-0.7v-31.7c-10.6-0.1-21.6,0.2-32.8,1V266.5z M351.2,254.9c0-0.7,0.3-1.4,0.8-1.9
	c-0.9-0.9-1.8-1.7-2.7-2.5c-0.6,1-1.8,1.6-3,1.2c-0.3-0.1-8.1-2.5-21.4-5.5v28.1c10.3,1.6,19.2,3.2,26.4,4.6L351.2,254.9z
	 M356.4,257.7v22.4c9.7,2,15.1,3.5,15.4,3.5c0.1,0,0.1,0.1,0.1,0.1C368.9,274.4,363.7,265.7,356.4,257.7z M294,270.2
	c9.2,1,17.7,2.1,25.6,3.3v-28.5c-7.3-1.5-15.9-3.2-25.6-4.7V270.2L294,270.2z M262.3,267.4c9.2,0.6,18.1,1.4,26.4,2.2v-30.1
	c-8.1-1.2-17-2.3-26.4-3.2V267.4L262.3,267.4z M93.7,251.8c-0.8,0-1.4-0.4-1.9-1c-1.4,1.3-2.8,2.6-4.1,4h2.6v23.8
	c7.5-1.6,15-3.1,22.4-4.4v-27.7c-6.1,1.6-12.1,3.2-18.2,5.1C94.3,251.8,94,251.8,93.7,251.8L93.7,251.8z M351.2,340.7
	c-6.4,1-15.3,2.2-26.4,3.5v21.7c1.5-0.3,2.4-0.6,2.5-0.6c1.2-0.3,2.4,0.3,2.9,1.3c8.5-5.1,16-10.9,22.3-17.1h-1.4L351.2,340.7
	L351.2,340.7z M262.3,374.9c9.7-0.8,18.5-1.8,26.4-2.8v-24.4c-8.3,0.6-17.1,1.2-26.4,1.7V374.9L262.3,374.9z M294,371.4
	c11.1-1.6,19.8-3.2,25.6-4.3v-22.2c-7.7,0.8-16.3,1.7-25.6,2.4V371.4z M356.4,345.5c1.9-2.1,3.7-4.3,5.3-6.5c-1,0.2-2.7,0.5-5.3,0.9
	V345.5L356.4,345.5z M90.3,348.3h-2.6c6.5,6.7,14.4,12.8,23.4,18.3c0.4-0.6,0.9-1.1,1.6-1.3v-21.2c-7.4-1-14.9-2.1-22.4-3.3
	L90.3,348.3L90.3,348.3z M118,366.3c9.1,2.1,18.1,3.8,27.1,5.2v-23.9c-8.9-0.8-18-1.7-27.1-2.8V366.3z M223.7,376.8
	c11.8-0.2,23-0.7,33.3-1.5v-25.8c-10.6,0.5-21.7,0.8-33.3,0.9V376.8L223.7,376.8z M150.4,372.3c10.1,1.4,20.1,2.5,29.9,3.2v-25.7
	c-9.8-0.4-19.8-1-29.9-1.7V372.3L150.4,372.3z M185.6,349.9v25.9c11.3,0.7,22.3,1,32.8,1v-26.4c-1,0-1.9,0-2.8,0
	C205.8,350.5,195.8,350.3,185.6,349.9z"/>
<path d="M220.7,396.8c-86.5,0-156.8-42.7-156.8-95.1s70.3-95.1,156.8-95.1c86.5,0,156.8,42.7,156.8,95.1S307.2,396.8,220.7,396.8z
	 M220.7,211.8c-83.6,0-151.5,40.3-151.5,89.9c0,49.6,68,89.9,151.5,89.9s151.5-40.3,151.5-89.9C372.3,252.1,304.3,211.8,220.7,211.8
	z"/>
<path d="M75.1,239.5c0,0-2.5,0.6-6-1.6c-5.4-3.3-12.9-12.7-17.9-39c-3-11-4.5-19.9-5-27.1c-0.1-1.4-0.2-2.8-0.2-4.1
	c-0.3-13.1,3-19.7,6.7-23c5.8-5.3,14.4-4.1,18.3-3.1c1.3,0.3,2.1,0.6,2.2,0.6l1.9-4.9c-0.6-0.2-15.7-5.7-25.9,3.5
	c-8.9,8.1-10.7,24.4-5.6,48.6c0.7,3.4,1.6,7,2.6,10.8c4.3,22.4,11.1,36.6,20.3,42.3c3.2,2,6,2.4,7.8,2.4c1.3,0,2.2-0.2,2.4-0.3
	L75.1,239.5L75.1,239.5z"/>
<path d="M391.9,140.8c-10.2-9.2-25.2-3.7-25.9-3.5l1.9,4.9c0.1-0.1,12.7-4.6,20.5,2.5c0.4,0.3,0.7,0.7,1.1,1.1
	c5,5.6,8.7,18.3,1.9,46.9c-0.5,2-1,4.1-1.6,6.2c0,0.1,0,0.1,0,0.2c-4.9,25.8-12.3,35.2-17.6,38.7c-3.6,2.3-6.2,1.7-6.2,1.7l-1.5,5.1
	c0.2,0.1,1,0.3,2.4,0.3c1.9,0,4.6-0.4,7.8-2.4c9.2-5.6,16-19.9,20.3-42.1C403,170.1,402,150,391.9,140.8z"/>
<path d="M123.2,128.1c0.1,3,2.8-2.4,4.7-4.1c3.1-2.9,7.5-5.2,11.8-7.3c11-5.2,24.4-7.2,36.8-7.5c2.6-0.1,3.1-16.1-2.6-16
	c-27.6,0.6-57.9,12.3-57,31.5c0.1,2.7,0.3,7.7,3.6,9.5C123.1,135.6,123.3,128.4,123.2,128.1L123.2,128.1z"/>
<path d="M319.9,128.1c-0.1,3-2.8-2.4-4.7-4.1c-3.1-2.9-7.5-5.2-11.8-7.3c-11-5.2-24.4-7.2-36.8-7.5c-2.6-0.1-3.1-16.1,2.6-16
	c27.6,0.6,57.9,12.3,57,31.5c-0.1,2.7-0.2,7.7-3.6,9.5C320.1,135.6,319.9,128.4,319.9,128.1L319.9,128.1z"/>
<path class="st5" d="M308.6,325.1c0,8.6-39.2,15.7-87.6,15.7c-48.3,0-87.5-7-87.5-15.7s39.2-15.7,87.5-15.7
	C269.4,309.4,308.6,316.4,308.6,325.1z"/>
</svg>
