<svg xmlns="http://www.w3.org/2000/svg" viewBox="0 0 359.54 370.63"><defs><style>.cls-1,.cls-3{fill:#d8b78b;}.cls-2{fill:#7f512e;}.cls-2,.cls-3,.cls-4{stroke:#000;stroke-miterlimit:10;stroke-width:4.25px;}.cls-4,.cls-5{fill:#fff;}.cls-6{fill:#c03;}</style></defs><title>monkeylogo1</title><g id="Layer_2" data-name="Layer 2"><g id="Layer_1-2" data-name="Layer 1"><path class="cls-1" d="M305.52,180.13c1,7.3,2.5,32,10.8,36,27.1,13,36.6-48.2,39.6-62.9s-1.2-49.2-23.4-40.9a4,4,0,0,0-1.6,1c-9.7-4.2-20.9-3.1-24.4,8.8-5.3,17.6-3.5,40.2-1,58Z"/><path class="cls-1" d="M52.72,122.13c-3.5-11.9-14.7-12.9-24.4-8.8a4.88,4.88,0,0,0-1.6-1c-22.3-8.2-26.5,26.3-23.5,40.9s12.5,75.9,39.6,62.9c8.4-4,9.8-28.7,10.8-36,2.5-17.8,4.3-40.4-.9-58Z"/><path class="cls-2" d="M330.42,148c0-80.6-67.3-145.9-150.4-145.9S29.62,61.33,29.62,148c0,161.9,67.3,145.9,150.4,145.9s150.4,16,150.4-145.9Z"/><path class="cls-3" d="M56.12,198.23c0,74.9,55.7,135.6,124.4,135.6s124.4-60.7,124.4-135.6-.7-169.6-125-140.1c-140.7-29.5-123.8,65.2-123.8,140.1Z"/><ellipse class="cls-4" cx="119.62" cy="157.83" rx="35.2" ry="45"/><ellipse class="cls-4" cx="240.92" cy="157.83" rx="35.2" ry="45"/><path d="M102.42,157.63c0,12.3,6.4,22.2,14.2,22.2s14.2-9.9,14.2-22.2-6.4-22.2-14.2-22.2S102.42,145.43,102.42,157.63Z"/><ellipse cx="243.22" cy="157.63" rx="14.2" ry="22.2"/><ellipse class="cls-1" cx="179.92" cy="275.43" rx="154.2" ry="92.5"/><path d="M334.12,275.43a57.94,57.94,0,0,0-1.7-13.8h0a3.13,3.13,0,0,0,.5-1,2.58,2.58,0,0,0-1.9-3.2c-.3-.1-5.7-1.5-15.4-3.5v-25.2a2.58,2.58,0,0,0-2.6-2.6,2.65,2.65,0,0,0-2.6,2.6v24.1c-7.2-1.4-16.1-3-26.4-4.6v-28.1c13.3,3,21.1,5.4,21.4,5.5a2.62,2.62,0,1,0,1.6-5c-.7-.2-35.9-11.2-87.6-15.8a4.33,4.33,0,0,1-.5-.1h-.2c-11.7-1-24.3-1.7-37.5-1.9a2.92,2.92,0,0,0-.9-.2,2.35,2.35,0,0,0-.8.2,437.7,437.7,0,0,0-71.5,5h-.2a2,2,0,0,0-1.1.3c-10.7,1.7-21.6,3.8-32.5,6.5a4.33,4.33,0,0,0-.5.1c-7.1,1.8-14.2,3.7-21.4,5.9a2.54,2.54,0,0,0-1.7,3.3,2.77,2.77,0,0,0,2.5,1.9,2.2,2.2,0,0,0,.8-.1c6.1-1.9,12.2-3.6,18.2-5.1v27.7c-7.4,1.3-14.9,2.8-22.4,4.4v-23.8h-5.5v24.9c-5.1,1.2-10.2,2.4-15.3,3.8a2.71,2.71,0,0,0-1.9,3.2,1.79,1.79,0,0,0,.5.7h0a55.63,55.63,0,0,0-1.8,14.1c0,11.7,3.7,22.9,10.3,33.2h0a3,3,0,0,0-.4,1,2.69,2.69,0,0,0,2.1,3.1c2.2.4,4.3.7,6.5,1.1v8.4h5.3v-7.5c7.5,1.2,15,2.4,22.4,3.3v21.2a2.45,2.45,0,0,0-2,1.9,2.65,2.65,0,0,0,2,3.2,414.59,414.59,0,0,0,69.5,10.4,1.88,1.88,0,0,0,.8.2c.1,0,.3-.1.4-.1,11.5.8,22.7,1.1,33.5,1.1,63.5,0,111.1-11.5,111.8-11.6a2.63,2.63,0,0,0-1.3-5.1c-.1,0-1,.2-2.5.6v-21.7c11-1.3,19.9-2.5,26.4-3.5v8.9h5.3V314c3.9-.6,6-1,6.2-1a2.64,2.64,0,0,0,2.1-3.1,1.49,1.49,0,0,0-.3-.7c6.6-10.7,10.3-22,10.3-33.8Zm-10.9,32.9-.1-.1C323.22,308.23,323.22,308.23,323.22,308.33Zm8.1-46c-.1,0-.2.1-.3.1A.37.37,0,0,0,331.32,262.33Zm-78.1-48.1c9.7,1.5,18.3,3.2,25.6,4.7v28.5c-7.8-1.2-16.4-2.3-25.6-3.3Zm-31.7-4c9.4.9,18.2,2,26.4,3.2v30.1c-8.3-.9-17.2-1.6-26.4-2.2v-31.1Zm-38.6-2.2c11.7.2,22.8.8,33.3,1.7v31.2c-10.6-.6-21.8-1.1-33.3-1.2Zm-38.1.9c11.3-.7,22.3-1,32.8-1v31.7c-10.6,0-21.6.2-32.8.7Zm-34.5,3.7c9.9-1.5,19.6-2.5,29.2-3.3v31.2c-9.6.5-19.3,1.3-29.2,2.3ZM77.22,219c9.3-2.2,18.6-4.1,27.8-5.5v29.9c-9.2,1-18.5,2.3-27.8,3.8Zm-48.8,43.1a2.84,2.84,0,0,0,1.3.4A1.57,1.57,0,0,1,28.42,262.13Zm8.7,45.6a.37.37,0,0,1,.3-.1A.37.37,0,0,1,37.12,307.73Zm67.2,37.6c-9-1.4-18-3.1-27.1-5.2v-21.5c9.1,1.1,18.1,2,27.1,2.8v23.9Zm35.2,4c-9.8-.7-19.8-1.8-29.9-3.2v-24.3c10.1.8,20.1,1.3,29.9,1.7v25.8Zm38.1,1.3c-10.5,0-21.5-.3-32.8-1v-25.8c10.2.4,20.3.5,30,.5h2.8v26.3Zm38.6-1.5q-15.6,1.2-33.3,1.5v-26.4q17.4-.15,33.3-.9v25.8Zm31.7-3.2c-7.9,1-16.7,2-26.4,2.8v-25.6c9.3-.5,18.1-1,26.4-1.7Zm30.8-5.1c-5.8,1.2-14.5,2.8-25.6,4.3V321c9.3-.8,17.9-1.6,25.6-2.4Zm43.1-33.3a1.39,1.39,0,0,0-.9,0A1.39,1.39,0,0,1,321.82,307.53Zm.8.3c-.1-.1-.3-.1-.4-.2C322.42,307.73,322.52,307.73,322.62,307.83Z"/><path class="cls-5" d="M182.92,239.73c11.6.1,22.7.6,33.3,1.2v-31.2c-10.5-.9-21.7-1.5-33.3-1.7Zm-72.6,3.1c9.9-1,19.6-1.8,29.2-2.3v-31.2c-9.6.7-19.3,1.8-29.2,3.3Zm-66.1,76.6v-5.6l-5.3-.9c1.7,2.2,3.4,4.3,5.3,6.5Zm-15.2-62c5.1-1.3,10.2-2.6,15.3-3.8v-22.1a74.87,74.87,0,0,0-15.6,26c.1,0,.2-.1.3-.1Zm48.2-10.2c9.4-1.5,18.6-2.8,27.8-3.8v-29.9c-9.2,1.5-18.5,3.3-27.8,5.5Zm67.6-6.9c11.2-.5,22.2-.7,32.8-.7v-31.7c-10.6-.1-21.6.2-32.8,1Zm165.6-11.6a2.73,2.73,0,0,1,.8-1.9c-.9-.9-1.8-1.7-2.7-2.5a2.57,2.57,0,0,1-3,1.2c-.3-.1-8.1-2.5-21.4-5.5v28.1c10.3,1.6,19.2,3.2,26.4,4.6Zm5.2,2.8v22.4c9.7,2,15.1,3.5,15.4,3.5a.1.1,0,0,1,.1.1A70.83,70.83,0,0,0,315.62,231.53ZM253.22,244c9.2,1,17.7,2.1,25.6,3.3v-28.5c-7.3-1.5-15.9-3.2-25.6-4.7V244Zm-31.7-2.8c9.2.6,18.1,1.4,26.4,2.2v-30.1c-8.1-1.2-17-2.3-26.4-3.2v31.1Zm-168.6-15.6a2.42,2.42,0,0,1-1.9-1c-1.4,1.3-2.8,2.6-4.1,4h2.6v23.8c7.5-1.6,15-3.1,22.4-4.4v-27.7c-6.1,1.6-12.1,3.2-18.2,5.1a1.08,1.08,0,0,1-.8.2Zm257.5,88.9c-6.4,1-15.3,2.2-26.4,3.5v21.7c1.5-.3,2.4-.6,2.5-.6a2.56,2.56,0,0,1,2.9,1.3,119.34,119.34,0,0,0,22.3-17.1h-1.4l.1-8.8Zm-88.9,34.2c9.7-.8,18.5-1.8,26.4-2.8v-24.4c-8.3.6-17.1,1.2-26.4,1.7v25.5Zm31.7-3.5c11.1-1.6,19.8-3.2,25.6-4.3v-22.2c-7.7.8-16.3,1.7-25.6,2.4Zm62.4-25.9a79.34,79.34,0,0,0,5.3-6.5c-1,.2-2.7.5-5.3.9v5.6Zm-266.1,2.8h-2.6a118.71,118.71,0,0,0,23.4,18.3,2.93,2.93,0,0,1,1.6-1.3v-21.2c-7.4-1-14.9-2.1-22.4-3.3v7.5Zm27.7,18c9.1,2.1,18.1,3.8,27.1,5.2v-23.9c-8.9-.8-18-1.7-27.1-2.8Zm105.7,10.5c11.8-.2,23-.7,33.3-1.5v-25.8q-15.9.75-33.3.9v26.4Zm-73.3-4.5c10.1,1.4,20.1,2.5,29.9,3.2v-25.7c-9.8-.4-19.8-1-29.9-1.7v24.2Zm35.2-22.4v25.9c11.3.7,22.3,1,32.8,1v-26.4h-2.8C165,324.33,155,324.13,144.82,323.73Z"/><path d="M179.92,370.63c-86.5,0-156.8-42.7-156.8-95.1s70.3-95.1,156.8-95.1,156.8,42.7,156.8,95.1S266.42,370.63,179.92,370.63Zm0-185c-83.6,0-151.5,40.3-151.5,89.9s68,89.9,151.5,89.9,151.5-40.3,151.5-89.9S263.52,185.63,179.92,185.63Z"/><path d="M34.32,213.33s-2.5.6-6-1.6c-5.4-3.3-12.9-12.7-17.9-39a141.57,141.57,0,0,1-5-27.1c-.1-1.4-.2-2.8-.2-4.1-.3-13.1,3-19.7,6.7-23,5.8-5.3,14.4-4.1,18.3-3.1,1.3.3,2.1.6,2.2.6l1.9-4.9c-.6-.2-15.7-5.7-25.9,3.5-8.9,8.1-10.7,24.4-5.6,48.6.7,3.4,1.6,7,2.6,10.8,4.3,22.4,11.1,36.6,20.3,42.3a14.64,14.64,0,0,0,7.8,2.4,7.4,7.4,0,0,0,2.4-.3l-1.6-5.1Z"/><path d="M351.12,114.63c-10.2-9.2-25.2-3.7-25.9-3.5l1.9,4.9c.1-.1,12.7-4.6,20.5,2.5a11.41,11.41,0,0,1,1.1,1.1c5,5.6,8.7,18.3,1.9,46.9-.5,2-1,4.1-1.6,6.2v.2c-4.9,25.8-12.3,35.2-17.6,38.7-3.6,2.3-6.2,1.7-6.2,1.7l-1.5,5.1a6.87,6.87,0,0,0,2.4.3,14.41,14.41,0,0,0,7.8-2.4c9.2-5.6,16-19.9,20.3-42.1C362.22,143.93,361.22,123.83,351.12,114.63Z"/><path d="M82.42,101.93c.1,3,2.8-2.4,4.7-4.1,3.1-2.9,7.5-5.2,11.8-7.3,11-5.2,24.4-7.2,36.8-7.5,2.6-.1,3.1-16.1-2.6-16-27.6.6-57.9,12.3-57,31.5.1,2.7.3,7.7,3.6,9.5,2.6,1.4,2.8-5.8,2.7-6.1Z"/><path d="M279.12,101.93c-.1,3-2.8-2.4-4.7-4.1-3.1-2.9-7.5-5.2-11.8-7.3-11-5.2-24.4-7.2-36.8-7.5-2.6-.1-3.1-16.1,2.6-16,27.6.6,57.9,12.3,57,31.5-.1,2.7-.2,7.7-3.6,9.5-2.5,1.4-2.7-5.8-2.7-6.1Z"/><path class="cls-6" d="M267.82,298.93c0,8.6-39.2,15.7-87.6,15.7s-87.5-7-87.5-15.7,39.2-15.7,87.5-15.7S267.82,290.23,267.82,298.93Z"/></g></g></svg>