<?xml version="1.0" encoding="utf-8"?>
<!-- Generator: Adobe Illustrator 22.1.0, SVG Export Plug-In . SVG Version: 6.00 Build 0)  -->
<svg version="1.1" id="Layer_1" xmlns="http://www.w3.org/2000/svg" xmlns:xlink="http://www.w3.org/1999/xlink" x="0px" y="0px"
	 viewBox="0 0 436 414" style="enable-background:new 0 0 436 414;" xml:space="preserve">
<style type="text/css">
	.st0{fill:#BDC9AB;}
	.st1{fill:#7F512E;}
	.st2{fill:#FFFFFF;}
</style>
<path class="st0" d="M82.1,148.7C78.6,137,67.6,135.9,58,140c-0.4-0.4-0.9-0.7-1.6-1c-21.9-8.2-26,25.9-23.1,40.3
	c3,14.5,12.3,74.9,39.1,62c8.2-4,9.7-28.3,10.7-35.5C85.5,188.3,87.2,166,82.1,148.7L82.1,148.7z"/>
<path class="st0" d="M368.1,151.9l3.2-11.9c-3.4-2.4-7.9-3-13.4-0.9c-0.7,0.3-1.2,0.6-1.6,1c-9.6-4.1-20.6-3.1-24.1,8.6
	c-5.2,17.3-3.4,39.7-1,57.2c1,7.2,2.4,31.5,10.7,35.5c26.7,12.8,36.1-47.5,39-62c1.7-8.3,1-23.1-4-32.6L368.1,151.9L368.1,151.9z"/>
<path d="M349.1,245.8c-2.7,0-5.5-0.7-8.3-2c-7.8-3.7-10.1-19.3-11.7-33.7c-0.2-1.5-0.3-2.8-0.4-3.8c-3.5-25.1-3.2-44.2,1.1-58.3
	c2.4-8.1,8.5-12.7,16.7-12.7c3,0,6.3,0.6,9.5,1.9c0.3-0.2,0.7-0.3,1-0.5c6-2.2,11.4-1.8,15.8,1.2l1.5,1l-2,7.6l5.7-3.4l1.3,2.4
	c5.3,10,6.1,25.1,4.3,34.4l-0.7,3.7C379.2,202.2,370.9,245.8,349.1,245.8L349.1,245.8z M346.5,140.4c-4.1,0-9.5,1.6-11.7,9
	c-4,13.4-4.3,31.7-0.9,56.1c0.1,1,0.3,2.4,0.5,4c0.9,8,3,26.8,8.8,29.5c2.1,1,4.1,1.5,6,1.5c17.5,0,25.8-43.6,28.6-57.9l0.7-3.8
	c1.6-7.7,0.9-19.8-2.6-28.4l-11.9,7l4.3-16.1c-2.7-1.2-5.8-1.1-9.5,0.2c-0.4,0.2-0.6,0.3-0.7,0.4l-1.2,1.2l-1.6-0.7
	C352.3,141.1,349.2,140.4,346.5,140.4L346.5,140.4z"/>
<polyline class="st1" points="126.2,63.2 131.6,32 137.8,42.5 155,25.8 156,42.7 167.6,35 166.5,49.5 "/>
<polygon points="128.7,63.6 123.6,62.8 130.2,24.6 138.4,38.3 157.2,19.9 158.3,38.1 170.6,29.8 169.1,49.7 163.9,49.3 164.6,40.1 
	153.7,47.4 152.7,31.6 137.3,46.7 133,39.4 "/>
<polyline class="st1" points="294.2,61.8 350.2,65.9 326.5,70.6 381.3,87.3 350,92.8 392.4,126.8 338.7,107 "/>
<polygon points="406.5,134.7 337.8,109.4 339.6,104.6 378.3,118.8 343.9,91.3 370.2,86.6 315.8,70 330.7,67.1 294,64.4 294.4,59.2 
	369.7,64.7 337.1,71.1 392.4,88 356.1,94.4 "/>
<path class="st1" d="M355.8,174.2c0-79.4-66.4-143.8-148.3-143.8c-81.9,0-148.3,58.4-148.3,143.8c0,159.6,66.4,143.8,148.3,143.8
	C289.4,318,355.8,333.8,355.8,174.2L355.8,174.2z"/>
<path d="M246.6,321L246.6,321c-6.1,0-12.4-0.1-18.8-0.2c-13.3-0.2-27.3-0.2-40.6,0c-6.4,0.1-12.7,0.2-18.8,0.2
	c-63.3,0-111.8-10.8-111.8-146.9c0-83.5,64.9-146.4,150.9-146.4c83.2,0,150.9,65.7,150.9,146.4c0,62.9-10.1,102.3-31.8,124
	C307.5,317.2,281.9,321,246.6,321L246.6,321z M207.5,315.4c6.9,0,13.7,0.1,20.4,0.2c6.4,0.1,12.6,0.2,18.7,0.2h0
	c33.9,0,58.5-3.6,76.4-21.4c20.6-20.6,30.2-58.8,30.2-120.3c0-77.9-65.4-141.2-145.7-141.2c-83,0-145.7,60.7-145.7,141.2
	c0,131.5,44.2,141.7,106.6,141.7c6.1,0,12.3-0.1,18.7-0.2C193.8,315.5,200.6,315.4,207.5,315.4L207.5,315.4z"/>
<path class="st0" d="M85.4,223.7c0,73.8,54.9,133.7,122.6,133.7s122.6-59.9,122.6-133.7c0-73.8-0.7-167.2-123.2-138.1
	C68.8,56.5,85.4,149.9,85.4,223.7L85.4,223.7z"/>
<path d="M208.1,360.5c-69.3,0-125.8-61.4-125.8-136.8c0-7.1-0.2-14.3-0.3-21.6c-0.8-40-1.7-81.4,21.7-105.3
	c19.7-20.2,53.4-24.8,103.8-14.4c15.2-3.6,29.1-5.4,41.4-5.4c84.9,0,84.9,84.8,84.9,146.7C333.8,299.2,277.4,360.5,208.1,360.5
	L208.1,360.5z M161.4,83.3c-24.1,0-41.5,5.8-53.2,17.9c-21.6,22.1-20.8,62.1-20,100.8c0.2,7.4,0.3,14.7,0.3,21.8
	c0,72,53.6,130.6,119.5,130.6c65.9,0,119.5-58.6,119.5-130.6c0-62.6,0-140.4-78.7-140.4c-12,0-25.7,1.8-40.7,5.4l-0.7,0.2l-0.7-0.1
	C189.9,85.1,174.6,83.3,161.4,83.3L161.4,83.3z"/>
<path class="st0" d="M359.5,299.8c0,50.3-68,91.2-152,91.2c-83.9,0-152-40.8-152-91.2c0-50.4,68-91.2,152-91.2
	C291.5,208.6,359.5,249.4,359.5,299.8z"/>
<path d="M207.5,394.1c-85.5,0-155.1-42.3-155.1-94.3c0-52,69.6-94.3,155.1-94.3c85.5,0,155.1,42.3,155.1,94.3
	C362.6,351.8,293.1,394.1,207.5,394.1z M207.5,211.7c-82.1,0-148.8,39.5-148.8,88.1c0,48.6,66.8,88,148.8,88s148.8-39.5,148.8-88
	C356.4,251.2,289.6,211.7,207.5,211.7z"/>
<path d="M64,238.6c0,0-2.4,0.6-5.9-1.5c-5.3-3.3-12.7-12.5-17.7-38.5c-2.9-10.8-4.4-19.6-5-26.7c-0.1-1.4-0.2-2.8-0.2-4.1
	c-0.3-12.9,3-19.4,6.6-22.7c5.7-5.2,14.2-4,18.1-3.1c1.3,0.3,2.1,0.6,2.1,0.6l1.8-4.9c-0.6-0.2-15.4-5.7-25.5,3.5
	c-8.7,7.9-10.6,24.1-5.5,47.9c0.7,3.4,1.6,6.9,2.6,10.6c4.2,22.1,11,36.1,20,41.7c3.2,1.9,5.9,2.4,7.7,2.4c1.3,0,2.1-0.2,2.3-0.3
	L64,238.6z"/>
<path d="M113.5,131.9c-0.7,2.9,3.3-1.5,5.5-2.6c3.7-1.9,8.5-2.9,13.2-3.7c11.9-1.9,25-0.2,36.9,3c2.5,0.6,7.4-14.4,2-15.8
	c-26.3-7-58.2-4.2-62.6,14.2c-0.6,2.6-1.9,7.4,0.8,10C111.4,139,113.5,132.2,113.5,131.9L113.5,131.9z"/>
<path d="M297.8,131.9c0.7,2.9-3.3-1.5-5.5-2.6c-3.7-1.9-8.5-2.9-13.2-3.7c-11.9-1.9-25-0.2-36.9,3c-2.5,0.6-7.4-14.4-2-15.8
	c26.3-7,58.2-4.2,62.6,14.2c0.6,2.6,1.9,7.4-0.8,10C300,139,297.9,132.2,297.8,131.9L297.8,131.9z"/>
<path d="M219.5,313.8c-1.9,0-3.8-0.3-5.5-1.1c-4.2-1.8-7.1-6-8.7-12.3c-0.2-0.9-0.6-1.2-0.9-1.4c-2.9-1.7-11.4,1-19.6,3.5
	c-15.6,4.8-35.1,10.9-45.9-1c-6.4-7-13.7-4.2-25,1.3c-10.6,5.2-22.7,11.1-32.2-1.5c-4.4-5.8-20-1.2-25.1,0.8l-1.9-4.8
	c2.4-1,23.6-9.2,31.2,0.8c6.6,8.7,14.1,5.7,25.8,0c10.2-4.9,21.7-10.5,31.1-0.2c8.6,9.4,26.3,3.9,40.5-0.5
	c10.5-3.3,18.8-5.8,23.7-3.1c1.7,1,2.9,2.6,3.4,4.7c1.1,4.7,3,7.6,5.7,8.7c6.2,2.7,17-3.4,26.5-8.9c10.9-6.2,21.3-12.1,27-6
	c3.8,4,8.6,3.1,16.1,1.2c7.7-1.9,17.2-4.4,25.2,3.8c6.7,6.9,14.1,10.4,22,10.5c13.7,0.2,24.8-10.4,24.9-10.5l3.6,3.7
	c-0.5,0.5-12.4,12.2-28.6,12c-9.3-0.1-18-4.2-25.7-12.1c-5.9-6-12.8-4.2-20.2-2.4c-7,1.8-15,3.8-21.1-2.6c-2.9-3.1-12.3,2.3-20.6,7
	C236.3,308.6,227.2,313.8,219.5,313.8L219.5,313.8z"/>
<path class="st2" d="M182.1,168.3c0-24.5-15.5-44.4-34.7-44.4c-19.2,0-34.7,19.9-34.7,44.4c0,24.5,15.5,44.4,34.7,44.4
	C166.6,212.7,182.1,192.8,182.1,168.3L182.1,168.3z"/>
<path d="M147.4,215.3c-20.6,0-37.3-21.1-37.3-47c0-25.9,16.7-47,37.3-47c20.6,0,37.3,21.1,37.3,47
	C184.7,194.2,168,215.3,147.4,215.3z M147.4,126.5c-17.7,0-32.1,18.7-32.1,41.8c0,23,14.4,41.8,32.1,41.8
	c17.7,0,32.1-18.7,32.1-41.8C179.5,145.2,165.1,126.5,147.4,126.5z"/>
<path class="st2" d="M301.7,168.3c0-24.5-15.5-44.4-34.7-44.4c-19.2,0-34.7,19.9-34.7,44.4c0,24.5,15.5,44.4,34.7,44.4
	C286.2,212.7,301.7,192.8,301.7,168.3L301.7,168.3z"/>
<path d="M267,215.3c-20.6,0-37.3-21.1-37.3-47c0-25.9,16.7-47,37.3-47c20.6,0,37.3,21.1,37.3,47C304.3,194.2,287.6,215.3,267,215.3z
	 M267,126.5c-17.7,0-32.1,18.7-32.1,41.8c0,23,14.4,41.8,32.1,41.8c17.7,0,32.1-18.7,32.1-41.8C299.1,145.2,284.7,126.5,267,126.5z"
	/>
<path d="M123.6,170.2c0,19.5,10.1,35.4,22.6,35.4c12.5,0,22.6-15.8,22.6-35.4c0-19.5-10.1-35.4-22.6-35.4
	C133.8,134.8,123.6,150.7,123.6,170.2z"/>
<path d="M243.2,170.2c0,19.5,10.1,35.4,22.6,35.4c12.5,0,22.6-15.8,22.6-35.4c0-19.5-10.1-35.4-22.6-35.4
	C253.4,134.8,243.2,150.7,243.2,170.2z"/>
</svg>
