<?xml version="1.0" encoding="UTF-8"?>
<svg enable-background="new 0 0 779 599" version="1.1" viewBox="0 0 779 599" xmlns="http://www.w3.org/2000/svg">
 <path d="m515.27 293.33c1.011 7.286 2.453 31.993 10.819 36.016 27.102 13.029 36.605-48.172 39.614-62.912 2.993-14.668-1.159-49.183-23.416-40.884-0.731 0.271-1.257 0.607-1.633 0.98-9.712-4.188-20.861-3.112-24.405 8.761-5.248 17.599-3.455 40.234-0.979 58.039z" fill="#D8B78B"/>
 <path d="m262.45 235.29c-3.545-11.873-14.694-12.949-24.405-8.761-0.376-0.374-0.902-0.711-1.628-0.98-22.257-8.298-26.415 26.216-23.421 40.884 3.009 14.74 12.514 75.941 39.614 62.912 8.367-4.023 9.81-28.73 10.819-36.016 2.478-17.806 4.271-40.441-0.979-58.039z" fill="#D8B78B"/>
 <path d="m540.16 261.17c0-80.594-67.349-145.93-150.42-145.93-83.072 0-150.42 59.203-150.42 145.93 0 161.94 67.348 145.92 150.42 145.92 83.078 0 150.42 16.02 150.42-145.92z" fill="#7F512E" stroke="#000" stroke-miterlimit="10" stroke-width="4.252"/>
 <path d="m265.85 311.44c0 74.906 55.704 135.63 124.42 135.63 68.703 0 124.41-60.723 124.41-135.63 0-74.91-0.659-169.62-124.95-140.13-140.78-29.49-123.88 65.217-123.88 140.13z" fill="#D8B78B" stroke="#000" stroke-miterlimit="10" stroke-width="4.252"/>
 <ellipse cx="329.36" cy="271.02" rx="35.196" ry="45.026" fill="#fff" stroke="#000" stroke-miterlimit="10" stroke-width="4.252"/>
 <ellipse cx="450.7" cy="271.02" rx="35.194" ry="45.026" fill="#fff" stroke="#000" stroke-miterlimit="10" stroke-width="4.252"/>
 <path d="m312.2 270.82c0 12.256 6.356 22.192 14.198 22.192 7.847 0 14.204-9.937 14.204-22.192 0-12.254-6.357-22.19-14.204-22.19-7.841-1e-3 -14.198 9.935-14.198 22.19z"/>
 <ellipse cx="453.01" cy="270.82" rx="14.204" ry="22.192"/>
 <ellipse cx="389.74" cy="388.62" rx="154.16" ry="92.497" fill="#D8B78B"/>
 <path d="m543.9 388.62c0-4.701-0.593-9.318-1.721-13.83 0 6e-3 -0.011 6e-3 -0.011 0.012 0.231-0.283 0.418-0.611 0.521-0.986 0.376-1.41-0.458-2.857-1.864-3.236-0.277-0.074-5.733-1.508-15.384-3.525v-25.164c0-1.457-1.181-2.639-2.639-2.639s-2.638 1.182-2.638 2.639v24.086c-7.167-1.426-16.054-3.041-26.354-4.645v-28.121c13.317 3.002 21.071 5.41 21.376 5.508 1.406 0.438 2.881-0.326 3.322-1.715 0.443-1.391-0.324-2.881-1.715-3.322-0.66-0.213-35.91-11.182-87.596-15.791-0.182-0.043-0.352-0.111-0.546-0.111-0.067 0-0.13 0.033-0.196 0.039-11.731-1.029-24.313-1.711-37.512-1.881-0.283-0.107-0.588-0.186-0.912-0.186-0.278 0-0.525 0.076-0.778 0.156-22.412-0.211-46.596 1.137-71.547 4.961-0.083-8e-3 -0.155-0.049-0.237-0.049-0.401 0-0.772 0.105-1.113 0.266-10.736 1.682-21.603 3.814-32.535 6.502-0.186 0.041-0.371 0.063-0.536 0.139-7.105 1.76-14.225 3.713-21.355 5.947-1.391 0.439-2.169 1.924-1.731 3.316 0.355 1.131 1.396 1.855 2.524 1.855 0.263 0 0.525-0.039 0.788-0.121 6.085-1.91 12.159-3.582 18.228-5.135v27.664c-7.439 1.285-14.92 2.781-22.417 4.42v-23.783h-5.276v24.93c-5.09 1.17-10.18 2.41-15.276 3.756-1.406 0.375-2.246 1.82-1.875 3.229 0.077 0.293 0.309 0.467 0.469 0.705 0 0 0-2e-3 -5e-3 -6e-3 -1.174 4.602-1.782 9.314-1.782 14.117 0 11.705 3.658 22.891 10.268 33.199h5e-3c-0.19 0.285-0.325 0.613-0.392 0.969-0.263 1.438 0.69 2.816 2.128 3.078 2.153 0.395 4.307 0.717 6.46 1.09v8.383h5.276v-7.494c7.491 1.227 14.972 2.357 22.417 3.318v21.186c-0.974 0.203-1.792 0.922-2.04 1.947-0.345 1.422 0.531 2.854 1.953 3.199 23.571 5.695 47.085 8.883 69.486 10.428 0.248 0.08 0.5 0.156 0.773 0.156 0.148 0 0.272-0.059 0.412-0.082 11.493 0.766 22.715 1.131 33.452 1.131 63.505 0 111.12-11.459 111.84-11.639 1.417-0.348 2.287-1.785 1.938-3.205-0.346-1.418-1.783-2.293-3.205-1.936-0.093 0.021-0.994 0.236-2.534 0.576v-21.725c11.011-1.268 19.934-2.508 26.354-3.471v8.85h5.274v-9.668c3.869-0.621 6.038-1.016 6.208-1.047 1.434-0.27 2.382-1.648 2.113-3.088-0.047-0.264-0.171-0.49-0.289-0.717 6.712-10.373 10.43-21.642 10.43-33.439zm-10.864 32.844c-0.042-0.043-0.083-0.09-0.129-0.135 0.046 0.045 0.087 0.088 0.129 0.135zm8.068-45.924c-0.098 0.039-0.186 0.07-0.282 0.1 0.096-0.028 0.189-0.061 0.282-0.1zm-78.141-48.188c9.69 1.525 18.295 3.156 25.574 4.705v28.48c-7.831-1.156-16.373-2.279-25.574-3.305v-29.88zm-31.67-3.974c9.413 0.891 18.248 1.98 26.394 3.174v30.109c-8.336-0.865-17.16-1.625-26.394-2.246v-31.037zm-38.62-2.143c11.669 0.193 22.844 0.781 33.344 1.662v31.178c-10.633-0.635-21.788-1.051-33.344-1.191v-31.649zm-38.12 0.908c11.269-0.746 22.252-1.047 32.845-0.99v31.662c-10.639-0.049-21.624 0.18-32.845 0.691v-31.363zm-34.442 3.692c9.87-1.475 19.608-2.541 29.166-3.289v31.188c-9.563 0.514-19.306 1.281-29.166 2.289v-30.188zm-33.091 6.396c9.335-2.248 18.62-4.051 27.816-5.549v29.92c-9.186 1.021-18.465 2.285-27.816 3.805v-28.176zm-48.821 43.117c0.386 0.215 0.793 0.422 1.252 0.422-0.474 0-0.886-0.168-1.252-0.422zm8.681 45.596c0.098-0.053 0.186-0.088 0.289-0.127-0.099 0.037-0.196 0.078-0.289 0.127zm67.219 37.553c-8.97-1.4-18.017-3.139-27.079-5.219v-21.477c9.099 1.102 18.13 2.02 27.079 2.773v23.923zm35.178 4.006c-9.789-0.725-19.784-1.785-29.903-3.23v-24.25c10.124 0.779 20.098 1.34 29.903 1.732v25.748zm38.121 1.338c-10.542 0.031-21.541-0.268-32.845-0.979v-25.912c10.232 0.35 20.269 0.523 29.996 0.523 0.958 0 1.896-8e-3 2.849-0.012v26.38zm38.619-1.508c-10.35 0.768-21.535 1.301-33.344 1.455v-26.354c11.604-0.102 22.747-0.42 33.344-0.885v25.784zm31.67-3.248c-7.86 1.037-16.724 2.023-26.394 2.832v-25.611c9.289-0.457 18.109-1.023 26.394-1.656v24.435zm30.85-5.053c-5.755 1.154-14.503 2.754-25.574 4.33v-24.131c9.314-0.764 17.883-1.598 25.574-2.438v22.239zm43.087-33.359c-0.304-0.055-0.623-0.074-0.948-0.01 0.325-0.065 0.644-0.049 0.948 0.01zm0.799 0.302c-0.129-0.07-0.263-0.125-0.402-0.174 0.139 0.053 0.273 0.1 0.402 0.174z"/>
 <path d="m392.67 352.88c11.556 0.143 22.71 0.557 33.344 1.193v-31.178c-10.5-0.881-21.674-1.469-33.344-1.662v31.647zm-72.562 3.14c9.86-1.006 19.604-1.775 29.166-2.287v-31.189c-9.558 0.748-19.296 1.814-29.166 3.291v30.185zm-66.06 76.53v-5.596c-1.757-0.305-3.514-0.584-5.271-0.889 1.634 2.205 3.37 4.373 5.271 6.485zm-15.276-61.975c5.096-1.348 10.186-2.586 15.276-3.756v-22.131c-7.238 8.031-12.535 16.785-15.559 26.025 0.098-0.036 0.18-0.109 0.283-0.138zm48.245-10.17c9.351-1.52 18.63-2.783 27.816-3.805v-29.92c-9.196 1.498-18.48 3.301-27.816 5.549v28.176zm67.533-6.9c11.221-0.512 22.206-0.74 32.845-0.691v-31.663c-10.593-0.059-21.576 0.244-32.845 0.988v31.366zm165.61-11.616c0-0.723 0.288-1.373 0.757-1.852-0.875-0.85-1.771-1.689-2.694-2.523-0.612 1.035-1.828 1.58-3.039 1.203-0.305-0.098-8.059-2.506-21.376-5.508v28.121c10.3 1.602 19.187 3.217 26.354 4.645l-2e-3 -24.086zm5.275 2.809v22.354c9.65 2.02 15.106 3.451 15.385 3.525 0.052 0.016 0.093 0.055 0.145 0.072-3.026-9.213-8.312-17.939-15.53-25.951zm-62.478 12.533c9.201 1.025 17.743 2.148 25.574 3.305v-28.48c-7.279-1.549-15.884-3.18-25.574-4.707v29.882zm-31.67-2.818c9.232 0.621 18.058 1.381 26.394 2.246v-30.109c-8.146-1.193-16.979-2.283-26.394-3.174v31.037zm-168.56-15.57c-0.752 0-1.375-0.4-1.875-0.951-1.432 1.311-2.808 2.643-4.137 3.998h2.612v23.783c7.496-1.639 14.977-3.135 22.417-4.42v-27.664c-6.069 1.555-12.143 3.227-18.228 5.135-0.264 0.081-0.527 0.119-0.789 0.119zm257.44 88.886c-6.42 0.963-15.343 2.203-26.354 3.471v21.725c1.54-0.34 2.441-0.555 2.534-0.576 1.2-0.303 2.37 0.303 2.927 1.346 8.502-5.148 16.009-10.889 22.313-17.115h-1.422l2e-3 -8.851zm-88.873 34.186c9.67-0.809 18.532-1.795 26.394-2.832v-24.438c-8.283 0.635-17.104 1.201-26.394 1.656v25.614zm31.67-3.555c11.071-1.576 19.819-3.176 25.574-4.33v-22.238c-7.691 0.84-16.26 1.674-25.574 2.438v24.13zm62.478-25.822c1.906-2.119 3.653-4.297 5.286-6.512-0.983 0.172-2.721 0.471-5.286 0.885v5.627zm-266.11 2.799h-2.623c6.523 6.672 14.385 12.814 23.391 18.283 0.381-0.625 0.927-1.125 1.648-1.273v-21.186c-7.444-0.961-14.925-2.092-22.417-3.318l1e-3 7.494zm27.693 17.939c9.063 2.08 18.109 3.816 27.079 5.219v-23.922c-8.948-0.752-17.979-1.672-27.079-2.773v21.476zm105.65 10.51c11.809-0.154 22.994-0.688 33.344-1.455v-25.783c-10.597 0.467-21.74 0.785-33.344 0.887v26.351zm-73.298-4.516c10.119 1.445 20.114 2.508 29.903 3.23v-25.748c-9.806-0.395-19.779-0.953-29.903-1.732v24.25zm35.178-22.322v25.912c11.304 0.711 22.303 1.01 32.845 0.979v-26.379c-0.952 4e-3 -1.891 0.012-2.849 0.012-9.728-1e-3 -19.764-0.174-29.996-0.524z" fill="#fff"/>
 <path d="m389.74 483.75c-86.462 0-156.8-42.678-156.8-95.135s70.336-95.133 156.8-95.133c86.457 0 156.8 42.676 156.8 95.133s-70.341 95.135-156.8 95.135zm0-184.99c-83.552 0-151.52 40.31-151.52 89.857 0 49.551 67.971 89.859 151.52 89.859s151.52-40.311 151.52-89.859c2e-3 -49.549-67.97-89.857-151.52-89.857z"/>
 <path d="m244.13 326.54c-0.021 4e-3 -2.483 0.572-5.956-1.555-5.404-3.309-12.896-12.73-17.935-39.021-2.952-10.976-4.492-19.862-5.033-27.059-0.108-1.439-0.181-2.81-0.211-4.116-0.325-13.07 3.004-19.688 6.662-23.026 5.827-5.319 14.364-4.097 18.321-3.125 1.319 0.321 2.133 0.617 2.164 0.631l1.85-4.943c-0.639-0.237-15.683-5.73-25.858 3.511-8.872 8.056-10.737 24.427-5.616 48.601 0.727 3.438 1.597 7.038 2.602 10.793 4.302 22.423 11.134 36.644 20.299 42.253 3.199 1.961 5.981 2.398 7.831 2.398 1.314 0 2.164-0.223 2.354-0.277l-1.474-5.065z"/>
 <path d="m560.88 227.84c-10.171-9.239-25.22-3.748-25.858-3.511l1.851 4.943c0.123-0.051 12.72-4.593 20.483 2.494 0.366 0.333 0.728 0.7 1.087 1.103 4.982 5.634 8.65 18.323 1.906 46.876-0.474 1.997-0.999 4.068-1.576 6.224-0.016 0.067-0.03 0.124-0.047 0.191-4.925 25.751-12.293 35.238-17.608 38.66-3.611 2.322-6.188 1.738-6.234 1.725l-1.474 5.064c0.195 0.057 1.041 0.279 2.354 0.279 1.851 0 4.638-0.441 7.837-2.398 9.176-5.621 16.007-19.867 20.264-42.15 8.143-30.287 7.138-50.306-2.985-59.5z"/>
 <path d="m292.25 215.09c0.139 2.965 2.818-2.37 4.663-4.068 3.122-2.877 7.46-5.211 11.834-7.288 11.024-5.234 24.358-7.215 36.843-7.476 2.571-0.055 3.117-16.123-2.556-16.003-27.584 0.569-57.883 12.301-56.992 31.464 0.129 2.696 0.252 7.72 3.576 9.521 2.493 1.354 2.647-5.81 2.632-6.15z"/>
 <path d="m488.94 215.09c-0.14 2.965-2.823-2.37-4.662-4.068-3.123-2.877-7.466-5.211-11.835-7.288-11.025-5.234-24.364-7.215-36.843-7.476-2.575-0.055-3.122-16.123 2.556-16.003 27.585 0.569 57.879 12.301 56.986 31.464-0.124 2.696-0.246 7.72-3.574 9.521-2.489 1.354-2.648-5.81-2.628-6.15z"/>
 <path d="m477.61 412.09c0 8.646-39.197 15.654-87.556 15.654-48.347 0-87.549-7.01-87.549-15.654s39.202-15.654 87.549-15.654c48.359-1e-3 87.556 7.009 87.556 15.654z" fill="#c03"/>
</svg>
