<?xml version="1.0" encoding="utf-8"?>
<!-- Generator: Adobe Illustrator 22.1.0, SVG Export Plug-In . SVG Version: 6.00 Build 0)  -->
<svg version="1.1" id="Layer_1" xmlns="http://www.w3.org/2000/svg" xmlns:xlink="http://www.w3.org/1999/xlink" x="0px" y="0px"
	 viewBox="0 0 436 414" style="enable-background:new 0 0 436 414;" xml:space="preserve">
<style type="text/css">
	.st0{fill:#D8B78B;}
	.st1{fill:#7F512E;}
	.st2{fill:#FFFFFF;}
	.st3{fill:#1A171B;}
	.st4{opacity:0.21;}
	.st5{fill:#009EE0;}
</style>
<path class="st0" d="M342.9,202.2c1,7.2,2.4,31.8,10.7,35.8c26.9,12.9,36.3-47.8,39.3-62.5c3-14.6-1.1-48.8-23.2-40.6
	c-0.7,0.3-1.2,0.6-1.6,1c-9.6-4.2-20.7-3.1-24.2,8.7C338.6,162,340.4,184.5,342.9,202.2L342.9,202.2z"/>
<path class="st0" d="M91.9,144.6c-3.5-11.8-14.6-12.9-24.2-8.7c-0.4-0.4-0.9-0.7-1.6-1c-22.1-8.2-26.2,26-23.3,40.6
	c3,14.6,12.4,75.4,39.3,62.5c8.3-4,9.7-28.5,10.7-35.8C95.3,184.5,97.1,162,91.9,144.6L91.9,144.6z"/>
<path class="st1" d="M367.6,170.3c0-80-66.9-144.9-149.4-144.9c-82.5,0-149.4,58.8-149.4,144.9c0,160.8,66.9,144.9,149.4,144.9
	C300.7,315.2,367.6,331.1,367.6,170.3z"/>
<path d="M257.6,318.2c-6.2,0-12.5-0.1-18.9-0.2c-13.4-0.2-27.5-0.2-40.9,0c-6.4,0.1-12.8,0.2-18.9,0.2
	c-63.8,0-112.6-10.9-112.6-147.9c0-84.1,65.3-147.5,152-147.5c83.8,0,152,66.2,152,147.5c0,63.4-10.2,103-32,124.9
	C319,314.3,293.1,318.2,257.6,318.2L257.6,318.2z M218.2,312.5c7,0,13.8,0.1,20.5,0.2c6.4,0.1,12.7,0.2,18.8,0.2
	c34.2,0,58.9-3.6,76.9-21.6c20.8-20.8,30.5-59.2,30.5-121.1C365,91.8,299.1,28,218.2,28C134.6,28,71.5,89.1,71.5,170.3
	C71.5,302.7,116,313,178.9,313c6.1,0,12.4-0.1,18.8-0.2C204.4,312.6,211.3,312.5,218.2,312.5L218.2,312.5z"/>
<path class="st0" d="M95.2,220.2c0,74.4,55.3,134.7,123.5,134.7c68.2,0,123.5-60.3,123.5-134.7c0-74.4-0.7-168.4-124.1-139.1
	C78.5,51.8,95.2,145.8,95.2,220.2L95.2,220.2z"/>
<path d="M218.8,358c-69.9,0-126.7-61.8-126.7-137.8c0-7.1-0.2-14.4-0.3-21.8c-0.9-40.3-1.7-81.9,21.9-106.1
	c19.9-20.3,53.8-25,104.5-14.5c15.3-3.6,29.3-5.4,41.7-5.4c85.5,0,85.5,85.4,85.5,147.8C345.4,296.2,288.6,358,218.8,358L218.8,358z
	 M171.8,78.7c-24.2,0-41.8,5.9-53.6,18c-21.8,22.2-20.9,62.6-20.1,101.6c0.2,7.4,0.3,14.8,0.3,21.9c0,72.5,54,131.5,120.4,131.5
	c66.4,0,120.4-59,120.4-131.5c0-63,0-141.5-79.2-141.5c-12.1,0-25.9,1.8-41,5.4l-0.7,0.2l-0.7-0.1C200.4,80.5,185,78.7,171.8,78.7
	L171.8,78.7z"/>
<path class="st2" d="M193.2,180c0-24.7-15.6-44.7-34.9-44.7c-19.3,0-34.9,20-34.9,44.7c0,24.7,15.6,44.7,34.9,44.7
	C177.6,224.7,193.2,204.7,193.2,180L193.2,180z"/>
<path d="M158.3,227.4c-20.7,0-37.6-21.2-37.6-47.3s16.9-47.3,37.6-47.3s37.6,21.2,37.6,47.3S179,227.4,158.3,227.4z M158.3,137.9
	c-17.8,0-32.3,18.9-32.3,42.1c0,23.2,14.5,42.1,32.3,42.1c17.8,0,32.3-18.9,32.3-42.1C190.6,156.8,176.1,137.9,158.3,137.9
	L158.3,137.9z"/>
<path class="st2" d="M313.7,180c0-24.7-15.6-44.7-34.9-44.7c-19.3,0-34.9,20-34.9,44.7c0,24.7,15.6,44.7,34.9,44.7
	C298.1,224.7,313.7,204.7,313.7,180L313.7,180z"/>
<path d="M278.8,227.4c-20.7,0-37.6-21.2-37.6-47.3s16.9-47.3,37.6-47.3c20.7,0,37.6,21.2,37.6,47.3S299.5,227.4,278.8,227.4z
	 M278.8,137.9c-17.8,0-32.3,18.9-32.3,42.1c0,23.2,14.5,42.1,32.3,42.1c17.8,0,32.3-18.9,32.3-42.1
	C311.1,156.8,296.6,137.9,278.8,137.9L278.8,137.9z"/>
<path class="st3" d="M146.5,195.5c0,12.2,6.3,22,14.1,22c7.8,0,14.1-9.9,14.1-22c0-12.2-6.3-22-14.1-22
	C152.8,173.5,146.5,183.4,146.5,195.5z"/>
<path class="st3" d="M261.7,195.5c0,12.2,6.3,22,14.1,22c7.8,0,14.1-9.9,14.1-22c0-12.2-6.3-22-14.1-22
	C268,173.5,261.7,183.4,261.7,195.5z"/>
<path class="st0" d="M371.3,296.8c0,50.7-68.5,91.8-153.1,91.8S65.2,347.5,65.2,296.8c0-50.7,68.5-91.8,153.1-91.8
	S371.3,246.1,371.3,296.8L371.3,296.8z"/>
<path d="M218.2,391.2c-85.8,0-155.7-42.4-155.7-94.5c0-52.1,69.8-94.5,155.7-94.5c85.8,0,155.7,42.4,155.7,94.5
	C373.9,348.9,304.1,391.2,218.2,391.2z M218.2,207.6c-83,0-150.4,40-150.4,89.2c0,49.2,67.5,89.2,150.4,89.2s150.5-40,150.5-89.2
	C368.7,247.6,301.2,207.6,218.2,207.6z"/>
<path d="M73.7,235.2c0,0-2.5,0.6-5.9-1.5c-5.4-3.3-12.8-12.6-17.8-38.7c-2.9-10.9-4.5-19.7-5-26.9c-0.1-1.4-0.2-2.8-0.2-4.1
	c-0.3-13,3-19.5,6.6-22.9c5.8-5.3,14.3-4.1,18.2-3.1c1.3,0.3,2.1,0.6,2.1,0.6l1.8-4.9c-0.6-0.2-15.6-5.7-25.7,3.5
	c-8.8,8-10.7,24.3-5.6,48.3c0.7,3.4,1.6,7,2.6,10.7c4.3,22.3,11,36.4,20.1,42c3.2,1.9,5.9,2.4,7.8,2.4c1.3,0,2.1-0.2,2.3-0.3
	L73.7,235.2L73.7,235.2z"/>
<path d="M388.2,137.2c-10.1-9.2-25-3.7-25.7-3.5l1.8,4.9c0.1-0.1,12.6-4.6,20.3,2.5c0.4,0.3,0.7,0.7,1.1,1.1
	c4.9,5.6,8.6,18.2,1.9,46.5c-0.5,2-1,4-1.6,6.2c0,0.1,0,0.1-0.1,0.2c-4.9,25.6-12.2,35-17.5,38.4c-3.6,2.3-6.1,1.7-6.2,1.7l-1.5,5
	c0.2,0.1,1,0.3,2.3,0.3c1.8,0,4.6-0.4,7.8-2.4c9.1-5.6,15.9-19.7,20.1-41.9C399.2,166.2,398.2,146.3,388.2,137.2L388.2,137.2z"/>
<path d="M121.4,135c0.1,2.9,2.8-2.4,4.6-4c3.1-2.9,7.4-5.2,11.8-7.2c10.9-5.2,24.2-7.2,36.6-7.4c2.6-0.1,3.1-16-2.5-15.9
	c-27.4,0.6-57.5,12.2-56.6,31.2c0.1,2.7,0.2,7.7,3.5,9.5C121.3,142.4,121.5,135.3,121.4,135L121.4,135z"/>
<path d="M316.7,135c-0.1,2.9-2.8-2.4-4.6-4c-3.1-2.9-7.4-5.2-11.8-7.2c-10.9-5.2-24.2-7.2-36.6-7.4c-2.6-0.1-3.1-16,2.5-15.9
	c27.4,0.6,57.5,12.2,56.6,31.2c-0.1,2.7-0.2,7.7-3.5,9.5C316.9,142.4,316.7,135.3,316.7,135z"/>
<rect x="65.2" y="292" width="306.1" height="5.2"/>
<g class="st4">
	<ellipse class="st5" cx="158.9" cy="176.6" rx="50.9" ry="48.1"/>
</g>
<path d="M158.9,227.4c-29.5,0-53.5-22.7-53.5-50.7c0-28,24-50.7,53.5-50.7s53.5,22.7,53.5,50.7C212.4,204.6,188.4,227.4,158.9,227.4
	z M158.9,131.2c-26.6,0-48.2,20.4-48.2,45.5c0,25.1,21.6,45.5,48.2,45.5s48.2-20.4,48.2-45.5C207.1,151.6,185.5,131.2,158.9,131.2z"
	/>
<path d="M109,169.7c-0.6,0-1.3-0.2-1.7-0.7L67.1,133c-1.1-1-1.2-2.6-0.2-3.7c1-1.1,2.6-1.2,3.7-0.2l40.1,36.1c1.1,1,1.2,2.6,0.2,3.7
	C110.5,169.4,109.7,169.7,109,169.7L109,169.7z"/>
<g class="st4">
	<ellipse class="st5" cx="276.9" cy="176.6" rx="50.9" ry="48.1"/>
</g>
<path d="M276.9,227.4c-29.5,0-53.5-22.7-53.5-50.7c0-28,24-50.7,53.5-50.7s53.5,22.7,53.5,50.7C330.4,204.6,306.4,227.4,276.9,227.4
	z M276.9,131.2c-26.6,0-48.2,20.4-48.2,45.5c0,25.1,21.6,45.5,48.2,45.5s48.2-20.4,48.2-45.5C325.1,151.6,303.5,131.2,276.9,131.2z"
	/>
<path d="M326.8,169.7c-0.7,0-1.4-0.3-1.9-0.9c-1-1.1-0.9-2.7,0.2-3.7l40.1-36.1c1.1-1,2.7-0.9,3.7,0.2c1,1.1,0.9,2.7-0.2,3.7
	l-40.1,36.1C328,169.5,327.4,169.7,326.8,169.7z"/>
<path d="M224.3,179.4c-0.6,0-1.2-0.2-1.7-0.6c-3.7-3-9.2,0.2-9.2,0.2c-1.3,0.8-3,0.3-3.8-1c-0.8-1.3-0.4-3,0.9-3.8
	c0.4-0.2,8.8-5.2,15.5,0.2c1.2,1,1.4,2.7,0.4,3.9C225.9,179.1,225.1,179.4,224.3,179.4z"/>
</svg>
