<?xml version="1.0" encoding="utf-8"?>
<!-- Generator: Adobe Illustrator 22.1.0, SVG Export Plug-In . SVG Version: 6.00 Build 0)  -->
<svg version="1.1" id="Layer_1" xmlns="http://www.w3.org/2000/svg" xmlns:xlink="http://www.w3.org/1999/xlink" x="0px" y="0px"
	 viewBox="0 0 436 414" style="enable-background:new 0 0 436 414;" xml:space="preserve">
<style type="text/css">
	.st0{fill:#D8B78B;}
	.st1{fill:#7F512E;stroke:#000000;stroke-width:5.6693;stroke-miterlimit:10;}
	.st2{fill:#D8B78B;stroke:#000000;stroke-width:5.6693;stroke-miterlimit:10;}
	.st3{fill:#FFFFFF;stroke:#000000;stroke-width:2.8347;stroke-miterlimit:10;}
	.st4{fill:none;stroke:#000000;stroke-width:5.6693;stroke-miterlimit:10;}
	.st5{fill:#33CCFF;}
</style>
<path class="st0" d="M344.7,202.1c1,7.3,2.5,32.2,10.9,36.3c27.3,13.1,36.9-48.5,39.9-63.4c3-14.8-1.2-49.5-23.6-41.2
	c-0.7,0.3-1.3,0.6-1.6,1c-9.8-4.2-21-3.1-24.6,8.8C340.4,161.4,342.2,184.2,344.7,202.1z"/>
<path class="st0" d="M90,143.7c-3.6-12-14.8-13-24.6-8.8c-0.4-0.4-0.9-0.7-1.6-1c-22.4-8.4-26.6,26.4-23.6,41.2
	c3,14.8,12.6,76.5,39.9,63.4c8.4-4.1,9.9-28.9,10.9-36.3C93.5,184.2,95.3,161.4,90,143.7L90,143.7z"/>
<path class="st1" d="M369.8,169.7c0-81.2-67.8-147-151.5-147c-83.7,0-151.5,59.6-151.5,147c0,163.1,67.8,147,151.5,147
	C301.9,316.7,369.8,332.8,369.8,169.7L369.8,169.7z"/>
<path class="st2" d="M93.5,220.4c0,75.4,56.1,136.6,125.3,136.6c69.2,0,125.3-61.2,125.3-136.6c0-75.4-0.7-170.8-125.9-141.1
	C76.4,49.5,93.5,144.9,93.5,220.4L93.5,220.4z"/>
<path class="st3" d="M192.9,179.6c0-25-15.9-45.4-35.5-45.4c-19.6,0-35.4,20.3-35.4,45.4c0,25,15.9,45.4,35.4,45.4
	C177,225,192.9,204.7,192.9,179.6z"/>
<path class="st3" d="M315.1,179.6c0-25-15.9-45.4-35.5-45.4c-19.6,0-35.4,20.3-35.4,45.4c0,25,15.9,45.4,35.4,45.4
	C299.2,225,315.1,204.7,315.1,179.6z"/>
<path d="M145.5,195.4c0,12.3,6.4,22.4,14.3,22.4c7.9,0,14.3-10,14.3-22.4c0-12.3-6.4-22.4-14.3-22.4
	C151.9,173,145.5,183,145.5,195.4z"/>
<path d="M262.4,195.4c0,12.3,6.4,22.4,14.3,22.4c7.9,0,14.3-10,14.3-22.4c0-12.3-6.4-22.4-14.3-22.4
	C268.8,173,262.4,183,262.4,195.4z"/>
<path class="st2" d="M373.5,298.1c0,51.5-69.5,93.2-155.3,93.2S63,349.5,63,298.1c0-51.5,69.5-93.2,155.3-93.2
	S373.5,246.6,373.5,298.1L373.5,298.1z"/>
<path d="M71.6,235.6c0,0-2.5,0.6-6-1.6c-5.4-3.3-13-12.8-18.1-39.3c-3-11.1-4.5-20-5.1-27.3c-0.1-1.5-0.2-2.8-0.2-4.1
	c-0.3-13.2,3-19.8,6.7-23.2c5.9-5.4,14.5-4.1,18.5-3.1c1.3,0.3,2.1,0.6,2.2,0.6l1.9-5c-0.6-0.2-15.8-5.8-26,3.5
	c-8.9,8.1-10.8,24.6-5.7,49c0.7,3.5,1.6,7.1,2.6,10.9c4.3,22.6,11.2,36.9,20.4,42.6c3.2,2,6,2.4,7.9,2.4c1.3,0,2.2-0.2,2.4-0.3
	L71.6,235.6L71.6,235.6z"/>
<path d="M390.6,136.1c-10.2-9.3-25.4-3.8-26-3.5l1.9,5c0.1-0.1,12.8-4.6,20.6,2.5c0.4,0.3,0.7,0.7,1.1,1.1c5,5.7,8.7,18.5,1.9,47.2
	c-0.5,2-1,4.1-1.6,6.3c0,0.1,0,0.1-0.1,0.2c-5,25.9-12.4,35.5-17.7,38.9c-3.6,2.3-6.2,1.8-6.3,1.7l-1.5,5.1c0.2,0.1,1,0.3,2.4,0.3
	c1.9,0,4.7-0.4,7.9-2.4c9.2-5.7,16.1-20,20.4-42.5C401.8,165.6,400.8,145.4,390.6,136.1z"/>
<path d="M120,133.9c0.1,3,2.8-2.4,4.7-4.1c3.1-2.9,7.5-5.2,11.9-7.3c11.1-5.3,24.5-7.3,37.1-7.5c2.6-0.1,3.1-16.2-2.6-16.1
	c-27.8,0.6-58.3,12.4-57.4,31.7c0.1,2.7,0.2,7.8,3.6,9.6C119.9,141.5,120.1,134.3,120,133.9z"/>
<path d="M318.2,133.9c-0.1,3-2.8-2.4-4.7-4.1c-3.1-2.9-7.5-5.2-11.9-7.3c-11.1-5.3-24.5-7.3-37.1-7.5c-2.6-0.1-3.1-16.2,2.6-16.1
	c27.8,0.6,58.3,12.4,57.4,31.7c-0.1,2.7-0.2,7.8-3.6,9.6C318.3,141.5,318.1,134.3,318.2,133.9z"/>
<path class="st4" d="M63,298.1c0,0,22-8.9,28.7,0c16.4,21.7,41.3-18.7,58.3,0c17.9,19.6,64.9-15.2,68.5,0c8,33.3,50.3-16.6,61.1-5.1
	c10.8,11.5,28.7-8.7,42.2,5.1c25.3,26,51.7,0,51.7,0"/>
<path class="st5" d="M287.7,246.8c0,8.1,4,14.7,8.9,14.7s8.9-6.6,8.9-14.7c0-8.1-8.5-27.9-8.5-27.9S287.7,238.6,287.7,246.8z"/>
</svg>
