<?xml version="1.0" encoding="utf-8"?>
<!-- Generator: Adobe Illustrator 22.1.0, SVG Export Plug-In . SVG Version: 6.00 Build 0)  -->
<svg version="1.1" id="Layer_1" xmlns="http://www.w3.org/2000/svg" xmlns:xlink="http://www.w3.org/1999/xlink" x="0px" y="0px"
	 viewBox="0 0 436 414" style="enable-background:new 0 0 436 414;" xml:space="preserve">
<style type="text/css">
	.st0{fill:#D8B78B;}
	.st1{fill:#7F512E;}
	.st2{fill:#FFFFFF;}
	.st3{fill:#570D59;}
	.st4{fill:#F4E9E1;}
</style>
<title>Asset 1</title>
<g id="Layer_2_1_">
	<g id="Layer_1-2">
		<path class="st0" d="M342.9,202.2c1,7.2,2.4,31.8,10.8,35.8c26.9,12.9,36.3-47.8,39.3-62.5s-1.1-48.8-23.2-40.6
			c-0.6,0.2-1.2,0.6-1.6,1c-9.6-4.2-20.7-3.1-24.2,8.7C338.6,162,340.4,184.5,342.9,202.2L342.9,202.2z"/>
		<path class="st0" d="M91.9,144.6c-3.5-11.8-14.6-12.8-24.2-8.7c-0.5-0.4-1-0.8-1.6-1c-22.1-8.2-26.2,26-23.3,40.6
			s12.4,75.4,39.3,62.5c8.3-4,9.7-28.5,10.7-35.8C95.3,184.5,97.1,162,91.9,144.6L91.9,144.6z"/>
		<path class="st1" d="M367.6,170.3c0-80-66.9-144.9-149.4-144.9S68.9,84.2,68.9,170.3c0,160.8,66.9,144.9,149.4,144.9
			S367.6,331.1,367.6,170.3z"/>
		<path d="M257.6,318.2c-6.1,0-12.5-0.1-18.9-0.2c-13.4-0.2-27.5-0.2-40.9,0c-6.4,0.1-12.8,0.2-18.9,0.2
			c-63.8,0-112.6-10.9-112.6-147.9c0-84.1,65.3-147.5,152-147.5c83.8,0,152,66.2,152,147.5c0,63.4-10.2,103.1-32,124.8
			C319,314.3,293.1,318.2,257.6,318.2L257.6,318.2z M218.2,312.5c7,0,13.8,0.1,20.5,0.2c6.4,0.1,12.7,0.2,18.8,0.2
			c34.2,0,59-3.6,76.9-21.6c20.8-20.8,30.5-59.2,30.5-121.1C365,91.8,299.1,28,218.2,28C134.6,28,71.5,89.2,71.5,170.2
			C71.5,302.8,116,313,178.9,313c6.1,0,12.4-0.1,18.8-0.2C204.4,312.6,211.3,312.5,218.2,312.5L218.2,312.5z"/>
		<path class="st0" d="M95.2,220.2c0,74.4,55.3,134.7,123.5,134.7s123.5-60.3,123.5-134.7S341.6,51.8,218.2,81
			C78.5,51.8,95.2,145.8,95.2,220.2L95.2,220.2z"/>
		<path d="M218.8,358c-69.9,0-126.7-61.8-126.7-137.8c0-7.1-0.2-14.4-0.3-21.8c-0.8-40.3-1.7-82,21.9-106.1
			c19.9-20.3,53.8-25,104.5-14.5c15.3-3.6,29.3-5.4,41.7-5.4c85.6,0,85.6,85.4,85.6,147.8C345.5,296.2,288.6,358,218.8,358
			L218.8,358z M171.8,78.7c-24.2,0-41.8,5.9-53.6,18c-21.7,22.2-20.9,62.5-20.1,101.5c0.2,7.4,0.3,14.8,0.3,21.9
			c0,72.5,54,131.5,120.4,131.5s120.4-59,120.4-131.5c0-63,0-141.5-79.2-141.5c-12.1,0-25.9,1.8-41,5.4l-0.7,0.2l-0.7-0.2
			C200.5,80.5,185,78.8,171.8,78.7L171.8,78.7z"/>
		<path class="st2" d="M193.2,180c0-24.7-15.6-44.7-34.9-44.7s-34.9,20-34.9,44.7s15.6,44.7,35,44.7
			C177.6,224.8,193.2,204.8,193.2,180L193.2,180z"/>
		<path d="M158.3,227.4c-20.7,0-37.6-21.2-37.6-47.3s16.9-47.3,37.6-47.3s37.6,21.2,37.6,47.3S179,227.4,158.3,227.4z M158.3,137.9
			c-17.8,0-32.3,18.9-32.3,42.1s14.5,42.1,32.3,42.1s32.3-18.9,32.3-42.1S176.1,137.9,158.3,137.9z"/>
		<path class="st2" d="M278.8,234.4c-24.6,0-44.6-24.4-44.6-54.4c0-38.9,33.6-38.9,44.6-38.9s44.6,0,44.6,38.9
			C323.4,210,303.4,234.4,278.8,234.4z"/>
		<path class="st3" d="M278.8,150.8c19.3,0,35,4.5,35,29.2s-15.7,44.7-35,44.7c-19.3,0-34.9-20-34.9-44.7S259.5,150.8,278.8,150.8
			 M278.8,131.5c-47.2,0-54.2,30.4-54.2,48.5c0,35.3,24.3,64,54.2,64s54.2-28.7,54.2-64C333,161.9,326,131.5,278.8,131.5
			L278.8,131.5z"/>
		<path d="M146.5,195.6c0,12.2,6.3,22,14.1,22s14.1-9.9,14.1-22s-6.3-22-14.1-22S146.5,183.4,146.5,195.6z"/>
		<path d="M261.7,195.6c0,12.2,6.3,22,14.1,22c7.8,0,14.1-9.9,14.1-22s-6.3-22-14.1-22C268,173.6,261.7,183.4,261.7,195.6z"/>
		<path class="st0" d="M371.3,296.8c0,50.7-68.5,91.8-153.1,91.8S65.2,347.5,65.2,296.8s68.5-91.8,153.1-91.8
			S371.3,246.1,371.3,296.8z"/>
		<path d="M218.2,391.2c-85.8,0-155.7-42.4-155.7-94.5s69.8-94.5,155.7-94.5s155.7,42.5,155.7,94.5S304.1,391.2,218.2,391.2z
			 M218.2,207.6c-82.9,0-150.4,40-150.4,89.2S135.3,386,218.2,386s150.4-40,150.4-89.2S301.2,207.6,218.2,207.6z"/>
		<path class="st2" d="M70.1,297.4c14.5,11.4,76.1,55.7,153.8,55.7l0,0c50.8,0,98.8-18.8,142.6-55.8
			c-43.8-20.7-91.8-31.2-142.6-31.2C146.8,266.3,85.6,290.7,70.1,297.4L70.1,297.4z"/>
		<path d="M223.9,358.4L223.9,358.4c-90.6,0-159.8-59-160.4-59.6l0.6-4.3c0.7-0.3,69.6-33.4,159.9-33.4c53.1,0,103,11.2,148.5,33.4
			l0.6,4.3C327.4,338.3,277.2,358.4,223.9,358.4L223.9,358.4z M70.1,297.4c14.5,11.4,76.1,55.8,153.8,55.8l0,0
			c50.8,0,98.8-18.8,142.6-55.8c-43.8-20.7-91.8-31.2-142.6-31.2C146.8,266.2,85.6,290.7,70.1,297.4L70.1,297.4z"/>
		<path d="M224.3,315.5c-90.4,0-158.8-15.9-159.8-16.2l1.2-5.1c1.5,0.4,154.2,35.9,304.9,0l1.2,5.1
			C321,311.5,269.9,315.5,224.3,315.5z"/>
		<rect x="93.4" y="284.8" width="5.2" height="35.1"/>
		<rect x="134.1" y="274.7" width="5.2" height="61.2"/>
		<rect x="172.1" y="267.5" width="5.2" height="81"/>
		<rect x="339.7" y="284.8" width="5.2" height="35.1"/>
		<rect x="298.8" y="272.2" width="5.5" height="68.7"/>
		<rect x="261" y="267.5" width="5.4" height="84.6"/>
		<rect x="215.6" y="263.7" width="5.2" height="92.1"/>
		<path d="M73.7,235.2c0,0-2.5,0.6-5.9-1.6c-5.4-3.3-12.8-12.6-17.8-38.7c-2.5-8.8-4.2-17.8-5-26.9c-0.1-1.4-0.2-2.8-0.2-4.1
			c-0.3-13,3-19.6,6.6-22.9c5.8-5.3,14.3-4.1,18.2-3.1c0.7,0.2,1.4,0.4,2.2,0.6l1.8-4.9c-0.6-0.2-15.6-5.7-25.7,3.5
			c-8.8,8-10.7,24.2-5.6,48.2c0.7,3.4,1.6,7,2.6,10.7c4.3,22.3,11,36.4,20.1,42c2.3,1.5,5,2.3,7.8,2.4c0.8,0,1.6-0.1,2.3-0.3
			L73.7,235.2L73.7,235.2z"/>
		<path d="M388.2,137.2c-10.1-9.2-25-3.7-25.7-3.5l1.8,4.9c0.1,0,12.6-4.6,20.3,2.5c0.4,0.3,0.7,0.7,1.1,1.1
			c4.9,5.6,8.6,18.2,1.9,46.6c-0.5,2-1,4.1-1.6,6.2c0,0.1,0,0.1,0,0.2c-4.9,25.6-12.2,35-17.5,38.4c-3.6,2.3-6.1,1.7-6.2,1.7l-1.5,5
			c0.8,0.2,1.6,0.3,2.3,0.3c2.8-0.1,5.5-0.9,7.8-2.4c9.1-5.6,15.9-19.7,20.1-41.8C399.2,166.1,398.2,146.3,388.2,137.2L388.2,137.2z
			"/>
		<path d="M121.5,135c0.1,2.9,2.8-2.4,4.6-4c3.1-2.9,7.4-5.2,11.7-7.2c11-5.2,24.2-7.2,36.6-7.4c2.6,0,3.1-16-2.5-15.9
			c-27.4,0.5-57.5,12.2-56.6,31.2c0.1,2.7,0.2,7.7,3.6,9.5C121.3,142.4,121.5,135.3,121.5,135L121.5,135z"/>
		<path d="M316.7,135c-0.1,2.9-2.8-2.4-4.6-4c-3.1-2.9-7.4-5.2-11.8-7.2c-10.9-5.2-24.2-7.2-36.6-7.4c-2.5,0-3.1-16,2.5-15.9
			c27.4,0.6,57.5,12.2,56.6,31.2c-0.1,2.7-0.2,7.7-3.5,9.5C316.9,142.4,316.7,135.3,316.7,135z"/>
		<path d="M153.4,288.1c0.8-0.4,1.7-0.7,2.6-0.7c10.1-0.4,10.2-15.6,0-15.7c-1.8,0-3.6,0-5.4,0.1c-1.3,0.2-2.6,0.3-3.8,0.5
			c-2,0.5-2,0.7-0.1,0.5c-5.2-1.8-9.5,2.8-10,7.6c-0.2,2.6,0.3,5.1,0.3,7.7c0,4.2-0.5,8.6-0.8,12.9c-0.4,4.5,3.9,7.5,7.9,7.9
			c6.8,0.6,13.8,0.9,20.3,3c3.8,1.2,9-1.4,9.7-5.5c0.9-5-0.2-9.7,0.1-14.7c0.2-2.3,0.3-4.6,0.2-6.9c-0.1-1.4-0.7-4,0-5.4
			c2.8-5.8-0.7-11-6.8-11.8c-4.7-0.6-11.5-0.3-15,3.2c-4.2,4.2-4,11.5-6.9,16.5c-2.7,4.6-0.1,9.9,4.7,11.5c2.2,0.6,4.5,0.9,6.8,0.6
			c10.1-0.5,10.1-16.2,0-15.7c-0.9,0.1-1.8,0.1-2.7,0c1.6,3.9,3.1,7.7,4.7,11.5c2.2-3.7,3.7-7.7,4.6-11.8c1.1-4.9,0.9,0.1-1.9,0
			c1.9,0,3.7-0.4,5.6-0.1l-6.8-11.8c-2.3,4.9-2.3,9.5-2.1,14.9c0,2.4-0.2,4.8-0.4,7.2c-0.2,2.8,1,5.9,0.6,8.6l9.7-5.5
			c-7.8-2.5-16.4-2.9-24.5-3.5l7.9,7.9c0.3-3.6,0.3-7.3,0.7-10.9c0.3-3.2-0.5-6.4-0.2-9.6l-9.9,7.6c4.4,1.5,8.9-0.6,13.5-0.5v-15.7
			c-3.7,0.1-7.3,1.1-10.5,2.9C136.6,279.5,144.5,293,153.4,288.1L153.4,288.1z"/>
		<path d="M225.1,326.4c5.4,1.4,10.4,1.4,16,1.4c5.9,0,12.9,0.5,18.3-2.3l-11.9-6.8c-0.3,9.6-2.4,20.2-0.1,29.6l5.5-9.7
			c-9.2,2.3-19,0.7-28.2,3.1l9.7,5.5c-0.6-2,0.2-5.2,0.1-7.4c-0.1-4.3-1.8-8.3-1.8-12.6c-3.9,2.3-7.9,4.5-11.8,6.8
			c1.3,0.8,2.2,4.5,2.9,5.9c2.1,4.5,9.1,5.2,12.3,1.6c2.7-3,3.6-6.3,5.5-9.8H228c0.9,1.6,0.7,4.5,0.9,6.3c0.8,7.4,10.4,11.2,14.6,4
			c2-3.3,2.8-7,4.4-10.5h-13.6c0.6,1.4-0.7,5.7-0.7,7.4c-0.2,6.2,6.8,9.4,11.8,6.8c4-2.1,6-6.4,7.6-10.4c3.7-9.5-11.5-13.5-15.1-4.2
			c-0.4,0.9-1.5,1.6-0.4,1l11.8,6.8c0.2-5.6,0.9-10-1.4-15.3s-11.2-5-13.6,0c-1.6,3.4-2.5,7.2-4.4,10.5l14.6,4
			c-0.5-4.8-0.6-9.9-3-14.2c-2.8-5-10.8-5.2-13.6,0c-1.1,2-1.5,4.9-3,6.6l12.3,1.6c-2.2-4.6-4.1-8.7-8.6-11.5
			c-5.1-3.3-11.8,1-11.8,6.8c0.1,4.4,0.7,8.7,1.8,12.9c0.8,3.8-0.6,7.5,0.4,11.3c1.2,4.1,5.5,6.6,9.7,5.5c9.1-2.4,19.1-0.8,28.2-3.1
			c4.2-1.2,6.6-5.5,5.5-9.7c-0.9-3.7,0-7.8,0-11.6c0-4.7,0.5-9.2,0.6-13.9c0.2-6.2-6.8-9.5-11.8-6.8c-1.9,1-8,0.1-10.3,0.1
			c-4.1,0-7.8,0.1-11.8-0.9C219.5,308.8,215.4,323.9,225.1,326.4L225.1,326.4z"/>
		<path class="st4" d="M212.1,73.8c2.5,2.5,3.1,6,1.3,7.9l-9.5,9.5c-1.8,1.8-5.4,1.3-7.9-1.2l-34.1-34.1c-2.5-2.5-3.1-6-1.2-7.9
			l9.5-9.5c1.8-1.8,5.4-1.3,7.9,1.2L212.1,73.8z"/>
		<path d="M201.1,93.6c-2.3-0.1-4.4-1.1-6-2.7l-34.1-34.1c-1.7-1.6-2.6-3.7-2.7-6c0-1.4,0.5-2.8,1.5-3.8l9.5-9.5
			c2.3-2.3,6.9-1.7,9.8,1.2l34.1,34c3.1,3.1,3.6,7.4,1.2,9.8l-9.5,9.5C203.8,93,202.5,93.6,201.1,93.6L201.1,93.6z M172.9,38.8
			c-0.7,0-1.3,0.2-1.8,0.7l-9.5,9.5c-0.5,0.5-0.7,1.2-0.7,1.8c0.1,1.5,0.8,3,1.9,4L197,88.8c1.1,1.1,2.5,1.8,4.1,1.9
			c0.7,0,1.3-0.2,1.8-0.7l9.5-9.5c1.3-1.3,0.7-4-1.3-5.9l-34.1-34C176,39.5,174.5,38.8,172.9,38.8z"/>
		<path d="M166.2,52.8c-0.3,0.3-0.3,0.8,0,1.2c0.3,0.3,0.8,0.3,1.2,0c0.3-0.3,0.3-0.8,0-1.2C167,52.4,166.5,52.4,166.2,52.8z
			 M176.5,44.8c0.3-0.3,0.3-0.8,0-1.2c-0.3-0.3-0.8-0.3-1.2,0l0,0c-0.3,0.3-0.3,0.8,0,1.2C175.6,45.2,176.1,45.2,176.5,44.8z
			 M170.6,48.4c-0.3,0.3-0.3,0.8,0,1.2c0.3,0.3,0.8,0.3,1.2,0c0.3-0.3,0.3-0.8,0-1.2C171.5,48,171,48,170.6,48.4z M171.5,53.9
			c-0.3,0.3-0.3,0.8,0,1.2c0.3,0.3,0.8,0.3,1.2,0c0.3-0.3,0.3-0.9,0-1.2C172.3,53.6,171.8,53.6,171.5,53.9L171.5,53.9z M176.3,49.2
			c-0.3,0.3-0.3,0.8,0,1.2c0.3,0.3,0.8,0.3,1.2,0c0.3-0.3,0.3-0.8,0-1.2C177.1,48.9,176.6,48.9,176.3,49.2z M172.7,59.2
			c-0.3,0.3-0.3,0.8,0,1.2c0.3,0.3,0.8,0.3,1.2,0c0.3-0.3,0.3-0.8,0-1.2C173.5,58.9,173,58.9,172.7,59.2
			C172.6,59.2,172.6,59.2,172.7,59.2L172.7,59.2z M181.8,50.1c-0.3,0.3-0.3,0.8,0,1.1c0,0,0,0,0,0c0.3,0.3,0.8,0.3,1.2,0
			c0.3-0.3,0.3-0.8,0-1.2C182.6,49.8,182.1,49.8,181.8,50.1C181.8,50.1,181.8,50.1,181.8,50.1z M177.1,54.8c-0.3,0.3-0.3,0.8,0,1.2
			c0.3,0.3,0.8,0.3,1.2,0c0.3-0.3,0.3-0.8,0-1.2C177.9,54.5,177.4,54.5,177.1,54.8z M178,60.3c-0.3,0.3-0.3,0.8,0,1.2s0.8,0.3,1.2,0
			c0.3-0.3,0.3-0.8,0-1.2C178.8,60,178.3,60,178,60.3C178,60.3,177.9,60.3,178,60.3L178,60.3z M182.7,55.6c-0.3,0.3-0.3,0.8,0,1.2
			s0.8,0.3,1.2,0c0.3-0.3,0.3-0.8,0-1.2C183.5,55.3,183,55.3,182.7,55.6C182.7,55.6,182.7,55.6,182.7,55.6L182.7,55.6z M179.1,65.6
			c-0.3,0.3-0.3,0.8,0,1.2c0.3,0.3,0.8,0.4,1.2,0.1c0.3-0.3,0.4-0.8,0.1-1.2c0,0-0.1-0.1-0.1-0.1C179.9,65.3,179.4,65.3,179.1,65.6
			C179.1,65.6,179.1,65.6,179.1,65.6L179.1,65.6z M188.2,56.5c-0.3,0.3-0.4,0.8-0.1,1.2s0.8,0.4,1.2,0.1c0.3-0.3,0.3-0.8,0-1.2
			C189,56.3,188.5,56.3,188.2,56.5L188.2,56.5L188.2,56.5z M183.5,61.2c-0.3,0.3-0.3,0.8,0,1.2s0.8,0.3,1.2,0c0.3-0.3,0.3-0.8,0-1.2
			C184.3,60.9,183.8,60.9,183.5,61.2C183.5,61.2,183.5,61.2,183.5,61.2z M184.4,66.8c-0.3,0.3-0.3,0.8,0,1.2c0.3,0.3,0.8,0.3,1.2,0
			c0.3-0.3,0.3-0.8,0-1.2C185.2,66.5,184.7,66.4,184.4,66.8C184.4,66.7,184.4,66.7,184.4,66.8L184.4,66.8z M189.1,62.1
			c-0.3,0.3-0.4,0.8-0.1,1.2c0.3,0.3,0.8,0.4,1.2,0.1c0,0,0.1-0.1,0.1-0.1c0.3-0.3,0.3-0.8,0-1.2c0,0,0,0,0,0
			C189.9,61.7,189.4,61.7,189.1,62.1C189.1,62.1,189.1,62.1,189.1,62.1z M185.5,72.1c-0.3,0.3-0.3,0.8,0,1.1c0,0,0,0,0,0
			c0.3,0.3,0.8,0.3,1.1,0c0,0,0,0,0,0c0.3-0.3,0.3-0.8,0-1.2S185.8,71.8,185.5,72.1L185.5,72.1L185.5,72.1z M194.6,63
			c-0.3,0.3-0.3,0.8,0,1.1c0,0,0,0,0,0c0.3,0.3,0.8,0.3,1.2,0c0,0,0,0,0,0c0.3-0.3,0.3-0.8,0-1.1c0,0,0,0,0,0
			C195.4,62.7,194.9,62.7,194.6,63C194.6,63,194.6,63,194.6,63L194.6,63z M189.9,67.7c-0.3,0.3-0.3,0.8,0,1.2c0.3,0.3,0.8,0.3,1.2,0
			c0.3-0.3,0.3-0.8,0-1.2C190.7,67.3,190.2,67.4,189.9,67.7C189.9,67.7,189.9,67.7,189.9,67.7L189.9,67.7z M190.8,73.2
			c-0.3,0.3-0.3,0.8,0,1.2c0,0,0,0,0,0c0.3,0.3,0.8,0.3,1.2,0c0.3-0.3,0.3-0.8,0-1.2S191.1,72.9,190.8,73.2L190.8,73.2z M195.5,68.5
			c-0.3,0.3-0.3,0.8,0,1.2c0.3,0.3,0.8,0.3,1.2,0c0.3-0.3,0.3-0.8,0-1.2C196.4,68.2,195.8,68.2,195.5,68.5
			C195.5,68.5,195.5,68.5,195.5,68.5L195.5,68.5z M192,78.5c-0.3,0.3-0.3,0.8,0,1.1c0,0,0,0,0,0c0.3,0.3,0.8,0.3,1.1,0c0,0,0,0,0,0
			c0.3-0.3,0.3-0.8,0-1.2C192.8,78.2,192.3,78.2,192,78.5z M201,69.4c-0.3,0.3-0.3,0.8,0,1.1c0,0,0,0,0,0c0.3,0.3,0.8,0.3,1.1,0
			s0.3-0.8,0-1.1C201.9,69.1,201.4,69.1,201,69.4z M196.4,74.1c-0.3,0.3-0.3,0.8,0,1.2c0,0,0,0,0,0c0.3,0.3,0.8,0.3,1.2,0
			c0.3-0.3,0.3-0.8,0-1.2S196.7,73.7,196.4,74.1L196.4,74.1z M198.4,84.9c-0.3,0.3-0.3,0.8,0,1.2c0,0,0,0,0,0c0.3,0.3,0.8,0.3,1.2,0
			c0.3-0.3,0.3-0.8,0-1.2C199.2,84.6,198.7,84.6,198.4,84.9L198.4,84.9z M207.5,75.9c-0.3,0.3-0.3,0.8,0,1.1c0,0,0,0,0,0
			c0.3,0.3,0.8,0.3,1.2,0c0,0,0,0,0,0c0.3-0.3,0.3-0.8,0-1.1c0,0,0,0,0,0C208.3,75.6,207.8,75.6,207.5,75.9
			C207.5,75.9,207.5,75.9,207.5,75.9z M202.8,80.6c-0.3,0.3-0.3,0.8,0,1.2s0.8,0.3,1.2,0l0,0c0.3-0.3,0.3-0.8,0-1.2
			C203.6,80.3,203.1,80.2,202.8,80.6C202.8,80.6,202.8,80.6,202.8,80.6L202.8,80.6z M197.3,79.7c-0.3,0.3-0.3,0.8,0,1.2c0,0,0,0,0,0
			c0.3,0.3,0.8,0.3,1.2,0c0.3-0.3,0.3-0.8,0-1.2S197.6,79.3,197.3,79.7L197.3,79.7z M202,74.9c-0.3,0.3-0.3,0.8,0,1.2s0.8,0.3,1.2,0
			c0.3-0.3,0.3-0.8,0-1.2C202.8,74.6,202.3,74.6,202,74.9C202,74.9,202,74.9,202,74.9L202,74.9z"/>
		<path class="st4" d="M196,39.7c2.5-2.5,6.1-3.1,7.9-1.2l9.5,9.5c1.8,1.8,1.3,5.4-1.3,7.9L178,89.8c-2.5,2.5-6.1,3.1-7.9,1.2
			l-9.5-9.5c-1.8-1.8-1.3-5.3,1.3-7.9L196,39.7L196,39.7z"/>
		<path d="M172.9,93.6c-1.4,0-2.8-0.5-3.8-1.5l-9.5-9.5c-2.4-2.4-1.8-6.8,1.3-9.8L195,38.7c3-3,7.5-3.6,9.8-1.2l9.5,9.5
			c2.4,2.4,1.8,6.8-1.2,9.8L179,90.8C177.4,92.5,175.3,93.5,172.9,93.6L172.9,93.6z M201.1,38.8c-1.6,0.1-3,0.8-4.1,1.9l-34.1,34.1
			c-2,2-2.5,4.7-1.3,5.9l9.5,9.5c0.5,0.5,1.2,0.7,1.8,0.7c1.6-0.1,3-0.8,4.1-1.9l34.1-34.2c1.9-2,2.5-4.7,1.2-5.9l-9.5-9.5
			C202.4,38.9,201.7,38.7,201.1,38.8z"/>
		<path d="M175,85.6c0.3,0.3,0.8,0.3,1.2,0c0.3-0.3,0.3-0.8,0-1.2c-0.3-0.3-0.8-0.3-1.2,0C174.7,84.7,174.7,85.2,175,85.6z
			 M167.1,75.3c-0.3-0.3-0.8-0.3-1.2,0s-0.3,0.8,0,1.2c0.3,0.3,0.8,0.3,1.2,0C167.4,76.2,167.4,75.6,167.1,75.3
			C167.1,75.3,167.1,75.3,167.1,75.3z M170.6,81.2c0.3,0.3,0.8,0.3,1.1,0c0,0,0,0,0,0c0.3-0.3,0.3-0.8,0-1.2c0,0,0,0,0,0
			c-0.3-0.3-0.8-0.3-1.1,0c0,0,0,0,0,0C170.3,80.3,170.3,80.8,170.6,81.2C170.6,81.1,170.6,81.1,170.6,81.2z M176.1,80.3
			c0.3,0.3,0.8,0.3,1.1,0c0,0,0,0,0,0c0.3-0.3,0.3-0.8,0-1.2c-0.3-0.3-0.8-0.3-1.2,0S175.8,79.9,176.1,80.3
			C176.1,80.3,176.1,80.3,176.1,80.3z M171.4,75.5c0.3,0.3,0.8,0.3,1.2,0c0.3-0.3,0.3-0.8,0-1.2c-0.3-0.3-0.8-0.3-1.2,0
			C171.1,74.7,171.1,75.2,171.4,75.5C171.4,75.5,171.4,75.5,171.4,75.5z M181.4,79.1c0.3,0.3,0.8,0.3,1.2,0c0,0,0,0,0,0
			c0.3-0.3,0.3-0.8,0-1.2c-0.3-0.3-0.8-0.3-1.2,0c0,0,0,0,0,0C181.1,78.3,181.1,78.8,181.4,79.1C181.5,79.1,181.5,79.1,181.4,79.1
			L181.4,79.1z M172.3,70c0.3,0.3,0.8,0.3,1.1,0c0,0,0,0,0,0c0.3-0.3,0.3-0.8,0-1.2c0,0,0,0,0,0c-0.3-0.3-0.8-0.4-1.2-0.1
			s-0.4,0.8-0.1,1.2C172.3,70,172.3,70,172.3,70z M177,74.8c0.3,0.3,0.8,0.3,1.1,0c0,0,0,0,0,0c0.3-0.3,0.3-0.8,0-1.2c0,0,0,0,0,0
			c-0.3-0.3-0.8-0.3-1.1,0c0,0,0,0,0,0C176.7,73.9,176.7,74.4,177,74.8C177,74.7,177,74.7,177,74.8z M182.6,73.9
			c0.3,0.3,0.8,0.3,1.1,0c0,0,0,0,0,0c0.3-0.3,0.3-0.8,0-1.1c0,0,0,0,0,0c-0.3-0.3-0.8-0.3-1.1,0c0,0,0,0,0,0
			C182.3,73,182.3,73.5,182.6,73.9L182.6,73.9z M177.9,69.1c0.3,0.3,0.9,0.2,1.2-0.1c0.3-0.3,0.3-0.7,0-1.1c-0.3-0.3-0.8-0.3-1.2,0
			c0,0,0,0,0,0C177.6,68.3,177.6,68.8,177.9,69.1L177.9,69.1z M187.9,72.7c0.3,0.3,0.8,0.3,1.1,0c0.3-0.3,0.3-0.8,0-1.2
			c-0.3-0.3-0.8-0.3-1.1,0c0,0,0,0,0,0C187.6,71.9,187.6,72.4,187.9,72.7L187.9,72.7z M178.8,63.6c0.3,0.3,0.8,0.3,1.1,0
			c0,0,0,0,0,0c0.3-0.3,0.3-0.8,0-1.2c0,0,0,0,0,0c-0.3-0.3-0.8-0.4-1.2-0.1s-0.4,0.8-0.1,1.2C178.7,63.6,178.7,63.6,178.8,63.6z
			 M183.5,68.3c0.3,0.3,0.8,0.3,1.1,0s0.3-0.8,0-1.1c-0.3-0.3-0.8-0.3-1.1,0C183.2,67.4,183.1,67.9,183.5,68.3
			C183.5,68.3,183.5,68.3,183.5,68.3z M189,67.4c0.3,0.3,0.9,0.2,1.2-0.1c0.3-0.3,0.3-0.7,0-1.1c-0.3-0.3-0.8-0.4-1.2-0.1
			c-0.3,0.3-0.4,0.8-0.1,1.2C189,67.3,189,67.3,189,67.4z M184.3,62.7c0.3,0.3,0.8,0.3,1.2,0c0.3-0.3,0.3-0.8,0-1.2
			c-0.3-0.3-0.8-0.4-1.2-0.1c-0.3,0.3-0.4,0.8-0.1,1.2C184.2,62.6,184.3,62.6,184.3,62.7L184.3,62.7z M194.3,66.2
			c0.3,0.3,0.8,0.3,1.2,0c0.3-0.3,0.3-0.8,0-1.2c-0.3-0.3-0.8-0.3-1.1,0C194,65.4,194,65.9,194.3,66.2L194.3,66.2L194.3,66.2z
			 M185.2,57.2c0.3,0.3,0.8,0.3,1.1,0c0,0,0,0,0,0c0.3-0.3,0.3-0.8,0-1.2c0,0,0,0,0,0c-0.3-0.3-0.9-0.2-1.2,0.1
			C185,56.4,185,56.9,185.2,57.2z M189.9,61.8c0.3,0.3,0.8,0.3,1.1,0c0.3-0.3,0.3-0.8,0-1.1c-0.3-0.3-0.8-0.3-1.1,0
			C189.6,61,189.6,61.5,189.9,61.8C189.9,61.8,189.9,61.8,189.9,61.8L189.9,61.8z M195.4,60.9c0.3,0.3,0.8,0.3,1.2,0c0,0,0,0,0,0
			c0.3-0.3,0.3-0.8,0-1.1c0,0,0,0,0,0c-0.4-0.2-0.9-0.1-1.1,0.3C195.3,60.3,195.3,60.7,195.4,60.9L195.4,60.9z M190.7,56.2
			c0.3,0.3,0.8,0.3,1.2,0c0.3-0.3,0.3-0.8,0-1.2c-0.3-0.3-0.8-0.3-1.2,0l0,0C190.4,55.4,190.4,55.9,190.7,56.2L190.7,56.2z
			 M200.7,59.8c0.3,0.3,0.8,0.3,1.1,0c0.3-0.3,0.3-0.8,0-1.1c-0.3-0.3-0.8-0.3-1.1,0C200.4,59,200.4,59.5,200.7,59.8
			C200.8,59.8,200.8,59.8,200.7,59.8L200.7,59.8z M191.7,50.8c0.3,0.3,0.8,0.3,1.1,0c0.3-0.3,0.3-0.8,0-1.2c-0.3-0.3-0.8-0.3-1.1,0
			S191.4,50.4,191.7,50.8L191.7,50.8z M196.4,55.4c0.4,0.3,0.9,0.2,1.2-0.1c0.2-0.3,0.2-0.8,0-1.1c-0.3-0.3-0.8-0.3-1.1,0
			C196,54.6,196,55.1,196.4,55.4C196.3,55.4,196.3,55.4,196.4,55.4L196.4,55.4z M207.2,53.4c0.3,0.3,0.8,0.3,1.2,0c0,0,0,0,0,0
			c0.3-0.3,0.4-0.8,0.1-1.2s-0.8-0.4-1.2-0.1c0,0-0.1,0.1-0.1,0.1C206.9,52.6,206.9,53,207.2,53.4L207.2,53.4z M198.1,44.3
			c0.3,0.3,0.8,0.3,1.2,0s0.3-0.8,0-1.2c-0.3-0.3-0.8-0.3-1.2,0C197.8,43.5,197.8,44,198.1,44.3L198.1,44.3z M202.8,49
			c0.3,0.3,0.8,0.3,1.1,0c0,0,0,0,0,0c0.3-0.3,0.3-0.8,0-1.1c-0.3-0.3-0.8-0.3-1.1,0C202.5,48.2,202.5,48.6,202.8,49L202.8,49z
			 M201.9,54.6c0.3,0.3,0.8,0.3,1.1,0c0,0,0,0,0,0c0.3-0.3,0.3-0.8,0-1.1c0,0,0,0,0,0c-0.3-0.3-0.8-0.3-1.1,0S201.6,54.2,201.9,54.6
			z M197.2,49.8c0.3,0.3,0.8,0.3,1.1,0c0,0,0,0,0,0c0.3-0.3,0.3-0.8,0-1.1s-0.8-0.3-1.1,0C196.9,48.9,196.9,49.4,197.2,49.8z"/>
	</g>
</g>
</svg>
