<?xml version="1.0" encoding="utf-8"?>
<!-- Generator: Adobe Illustrator 22.1.0, SVG Export Plug-In . SVG Version: 6.00 Build 0)  -->
<svg version="1.1" id="Layer_1" xmlns="http://www.w3.org/2000/svg" xmlns:xlink="http://www.w3.org/1999/xlink" x="0px" y="0px"
	 viewBox="0 0 436 414" style="enable-background:new 0 0 436 414;" xml:space="preserve">
<style type="text/css">
	.st0{fill:#D8B78B;}
	.st1{fill:#7F512E;}
	.st2{fill:#FFFFFF;}
	.st3{fill:#CC0033;}
</style>
<title>monkeylogo4</title>
<g id="Layer_2_1_">
	<g id="Layer_1-2">
		<path class="st0" d="M342.9,202.2c1,7.2,2.4,31.8,10.7,35.8c26.9,12.9,36.3-47.8,39.3-62.5s-1.1-48.8-23.2-40.6
			c-0.6,0.2-1.2,0.6-1.6,1c-9.6-4.1-20.7-3.1-24.2,8.7C338.6,162,340.4,184.5,342.9,202.2L342.9,202.2z"/>
		<path class="st0" d="M91.9,144.6c-3.5-11.8-14.6-12.8-24.2-8.7c-0.5-0.4-1-0.8-1.6-1c-22.1-8.2-26.2,26-23.2,40.6
			s12.4,75.4,39.3,62.5c8.3-4,9.7-28.5,10.7-35.8C95.3,184.5,97.1,162,91.9,144.6L91.9,144.6z"/>
		<path class="st1" d="M367.6,170.3c0-80-66.9-144.9-149.4-144.9S68.9,84.2,68.9,170.3c0,160.8,66.9,144.9,149.4,144.9
			S367.6,331.1,367.6,170.3z"/>
		<path d="M257.6,318.2L257.6,318.2c-6.1,0-12.5-0.1-18.9-0.2c-13.4-0.2-27.5-0.2-40.9,0c-6.4,0.1-12.8,0.2-18.9,0.2
			c-63.8,0-112.6-10.9-112.6-147.9c0-84.1,65.3-147.5,152-147.5c83.8,0,152,66.2,152,147.5c0,63.4-10.2,103.1-32,124.9
			C319,314.3,293.1,318.2,257.6,318.2L257.6,318.2z M218.2,312.5c7,0,13.8,0.1,20.6,0.2c6.4,0.1,12.7,0.2,18.8,0.2
			c34.2,0,59-3.6,76.9-21.5c20.8-20.8,30.5-59.2,30.5-121.1C365,91.8,299.1,28,218.2,28C134.6,28,71.5,89.2,71.5,170.3
			C71.5,302.8,116,313,178.9,313c6.1,0,12.4-0.1,18.8-0.2C204.4,312.6,211.3,312.5,218.2,312.5L218.2,312.5z"/>
		<path class="st0" d="M95.2,220.2c0,74.4,55.3,134.7,123.5,134.7s123.5-60.3,123.5-134.7S341.6,51.8,218.2,81
			C78.5,51.8,95.2,145.8,95.2,220.2z"/>
		<path d="M218.8,358c-69.8,0-126.7-61.8-126.7-137.8c0-7.1-0.2-14.4-0.3-21.8c-0.8-40.3-1.7-81.9,21.9-106.1
			c19.9-20.3,53.8-25,104.5-14.5c15.3-3.6,29.3-5.4,41.7-5.4c85.6,0,85.6,85.4,85.6,147.8C345.5,296.2,288.7,358,218.8,358
			L218.8,358z M171.8,78.8c-24.2,0-41.8,5.9-53.6,18c-21.8,22.2-20.9,62.5-20.1,101.5c0.2,7.4,0.3,14.8,0.3,21.9
			c0,72.5,54,131.5,120.4,131.5s120.4-59,120.4-131.5c0-63,0-141.5-79.2-141.5c-12.1,0-25.9,1.8-41,5.4l-0.7,0.2l-0.7-0.1
			C200.5,80.5,185,78.8,171.8,78.8L171.8,78.8z"/>
		<path class="st2" d="M193.2,180c0-24.7-15.6-44.7-35-44.7s-34.9,20-34.9,44.7s15.7,44.7,35,44.7
			C177.6,224.8,193.3,204.8,193.2,180L193.2,180z"/>
		<path class="st0" d="M171.1,173.1c1-0.4,2,0,2.6,0.8l2.5-1.2c0.3-0.4,0.7-0.6,1.2-0.8c4.8-1.5,9.6-3.3,14.2-5.4
			c-4.5-18.1-17.7-31.2-33.3-31.2c-15.3,0-28.2,12.6-33,30.1c6.4,4.4,17,10.8,24.6,10.2C156.7,175.1,164.6,175.1,171.1,173.1
			L171.1,173.1z"/>
		<path d="M158.3,227.4c-20.7,0-37.6-21.2-37.6-47.3s16.9-47.3,37.6-47.3s37.6,21.2,37.6,47.3S179,227.4,158.3,227.4z M158.3,137.9
			c-17.8,0-32.3,18.9-32.3,42.1s14.5,42.1,32.3,42.1c17.8,0,32.3-18.9,32.3-42.1S176.1,137.9,158.3,137.9z"/>
		<path class="st2" d="M313.7,180c0-24.7-15.6-44.7-35-44.7s-34.9,20-34.9,44.7s15.7,44.7,35,44.7
			C298.1,224.8,313.8,204.8,313.7,180L313.7,180z"/>
		<path class="st0" d="M278.8,135.3c-16.3,0-30,14.3-33.8,33.6l0.2,0.1c0.8-0.9,2.1-1.2,3.1-0.7c12.3,5.7,23.4,11.2,37.3,7.3
			c7.5-2.1,16-2.6,23.2-5.9c0.9-0.4,2-0.3,2.8,0.3c0.4-0.1,0.8-0.3,1.2-0.4C309,150,295.3,135.3,278.8,135.3L278.8,135.3z"/>
		<path d="M278.8,227.4c-20.7,0-37.6-21.2-37.6-47.3s16.8-47.3,37.6-47.3c20.7,0,37.6,21.2,37.6,47.3S299.5,227.4,278.8,227.4z
			 M278.8,137.9c-17.8,0-32.3,18.9-32.3,42.1s14.5,42.1,32.3,42.1c17.8,0,32.3-18.9,32.3-42.1S296.6,137.9,278.8,137.9L278.8,137.9z
			"/>
		<path d="M146.5,195.6c0,12.2,6.3,22,14.1,22c7.8,0,14.1-9.9,14.1-22s-6.3-22-14.1-22C152.8,173.6,146.5,183.4,146.5,195.6z"/>
		<path d="M261.7,195.6c0,12.2,6.3,22,14.1,22s14.1-9.9,14.1-22s-6.3-22-14.1-22S261.7,183.4,261.7,195.6z"/>
		<path d="M275.9,177.9c-11.4,0.2-22.6-3.4-31.8-10.1c-1.2-0.9-1.4-2.5-0.6-3.7c0.9-1.2,2.5-1.4,3.7-0.6c27.6,20.1,63,0.1,63.4-0.1
			c1.3-0.7,2.9-0.3,3.6,1c0.7,1.3,0.3,2.9-1,3.6l0,0C312.2,168.6,295.7,177.9,275.9,177.9L275.9,177.9z"/>
		<path d="M155.4,177.9c-11.4,0.2-22.6-3.4-31.8-10.1c-1.2-0.9-1.4-2.5-0.6-3.7c0.9-1.2,2.5-1.4,3.7-0.6
			c27.6,20.1,63.1,0.1,63.5-0.1c1.3-0.7,2.9-0.3,3.6,1c0.7,1.3,0.3,2.9-1,3.6C191.7,168.6,175.2,177.9,155.4,177.9z"/>
		<path class="st0" d="M371.3,296.8c0,50.7-68.5,91.8-153.1,91.8S65.2,347.5,65.2,296.8s68.5-91.8,153.1-91.8
			S371.3,246.1,371.3,296.8z"/>
		<path d="M218.2,391.2c-85.9,0-155.7-42.4-155.7-94.5s69.8-94.4,155.7-94.4s155.7,42.4,155.7,94.4S304.1,391.2,218.2,391.2z
			 M218.2,207.6c-83,0-150.4,40-150.4,89.2S135.3,386,218.2,386s150.4-40,150.4-89.2S301.2,207.6,218.2,207.6z"/>
		<path d="M73.7,235.2c0,0-2.5,0.6-5.9-1.5c-5.4-3.3-12.8-12.6-17.8-38.8c-2.5-8.8-4.2-17.8-5-26.9c-0.1-1.4-0.2-2.8-0.2-4.1
			c-0.3-13,3-19.6,6.6-22.9c5.8-5.3,14.3-4.1,18.2-3.1c0.7,0.2,1.4,0.4,2.2,0.6l1.8-4.9c-0.6-0.2-15.6-5.7-25.7,3.5
			c-8.8,8-10.7,24.3-5.6,48.3c0.7,3.4,1.6,7,2.6,10.7c4.3,22.3,11,36.4,20.1,42c2.3,1.5,5,2.3,7.8,2.4c0.8,0,1.6-0.1,2.3-0.3
			L73.7,235.2L73.7,235.2z"/>
		<path d="M388.2,137.2c-10.1-9.2-25-3.7-25.7-3.5l1.8,4.9c0.1,0,12.6-4.6,20.3,2.5c0.4,0.3,0.7,0.7,1.1,1.1
			c4.9,5.6,8.6,18.2,1.9,46.5c-0.5,2-1,4-1.6,6.2c0,0.1,0,0.1,0,0.2c-4.9,25.6-12.2,35-17.5,38.4c-3.6,2.3-6.1,1.7-6.2,1.7l-1.5,5
			c0.8,0.2,1.6,0.3,2.3,0.3c2.8-0.1,5.5-0.9,7.8-2.4c9.1-5.6,15.9-19.7,20.1-41.9C399.3,166.1,398.3,146.3,388.2,137.2L388.2,137.2z
			"/>
		<path d="M122.2,137.4c0,1.7,2.9-1.6,4.8-2.7c3.9-2,7.9-3.7,12.1-5c11.2-3.8,24.4-5.8,36.7-6.8c2.5-0.2,4.1-9.7-1.5-9.3
			c-27.1,2.1-57.7,11-58,22.2c0,1.6-0.2,4.5,2.9,5.4C121.6,141.8,122.3,137.6,122.2,137.4L122.2,137.4z"/>
		<path d="M313.7,137.4c0,1.7-2.9-1.6-4.9-2.7c-3.9-2-7.9-3.7-12.1-5c-11.2-3.8-24.4-5.8-36.7-6.8c-2.5-0.2-4.1-9.7,1.5-9.3
			c27.1,2.1,57.7,11,58,22.2c0.1,1.6,0.3,4.5-2.9,5.4C314.3,141.8,313.6,137.6,313.7,137.4L313.7,137.4z"/>
		<path class="st3" d="M218,296.8c-20.9,0-37.9,11.8-37.9,26.3s17,26.3,37.9,26.3s37.9-11.8,37.9-26.3S239,296.8,218,296.8z"/>
		<path d="M200.5,323.1c0,2.6,7.8,4.6,17.5,4.6s17.5-2.1,17.5-4.6s-7.9-4.7-17.5-4.7S200.5,320.5,200.5,323.1z"/>
		<path d="M106.6,182.9c-0.8,0-1.5-0.7-1.5-1.5c0-0.7,0.5-1.2,1.1-1.4c11.6-2.8,19.9-13.4,20-13.6c0.5-0.7,1.4-0.9,2.1-0.4
			c0.7,0.5,0.9,1.4,0.4,2.1c0,0.1-0.1,0.1-0.1,0.2c-0.4,0.5-9.1,11.6-21.7,14.6C106.9,182.9,106.7,182.9,106.6,182.9L106.6,182.9z"
			/>
		<path d="M117.1,188.2c-0.8,0-1.5-0.7-1.5-1.5c0-0.7,0.5-1.2,1.1-1.4c11.6-2.8,19.9-13.4,20-13.6c0.5-0.7,1.4-0.9,2.1-0.4
			c0.7,0.5,0.9,1.4,0.4,2.1c0,0.1-0.1,0.1-0.1,0.2c-0.4,0.5-9.1,11.6-21.7,14.6C117.3,188.1,117.2,188.1,117.1,188.2L117.1,188.2z"
			/>
		<path d="M129.1,192.4c-0.8,0-1.5-0.7-1.5-1.5c0-0.6,0.4-1.2,1-1.4c11.3-3.6,18.9-14.9,18.9-15c0.5-0.7,1.4-0.9,2.1-0.4
			c0.7,0.5,0.9,1.4,0.4,2.1c-0.3,0.5-8.2,12.3-20.5,16.2C129.4,192.4,129.3,192.4,129.1,192.4L129.1,192.4z"/>
		<path d="M142,195.7c-0.8,0-1.5-0.6-1.5-1.5c0-0.6,0.3-1.1,0.8-1.4c10.6-5.4,16.2-17.7,16.3-17.8c0.3-0.8,1.2-1.1,2-0.8
			s1.1,1.2,0.8,2c-0.2,0.5-6.1,13.4-17.7,19.3C142.4,195.6,142.2,195.7,142,195.7z"/>
		<path d="M156.7,193.8c-0.8,0-1.5-0.7-1.5-1.5c0-0.6,0.3-1.1,0.8-1.3c10.6-5.4,16.3-17.7,16.3-17.8c0.4-0.7,1.3-1,2-0.6
			c0.6,0.4,0.9,1.1,0.7,1.8c-0.2,0.5-6.1,13.4-17.7,19.3C157.2,193.8,157,193.8,156.7,193.8z"/>
		<path d="M173.1,191.7c-0.8,0-1.5-0.6-1.5-1.5c0-0.5,0.2-0.9,0.6-1.2c9.6-7,13.1-20.1,13.2-20.3c0.2-0.8,1-1.3,1.8-1.1c0,0,0,0,0,0
			c0.8,0.2,1.3,1,1.1,1.8c0,0,0,0,0,0c-0.1,0.6-3.9,14.2-14.3,21.9C173.7,191.6,173.4,191.7,173.1,191.7L173.1,191.7z"/>
		<path d="M325.9,184.3c-0.1,0-0.2,0-0.4,0c-12.6-3-21.3-14.1-21.7-14.6c-0.5-0.7-0.3-1.6,0.4-2.1c0.6-0.4,1.5-0.3,2,0.3
			c0.1,0.1,8.5,10.8,20,13.6c0.8,0.2,1.3,1,1.1,1.8C327.1,183.9,326.5,184.3,325.9,184.3L325.9,184.3z"/>
		<path d="M315.4,189.5c-0.1,0-0.2,0-0.4,0c-12.6-3-21.3-14.1-21.7-14.6c-0.5-0.6-0.4-1.6,0.3-2.1c0.6-0.5,1.6-0.4,2.1,0.3
			c0.1,0.1,8.5,10.8,20,13.6c0.8,0.2,1.3,1,1.1,1.8C316.7,189.1,316.1,189.5,315.4,189.5z"/>
		<path d="M303.4,193.8c-0.2,0-0.3,0-0.5-0.1c-12.3-4-20.2-15.7-20.5-16.2c-0.4-0.7-0.2-1.6,0.6-2c0.6-0.4,1.5-0.2,1.9,0.4
			c0.1,0.1,7.6,11.4,18.9,15c0.8,0.3,1.2,1.1,0.9,1.9C304.6,193.3,304,193.7,303.4,193.8L303.4,193.8z"/>
		<path d="M290.6,197c-0.2,0-0.5-0.1-0.7-0.2c-11.5-5.9-17.4-18.7-17.7-19.3c-0.3-0.8,0.1-1.6,0.9-1.9c0.7-0.3,1.5,0,1.8,0.7
			c0,0.1,5.7,12.4,16.3,17.8c0.7,0.4,1,1.3,0.6,2C291.6,196.7,291.1,197,290.6,197L290.6,197z"/>
		<path d="M275.8,195.2c-0.2,0-0.5-0.1-0.7-0.2c-11.5-5.9-17.4-18.7-17.7-19.3c-0.4-0.7-0.1-1.6,0.6-2c0.7-0.4,1.6-0.1,2,0.6
			c0,0.1,0.1,0.1,0.1,0.2c0.1,0.1,5.7,12.4,16.3,17.8c0.7,0.4,1,1.3,0.6,2C276.8,194.9,276.3,195.2,275.8,195.2L275.8,195.2z"/>
		<path d="M259.4,193c-0.3,0-0.7-0.1-0.9-0.3c-10.4-7.7-14.1-21.3-14.3-21.9c-0.2-0.8,0.3-1.6,1.1-1.8c0.8-0.2,1.6,0.2,1.8,1
			c0,0,0,0,0,0c0,0.1,3.6,13.2,13.2,20.3c0.7,0.5,0.8,1.4,0.3,2.1C260.3,192.8,259.8,193,259.4,193L259.4,193z"/>
	</g>
</g>
</svg>
