<?xml version="1.0" encoding="utf-8"?>
<!-- Generator: Adobe Illustrator 22.1.0, SVG Export Plug-In . SVG Version: 6.00 Build 0)  -->
<svg version="1.1" id="Layer_1" xmlns="http://www.w3.org/2000/svg" xmlns:xlink="http://www.w3.org/1999/xlink" x="0px" y="0px"
	 viewBox="0 0 220 220" style="enable-background:new 0 0 220 220;" xml:space="preserve">
<style type="text/css">
	.st0{fill:#D8B78B;}
	.st1{fill:#7F512E;stroke:#000000;stroke-miterlimit:10;}
	.st2{fill:#D8B78B;stroke:#000000;stroke-width:1.2015;stroke-miterlimit:10;}
	.st3{fill:#FFFFFF;stroke:#000000;stroke-width:2.8347;stroke-miterlimit:10;}
	.st4{fill:#D8B78B;stroke:#000000;stroke-miterlimit:10;}
	.st5{fill:none;stroke:#000000;stroke-miterlimit:10;}
	.st6{fill:#BDC9AB;}
	.st7{fill:#BDC9AB;stroke:#000000;stroke-width:1.2015;stroke-miterlimit:10;}
	.st8{fill:#FFFFFF;stroke:#000000;stroke-miterlimit:10;}
	.st9{fill:#1A171B;}
	.st10{fill:#009EE0;fill-opacity:0.21;stroke:#000000;stroke-miterlimit:10;}
	.st11{fill:none;stroke:#000000;stroke-linecap:round;stroke-miterlimit:10;}
	.st12{fill:none;stroke:#000000;stroke-width:1.0575;stroke-linecap:round;stroke-miterlimit:10;}
	.st13{fill:none;stroke:#000000;stroke-width:0.9979;stroke-miterlimit:10;}
	.st14{fill:none;stroke:#000000;stroke-width:0.9948;stroke-miterlimit:10;}
	.st15{fill:#CC0033;}
	.st16{fill:#FFFFFF;}
	.st17{fill:none;stroke:#000000;stroke-linejoin:bevel;stroke-miterlimit:10;}
	.st18{fill:none;stroke:#000000;stroke-width:0.9999;stroke-miterlimit:10;}
	.st19{fill:none;stroke:#000000;stroke-width:1.0589;stroke-miterlimit:10;}
	.st20{fill:none;stroke:#000000;stroke-width:1.0216;stroke-miterlimit:10;}
</style>
<g>
	<path class="st0" d="M14.5,104.4c-1.4-1.9-3.5-1.3-4.9,0.1c-0.1,0-0.2-0.1-0.4-0.1c-4.5,0-2.9,6.4-1.4,8.8
		c1.5,2.4,7.4,12.6,11.3,8.5c1.2-1.3-0.2-5.8-0.5-7.1C17.8,111.3,16.6,107.1,14.5,104.4z"/>
	<path class="st0" d="M66.1,85.3l-0.2-2.4c-0.8-0.2-1.6,0-2.5,0.8c-0.1,0.1-0.2,0.2-0.2,0.3c-2-0.1-3.9,0.9-3.7,3.2
		c0.3,3.5,2.1,7.4,3.8,10.3c0.7,1.2,2.6,5.5,4.4,5.6c5.7,0.5,3.2-11,2.8-13.8c-0.3-1.6-1.4-4.2-3-5.6L66.1,85.3L66.1,85.3z"/>
	<path d="M69.1,103.5c-0.5,0.2-1,0.3-1.6,0.2c-1.6-0.1-3.1-2.8-4.4-5.2c-0.1-0.3-0.3-0.5-0.3-0.7c-2.4-4.3-3.6-7.7-3.8-10.5
		c-0.1-1.6,0.7-2.9,2.1-3.4c0.5-0.2,1.2-0.3,1.8-0.3c0-0.1,0.1-0.1,0.2-0.2c0.9-0.8,1.9-1.1,2.9-0.9l0.3,0.1l0.2,1.5l0.8-1l0.4,0.3
		c1.6,1.4,2.8,4.1,3.1,5.9l0.1,0.7C71.5,93.6,73,102,69.1,103.5L69.1,103.5z M61.4,84.7c-0.7,0.3-1.6,0.9-1.5,2.4
		c0.2,2.7,1.4,6,3.7,10.1c0.1,0.2,0.2,0.4,0.4,0.7c0.7,1.4,2.4,4.6,3.6,4.7c0.4,0,0.8,0,1.2-0.1c3.1-1.2,1.6-9.6,1.2-12.4l-0.1-0.7
		c-0.2-1.5-1.2-3.6-2.4-4.9l-1.7,2.1l-0.3-3.2c-0.6,0-1.1,0.2-1.7,0.7c-0.1,0.1-0.1,0.1-0.1,0.1l-0.1,0.3l-0.3,0
		C62.5,84.4,61.9,84.5,61.4,84.7z"/>
	<polyline class="st1" points="13.1,88.3 10.5,82.8 12.6,83.8 13.4,79.2 15.5,81.8 16.4,79.3 17.9,81.7 	"/>
	<polyline class="st1" points="26.5,75.5 32.6,66.7 31.1,71.1 39.2,63.6 37,69.3 46.8,65.6 38.3,72.6 	"/>
	<path class="st1" d="M65.4,90.1C60,75.9,43.6,68.9,28.9,74.5c-14.7,5.6-22.6,20.7-16.7,36c11,28.7,21.8,21.3,36.5,15.6
		C63.4,120.5,76.4,118.8,65.4,90.1z"/>
	<path class="st2" d="M20.3,117.6c5.1,13.3,19,20.2,31.2,15.6c12.2-4.7,17.9-19.2,12.8-32.4c-5.1-13.3-11.6-30-31.6-16.3
		C5.8,88.7,15.2,104.3,20.3,117.6z"/>
	<path class="st3" d="M35,103.8c-1.7-4.4-4.7-3.8-8.1-2.5c-3.4,1.3-6,2.9-4.4,7.3c1.7,4.4,5.3,5.5,8.8,4.2
		C34.7,111.4,36.7,108.2,35,103.8z"/>
	<path class="st3" d="M44,100.3c-1.7-4.4,0.9-6,4.4-7.3c3.4-1.3,6.4-1.9,8.1,2.5c1.7,4.4-0.3,7.7-3.7,9
		C49.3,105.8,45.7,104.7,44,100.3z"/>
	<ellipse transform="matrix(0.934 -0.3573 0.3573 0.934 -32.9142 25.1701)" cx="51.7" cy="101.7" rx="2.7" ry="2.2"/>
	<ellipse transform="matrix(0.934 -0.3573 0.3573 0.934 -35.0967 16.7128)" cx="27.7" cy="103.4" rx="2.7" ry="2.2"/>
	<ellipse transform="matrix(0.934 -0.3573 0.3573 0.934 -40.7721 25.0502)" class="st4" cx="47.4" cy="122.9" rx="29.2" ry="17.5"/>
	<path d="M17.4,121.8c0,0-0.4,0.3-1.2,0.1c-1.2-0.2-3.1-1.4-5.8-5.7c-1.3-1.7-2.1-3.2-2.7-4.4c-0.1-0.2-0.2-0.5-0.3-0.7
		c-0.9-2.3-0.8-3.7-0.4-4.5c0.7-1.3,2.3-1.7,3-1.8c0.3,0,0.4,0,0.4,0l0-1c-0.1,0-3.2,0-4.3,2.4c-1,2-0.2,5.1,2.3,9
		c0.4,0.6,0.8,1.1,1.2,1.7c2.3,3.7,4.5,5.7,6.5,6.1c0.7,0.1,1.2,0,1.5-0.1c0.2-0.1,0.4-0.2,0.4-0.2L17.4,121.8L17.4,121.8z"/>
	<path d="M20.1,102c0.1,0.6,0.5-0.5,0.8-0.8c0.5-0.6,1.3-1.1,2.1-1.6c2-1.2,4.5-1.8,6.8-2c0.5-0.1,0.3-3.1-0.7-3
		c-5.2,0.5-10.7,3.2-10.3,6.9c0.1,0.5,0.2,1.5,0.8,1.7C20.2,103.4,20.1,102.1,20.1,102L20.1,102z"/>
	<path d="M53.2,89.3c0.3,0.5-0.7,0-1.2-0.1c-0.8-0.1-1.7,0.1-2.6,0.2c-2.3,0.5-4.5,1.7-6.4,3.1c-0.4,0.3-2.3-2.1-1.4-2.7
		c4.2-3.1,10.2-4.7,12.2-1.7c0.3,0.4,0.8,1.2,0.5,1.8C54.1,90.5,53.2,89.4,53.2,89.3L53.2,89.3z"/>
	<path class="st5" d="M20.1,133.3c0,0,3.3-3,5.1-1.9c4.3,2.7,6-6.1,10.3-3.9c4.5,2.2,10.4-7,12-4.6c3.6,5.3,7.7-6.3,10.4-5
		c2.7,1.3,4.5-3.5,7.8-1.9c6.2,2.9,9.1-3.5,9.1-3.5"/>
	<path d="M25.9,135.3c-0.6,0.2-0.2,1.2,0.4,0.9C26.8,136,26.5,135.1,25.9,135.3z M27.4,134.1c0.6-0.2,0.2-1.2-0.4-0.9
		C26.5,133.4,26.8,134.3,27.4,134.1z M28.8,135.5c-0.6,0.2-0.2,1.2,0.4,0.9C29.7,136.2,29.4,135.3,28.8,135.5z M27.7,137.1
		c-0.6,0.2-0.2,1.2,0.4,0.9C28.6,137.8,28.3,136.9,27.7,137.1z M29.5,138.7c-0.6,0.2-0.2,1.2,0.4,0.9
		C30.4,139.4,30.1,138.5,29.5,138.7z M31.3,138.2c0.6-0.2,0.2-1.2-0.4-0.9S30.7,138.4,31.3,138.2z M31,135.7
		c-0.6,0.2-0.2,1.2,0.4,0.9C32,136.4,31.6,135.4,31,135.7z M30.4,132.8c-0.6,0.2-0.2,1.2,0.4,0.9C31.4,133.5,31,132.6,30.4,132.8z
		 M30.8,132.1c0.6-0.2,0.2-1.2-0.4-0.9C29.8,131.4,30.2,132.3,30.8,132.1z M33.2,129.8c-0.6,0.2-0.2,1.2,0.4,0.9
		C34.1,130.5,33.8,129.6,33.2,129.8z M31.5,132.8c-0.6,0.2-0.2,1.2,0.4,0.9C32.4,133.5,32.1,132.6,31.5,132.8z M32.2,134.6
		c-0.6,0.2-0.2,1.2,0.4,0.9C33.1,135.3,32.8,134.4,32.2,134.6z M34.1,138.8c0.6-0.2,0.2-1.2-0.4-0.9C33.2,138.1,33.5,139,34.1,138.8
		z M31.7,138.9c-0.6,0.2-0.2,1.2,0.4,0.9C32.7,139.6,32.3,138.7,31.7,138.9z M34.8,140.5c-0.6,0.2-0.2,1.2,0.4,0.9
		C35.8,141.3,35.4,140.3,34.8,140.5z M37.9,138.1c-0.6,0.2-0.2,1.2,0.4,0.9C38.8,138.8,38.5,137.9,37.9,138.1z M35.8,136.3
		c0.6-0.2,0.2-1.2-0.4-0.9C34.8,135.6,35.2,136.6,35.8,136.3z M35.5,137c-0.6,0.2-0.2,1.2,0.4,0.9C36.5,137.7,36.1,136.8,35.5,137z
		 M38.9,134.8c0.6-0.2,0.2-1.2-0.4-0.9C38,134.1,38.3,135,38.9,134.8z M36,132.5c0.6-0.2,0.2-1.2-0.4-0.9
		C35,131.8,35.4,132.7,36,132.5z M35.2,130.5c0.6-0.2,0.2-1.2-0.4-0.9C34.3,129.8,34.6,130.7,35.2,130.5z M38,130.3
		c-0.6,0.2-0.2,1.2,0.4,0.9C39,131,38.6,130.1,38,130.3z M36.4,134.8c0.6-0.2,0.2-1.2-0.4-0.9C35.4,134.1,35.8,135.1,36.4,134.8z
		 M41,136.1c-0.6,0.2-0.2,1.2,0.4,0.9C42,136.8,41.6,135.9,41,136.1z M39,139.6c-0.6,0.2-0.2,1.2,0.4,0.9
		C39.9,140.3,39.6,139.4,39,139.6z M37.7,140c-0.6,0.2-0.2,1.2,0.4,0.9C38.7,140.7,38.3,139.7,37.7,140z M39.6,131.1
		c0.6-0.2,0.2-1.2-0.4-0.9C38.6,130.4,39,131.4,39.6,131.1z M40.7,129.6c0.6-0.2,0.2-1.2-0.4-0.9C39.7,128.9,40.1,129.8,40.7,129.6z
		 M41.1,127.4c-0.6,0.2-0.2,1.2,0.4,0.9C42.1,128.1,41.8,127.2,41.1,127.4z M37.7,128.9c-0.6,0.2-0.2,1.2,0.4,0.9
		C38.7,129.6,38.3,128.6,37.7,128.9z M40.5,134c0.6-0.2,0.2-1.2-0.4-0.9C39.5,133.3,39.9,134.3,40.5,134z M37.8,135.4
		c-0.6,0.2-0.2,1.2,0.4,0.9C38.7,136.1,38.4,135.2,37.8,135.4z M39.9,138.6c-0.6,0.2-0.2,1.2,0.4,0.9
		C40.8,139.3,40.5,138.4,39.9,138.6z M42.6,138.7c-0.6,0.2-0.2,1.2,0.4,0.9C43.6,139.4,43.2,138.5,42.6,138.7z M43.9,134.5
		c-0.6,0.2-0.2,1.2,0.4,0.9C44.8,135.2,44.5,134.3,43.9,134.5z M43.3,134.3c0.6-0.2,0.2-1.2-0.4-0.9
		C42.3,133.6,42.7,134.5,43.3,134.3z M41.4,131.3c-0.6,0.2-0.2,1.2,0.4,0.9C42.3,132,42,131.1,41.4,131.3z M42.3,129.7
		c0.6-0.2,0.2-1.2-0.4-0.9C41.3,129,41.7,130,42.3,129.7z M42,126.8c-0.6,0.2-0.2,1.2,0.4,0.9C42.9,127.5,42.6,126.6,42,126.8z
		 M43.9,126.4c0.6-0.2,0.2-1.2-0.4-0.9C42.9,125.7,43.3,126.6,43.9,126.4z M44.6,127.5c-0.6,0.2-0.2,1.2,0.4,0.9
		S45.2,127.3,44.6,127.5z M44.3,134.4c0.6-0.2,0.2-1.2-0.4-0.9S43.7,134.6,44.3,134.4z M43,138.1c0.6-0.2,0.2-1.2-0.4-0.9
		C42.1,137.4,42.4,138.3,43,138.1z M39.6,135.2c-0.6,0.2-0.2,1.2,0.4,0.9C40.6,135.9,40.2,135,39.6,135.2z M44.4,137.6
		c-0.6,0.2-0.2,1.2,0.4,0.9C45.4,138.4,45,137.4,44.4,137.6z M43.9,139.8c-0.6,0.2-0.2,1.2,0.4,0.9
		C44.9,140.5,44.5,139.5,43.9,139.8z M47.8,135.7c-0.6,0.2-0.2,1.2,0.4,0.9C48.8,136.4,48.4,135.5,47.8,135.7z M46.2,137.1
		c0.6-0.2,0.2-1.2-0.4-0.9C45.2,136.4,45.6,137.4,46.2,137.1z M45.9,132.7c-0.6,0.2-0.2,1.2,0.4,0.9
		C46.8,133.4,46.5,132.5,45.9,132.7z M43.4,130.8c-0.6,0.2-0.2,1.2,0.4,0.9C44.3,131.5,44,130.6,43.4,130.8z M46.8,130.3
		c0.6-0.2,0.2-1.2-0.4-0.9C45.8,129.6,46.2,130.6,46.8,130.3z M45.5,132.1c0.6-0.2,0.2-1.2-0.4-0.9
		C44.6,131.4,44.9,132.3,45.5,132.1z M46.4,127c-0.6,0.2-0.2,1.2,0.4,0.9C47.4,127.7,47,126.7,46.4,127z M45.7,125.7
		c0.6-0.2,0.2-1.2-0.4-0.9C44.7,125,45.1,126,45.7,125.7z M49.8,126.2c0.6-0.2,0.2-1.2-0.4-0.9C48.9,125.5,49.2,126.4,49.8,126.2z
		 M48.8,128.9c-0.6,0.2-0.2,1.2,0.4,0.9C49.8,129.6,49.4,128.6,48.8,128.9z M47.8,132.4c0.6-0.2,0.2-1.2-0.4-0.9
		C46.9,131.7,47.2,132.6,47.8,132.4z M48.8,133.5c-0.6,0.2-0.2,1.2,0.4,0.9C49.7,134.2,49.4,133.3,48.8,133.5z M46.3,135.5
		c0.6-0.2,0.2-1.2-0.4-0.9C45.4,134.8,45.7,135.8,46.3,135.5z M48.9,135.9c-0.6,0.2-0.2,1.2,0.4,0.9
		C49.9,136.6,49.5,135.7,48.9,135.9z M47.8,138.3c-0.3,0.1-0.4,0.4-0.3,0.6c-0.1-0.2-0.3-0.4-0.6-0.3c-0.6,0.2-0.2,1.2,0.4,0.9
		c0.3-0.1,0.4-0.4,0.3-0.6c0.1,0.2,0.3,0.4,0.6,0.3C48.7,139,48.4,138.1,47.8,138.3z M50.2,138.2c-0.6,0.2-0.2,1.2,0.4,0.9
		C51.1,138.9,50.8,137.9,50.2,138.2z M51.5,135.5c-0.6,0.2-0.2,1.2,0.4,0.9C52.4,136.2,52.1,135.2,51.5,135.5z M50.3,134.5
		c-0.6,0.2-0.2,1.2,0.4,0.9C51.3,135.2,50.9,134.3,50.3,134.5z M51.7,132.7c-0.6,0.2-0.2,1.2,0.4,0.9
		C52.6,133.4,52.3,132.4,51.7,132.7z M49.9,131.8c-0.6,0.2-0.2,1.2,0.4,0.9C50.9,132.5,50.5,131.6,49.9,131.8z M48.5,128.4
		c0.6-0.2,0.2-1.2-0.4-0.9C47.5,127.7,47.9,128.6,48.5,128.4z M51.1,127.2c-0.3-0.4-1,0.2-0.7,0.7c0.1,0.2,0.4,0.3,0.6,0.3
		C51.5,128.2,51.5,127.4,51.1,127.2z M52.8,125.6c0.6-0.2,0.2-1.2-0.4-0.9C51.9,124.9,52.2,125.8,52.8,125.6z M53,123.4
		c-0.6,0.2-0.2,1.2,0.4,0.9C54,124.1,53.6,123.2,53,123.4z M55.1,122.8c0.6-0.2,0.2-1.2-0.4-0.9C54.2,122.1,54.5,123,55.1,122.8z
		 M55.2,127.1c0.6-0.2,0.2-1.2-0.4-0.9C54.3,126.4,54.6,127.3,55.2,127.1z M51.4,130.9c0.6-0.2,0.2-1.2-0.4-0.9
		C50.4,130.2,50.8,131.1,51.4,130.9z M53,131.1c-0.6,0.2-0.2,1.2,0.4,0.9C54,131.8,53.6,130.9,53,131.1z M53.4,134.1
		c-0.6,0.2-0.2,1.2,0.4,0.9C54.3,134.8,54,133.9,53.4,134.1z M52.6,136.8c-0.6,0.2-0.2,1.2,0.4,0.9
		C53.6,137.5,53.2,136.6,52.6,136.8z M55.4,135.5c-0.6,0.2-0.2,1.2,0.4,0.9C56.3,136.2,56,135.3,55.4,135.5z M58.1,132.7
		c-0.6,0.2-0.2,1.2,0.4,0.9C59.1,133.4,58.7,132.4,58.1,132.7z M56.5,131.9c0.6-0.2,0.2-1.2-0.4-0.9
		C55.6,131.2,55.9,132.1,56.5,131.9z M52.7,127.8c-0.6,0.2-0.2,1.2,0.4,0.9C53.6,128.5,53.3,127.6,52.7,127.8z M56.3,125.8
		c0.6-0.2,0.2-1.2-0.4-0.9C55.3,125.1,55.7,126,56.3,125.8z M55.6,122.8c-0.6,0.2-0.2,1.2,0.4,0.9C56.6,123.5,56.2,122.5,55.6,122.8
		z M56.5,119.9c0.6-0.2,0.2-1.2-0.4-0.9C55.5,119.2,55.9,120.1,56.5,119.9z M59.2,121.3c0.6-0.2,0.2-1.2-0.4-0.9
		C58.3,120.6,58.6,121.5,59.2,121.3z M58.1,123.8c-0.6,0.2-0.2,1.2,0.4,0.9C59,124.5,58.7,123.5,58.1,123.8z M54.7,130.1
		c0.6-0.2,0.2-1.2-0.4-0.9C53.8,129.4,54.1,130.4,54.7,130.1z M56.7,129.9c-0.6,0.2-0.2,1.2,0.4,0.9
		C57.6,130.6,57.3,129.6,56.7,129.9z M56.7,129.5c0.6-0.2,0.2-1.2-0.4-0.9C55.7,128.8,56.1,129.7,56.7,129.5z M58.8,131
		c-0.6,0.2-0.2,1.2,0.4,0.9C59.7,131.7,59.4,130.8,58.8,131z M55.6,132.7c-0.6,0.2-0.2,1.2,0.4,0.9
		C56.5,133.4,56.2,132.5,55.6,132.7z M58,135.1c-0.6,0.2-0.2,1.2,0.4,0.9C59,135.9,58.6,134.9,58,135.1z M60.3,133.4
		c-0.6,0.2-0.2,1.2,0.4,0.9S60.9,133.1,60.3,133.4z M60.1,131.5c-0.6,0.2-0.2,1.2,0.4,0.9C61.1,132.2,60.7,131.3,60.1,131.5z
		 M60.4,129.5c-0.6,0.2-0.2,1.2,0.4,0.9C61.4,130.2,61,129.2,60.4,129.5z M59.5,127.1c-0.6,0.2-0.2,1.2,0.4,0.9
		C60.4,127.8,60.1,126.9,59.5,127.1z M59.7,125.7c-0.6,0.2-0.2,1.2,0.4,0.9C60.7,126.4,60.3,125.5,59.7,125.7z M59.5,123.2
		c-0.6,0.2-0.2,1.2,0.4,0.9C60.5,123.9,60.2,123,59.5,123.2z M60,122c0.6-0.2,0.2-1.2-0.4-0.9C59,121.3,59.4,122.3,60,122z
		 M60.7,120.2c0.6-0.2,0.2-1.2-0.4-0.9S60.1,120.5,60.7,120.2z M62.1,118.7c0.6-0.2,0.2-1.2-0.4-0.9C61.1,118,61.5,118.9,62.1,118.7
		z M63,121.4c0.6-0.2,0.2-1.2-0.4-0.9C62,120.7,62.4,121.6,63,121.4z M61.9,123.5c0.6-0.2,0.2-1.2-0.4-0.9
		C60.9,122.8,61.3,123.8,61.9,123.5z M61.7,126.2c0.6-0.2,0.2-1.2-0.4-0.9C60.8,125.5,61.1,126.4,61.7,126.2z M62.5,128.3
		c0.6-0.2,0.2-1.2-0.4-0.9C61.6,127.6,61.9,128.5,62.5,128.3z M62.3,130.8c-0.6,0.2-0.2,1.2,0.4,0.9
		C63.3,131.5,62.9,130.6,62.3,130.8z M64.3,131.6c-0.6,0.2-0.2,1.2,0.4,0.9C65.3,132.3,64.9,131.4,64.3,131.6z M63,129.1
		c-0.6,0.2-0.2,1.2,0.4,0.9C63.9,129.8,63.6,128.9,63,129.1z M65.3,125.9c-0.6,0.2-0.2,1.2,0.4,0.9C66.3,126.6,66,125.7,65.3,125.9z
		 M64.4,126.2c0.6-0.2,0.2-1.2-0.4-0.9C63.5,125.5,63.8,126.4,64.4,126.2z M63.9,128.6c-0.6,0.2-0.2,1.2,0.4,0.9
		C64.9,129.3,64.5,128.4,63.9,128.6z M66.4,128.7c-0.6,0.2-0.2,1.2,0.4,0.9C67.4,129.4,67,128.5,66.4,128.7z M68.3,124.9
		c-0.6,0.2-0.2,1.2,0.4,0.9C69.3,125.6,68.9,124.7,68.3,124.9z M64.6,123.6c-0.6,0.2-0.2,1.2,0.4,0.9
		C65.6,124.3,65.2,123.4,64.6,123.6z M65,121.3c0.6-0.2,0.2-1.2-0.4-0.9C64,120.6,64.4,121.5,65,121.3z M64,118.6
		c0.6-0.2,0.2-1.2-0.4-0.9C63,117.9,63.4,118.8,64,118.6z M62.6,124c-0.6,0.2-0.2,1.2,0.4,0.9C63.5,124.7,63.2,123.8,62.6,124z
		 M63.1,123.3c0.6-0.2,0.2-1.2-0.4-0.9C62.1,122.6,62.5,123.6,63.1,123.3z M65.4,122.3c-0.6,0.2-0.2,1.2,0.4,0.9
		C66.3,123,66,122,65.4,122.3z M66,119.6c-0.6,0.2-0.2,1.2,0.4,0.9C67,120.3,66.6,119.3,66,119.6z M65.2,118.2
		c-0.6,0.2-0.2,1.2,0.4,0.9C66.2,118.9,65.8,118,65.2,118.2z M67.4,119.5c0.6-0.2,0.2-1.2-0.4-0.9C66.4,118.8,66.8,119.7,67.4,119.5
		z M70.1,119.2c0.6-0.2,0.2-1.2-0.4-0.9C69.2,118.5,69.5,119.4,70.1,119.2z M71.5,116.7c-0.6,0.2-0.2,1.2,0.4,0.9
		C72.5,117.4,72.1,116.5,71.5,116.7z M73,115.6c-0.6,0.2-0.2,1.2,0.4,0.9C74,116.3,73.6,115.4,73,115.6z M73.6,117.5
		c-0.6,0.2-0.2,1.2,0.4,0.9C74.6,118.2,74.2,117.2,73.6,117.5z M69,123c0.6-0.2,0.2-1.2-0.4-0.9C68.1,122.3,68.4,123.2,69,123z
		 M66.2,123.4c-0.6,0.2-0.2,1.2,0.4,0.9C67.2,124.1,66.8,123.2,66.2,123.4z M67,125.9c-0.6,0.2-0.2,1.2,0.4,0.9
		C68,126.6,67.6,125.7,67,125.9z M67.5,127.1c-0.6,0.2-0.2,1.2,0.4,0.9C68.5,127.8,68.1,126.9,67.5,127.1z M70.1,125.2
		c-0.6,0.2-0.2,1.2,0.4,0.9C71.1,125.9,70.7,125,70.1,125.2z M71.6,122c-0.6,0.2-0.2,1.2,0.4,0.9S72.2,121.7,71.6,122z M71.2,124.2
		c-0.6,0.2-0.2,1.2,0.4,0.9C72.1,124.9,71.8,124,71.2,124.2z M72.9,120.7c-0.6,0.2-0.2,1.2,0.4,0.9
		C73.9,121.4,73.5,120.5,72.9,120.7z M71.6,119.4c-0.6,0.2-0.2,1.2,0.4,0.9C72.6,120.1,72.2,119.1,71.6,119.4z M70.6,120.1
		c-0.6,0.2-0.2,1.2,0.4,0.9C71.6,120.8,71.2,119.9,70.6,120.1z M69.1,123.7c-0.6,0.2-0.2,1.2,0.4,0.9
		C70.1,124.4,69.7,123.4,69.1,123.7z M68.5,120.2c-0.6,0.2-0.2,1.2,0.4,0.9C69.4,120.9,69.1,120,68.5,120.2z M19.7,130.3
		c-0.6,0.2-0.2,1.2,0.4,0.9C20.6,131,20.3,130.1,19.7,130.3z M22.8,129.4c0.6-0.2,0.2-1.2-0.4-0.9C21.9,128.7,22.2,129.7,22.8,129.4
		z M24.4,129.2c0.6-0.2,0.2-1.2-0.4-0.9C23.5,128.5,23.8,129.4,24.4,129.2z M27,128.2c0.6-0.2,0.2-1.2-0.4-0.9
		C26,127.5,26.4,128.4,27,128.2z M28,127.7c0.6-0.2,0.2-1.2-0.4-0.9C27,127,27.4,127.9,28,127.7z M29,127.3c0.6-0.2,0.2-1.2-0.4-0.9
		C28,126.6,28.4,127.6,29,127.3z M31.6,126c0.6-0.2,0.2-1.2-0.4-0.9C30.6,125.3,31,126.2,31.6,126z M33.2,125.3
		c0.6-0.2,0.2-1.2-0.4-0.9C32.3,124.6,32.6,125.5,33.2,125.3z M36.4,124.1c0.6-0.2,0.2-1.2-0.4-0.9
		C35.4,123.4,35.8,124.3,36.4,124.1z M37.4,123.7c0.6-0.2,0.2-1.2-0.4-0.9C36.5,123,36.8,123.9,37.4,123.7z M39.5,123.4
		c0.6-0.2,0.2-1.2-0.4-0.9C38.5,122.7,38.9,123.7,39.5,123.4z M40.7,122.5c0.6-0.2,0.2-1.2-0.4-0.9S40.1,122.7,40.7,122.5z
		 M42.7,121.7c0.6-0.2,0.2-1.2-0.4-0.9C41.7,121,42.1,121.9,42.7,121.7z M45.5,121.5c0.6-0.2,0.2-1.2-0.4-0.9
		C44.5,120.8,44.9,121.8,45.5,121.5z M49.5,120c0.6-0.2,0.2-1.2-0.4-0.9C48.6,119.3,48.9,120.2,49.5,120z M46.8,120
		c0.6-0.2,0.2-1.2-0.4-0.9C45.9,119.3,46.2,120.2,46.8,120z M50.4,118.6c0.6-0.2,0.2-1.2-0.4-0.9C49.5,117.9,49.8,118.8,50.4,118.6z
		 M53.8,117.3c0.6-0.2,0.2-1.2-0.4-0.9C52.8,116.6,53.2,117.5,53.8,117.3z M56.6,116.2c0.6-0.2,0.2-1.2-0.4-0.9S56,116.5,56.6,116.2
		z M59.5,115.5c0.6-0.2,0.2-1.2-0.4-0.9C58.5,114.8,58.9,115.8,59.5,115.5z M64.6,114.8c0.6-0.2,0.2-1.2-0.4-0.9
		C63.6,114,64,115,64.6,114.8z M67.8,113.5c0.6-0.2,0.2-1.2-0.4-0.9C66.9,112.8,67.2,113.7,67.8,113.5z M70,112.7
		c0.6-0.2,0.2-1.2-0.4-0.9C69,112,69.4,112.9,70,112.7z M71.3,112.4c0.6-0.2,0.2-1.2-0.4-0.9C70.3,111.7,70.7,112.7,71.3,112.4z
		 M72.7,111.7c-0.6,0.2-0.2,1.2,0.4,0.9C73.7,112.4,73.3,111.5,72.7,111.7z M71,113.9c-0.6,0.2-0.2,1.2,0.4,0.9
		C71.9,114.6,71.6,113.7,71,113.9z M68.3,114.7c0.6-0.2,0.2-1.2-0.4-0.9C67.3,114,67.7,115,68.3,114.7z M69.5,115.8
		c0.6-0.2,0.2-1.2-0.4-0.9C68.5,115.1,68.9,116.1,69.5,115.8z M61.3,115.7c0.6-0.2,0.2-1.2-0.4-0.9C60.4,115,60.7,116,61.3,115.7z
		 M59.6,117.4c0.6-0.2,0.2-1.2-0.4-0.9S59,117.6,59.6,117.4z M56.2,117.8c0.6-0.2,0.2-1.2-0.4-0.9C55.2,117.1,55.6,118.1,56.2,117.8
		z M51.8,118.9c0.6-0.2,0.2-1.2-0.4-0.9C50.9,118.2,51.2,119.1,51.8,118.9z M50.3,121.4c0.6-0.2,0.2-1.2-0.4-0.9
		C49.4,120.7,49.7,121.6,50.3,121.4z M48.8,121.8c0.6-0.2,0.2-1.2-0.4-0.9C47.9,121.1,48.2,122,48.8,121.8z M50.5,122.8
		c0.6-0.2,0.2-1.2-0.4-0.9C49.5,122.1,49.9,123.1,50.5,122.8z M51.4,120.1c-0.6,0.2-0.2,1.2,0.4,0.9C52.4,120.8,52,119.9,51.4,120.1
		z M53.8,119.4c0.6-0.2,0.2-1.2-0.4-0.9C52.9,118.7,53.2,119.6,53.8,119.4z M40.2,124.5c0.6-0.2,0.2-1.2-0.4-0.9
		C39.2,123.8,39.6,124.7,40.2,124.5z M38.7,125.8c0.6-0.2,0.2-1.2-0.4-0.9C37.8,125.1,38.1,126,38.7,125.8z M36.3,126.1
		c0.6-0.2,0.2-1.2-0.4-0.9C35.3,125.4,35.7,126.3,36.3,126.1z M41.5,125.8c0.6-0.2,0.2-1.2-0.4-0.9C40.6,125,40.9,126,41.5,125.8z
		 M42.9,123.3c0.6-0.2,0.2-1.2-0.4-0.9C42,122.6,42.3,123.5,42.9,123.3z M45.1,122.8c0.6-0.2,0.2-1.2-0.4-0.9
		C44.1,122.1,44.5,123.1,45.1,122.8z M21.8,130.8c0.6-0.2,0.2-1.2-0.4-0.9C20.9,130.1,21.2,131.1,21.8,130.8z M27,129.9
		c-0.6,0.2-0.2,1.2,0.4,0.9C27.9,130.6,27.6,129.6,27,129.9z M26,129.6c0.6-0.2,0.2-1.2-0.4-0.9C25,128.9,25.4,129.9,26,129.6z
		 M28.4,129.6c0.6-0.2,0.2-1.2-0.4-0.9C27.5,128.9,27.8,129.8,28.4,129.6z M35.2,125.6c0.6-0.2,0.2-1.2-0.4-0.9
		C34.2,124.9,34.6,125.8,35.2,125.6z M31.6,127.4c0.6-0.2,0.2-1.2-0.4-0.9C30.6,126.7,31,127.6,31.6,127.4z M29.8,128.7
		c0.6-0.2,0.2-1.2-0.4-0.9C28.8,128,29.2,128.9,29.8,128.7z M37.5,133.5c0.6-0.2,0.2-1.2-0.4-0.9C36.6,132.8,36.9,133.7,37.5,133.5z
		 M23.2,135.4c-0.6,0.2-0.2,1.2,0.4,0.9C24.1,136.2,23.8,135.2,23.2,135.4z M23.5,133c-0.6,0.2-0.2,1.2,0.4,0.9
		C24.5,133.7,24.1,132.8,23.5,133z M25.2,134.2c-0.6,0.2-0.2,1.2,0.4,0.9C26.1,134.9,25.8,133.9,25.2,134.2z M24.8,137.3
		c-0.6,0.2-0.2,1.2,0.4,0.9C25.8,138,25.4,137.1,24.8,137.3z M28.5,133.9c-0.6,0.2-0.2,1.2,0.4,0.9
		C29.5,134.6,29.1,133.7,28.5,133.9z M33.1,132c0.6-0.2,0.2-1.2-0.4-0.9C32.1,131.3,32.5,132.2,33.1,132z M62.6,114.2
		c0.6-0.2,0.2-1.2-0.4-0.9C61.6,113.5,62,114.5,62.6,114.2z M64.9,112.9c0.6-0.2,0.2-1.2-0.4-0.9C64,112.2,64.3,113.2,64.9,112.9z
		 M67.3,112c0.6-0.2,0.2-1.2-0.4-0.9C66.3,111.3,66.7,112.3,67.3,112z M69.9,111.7c0.6-0.2,0.2-1.2-0.4-0.9
		C68.9,111,69.3,111.9,69.9,111.7z M33.9,133.3c-0.6,0.2-0.2,1.2,0.4,0.9C34.9,134,34.5,133,33.9,133.3z M32.6,136.1
		c-0.6,0.2-0.2,1.2,0.4,0.9C33.6,136.9,33.2,135.9,32.6,136.1z M44.4,130.3c0.6-0.2,0.2-1.2-0.4-0.9
		C43.4,129.6,43.8,130.6,44.4,130.3z M47.5,125.8c0.6-0.2,0.2-1.2-0.4-0.9C46.5,125.1,46.9,126,47.5,125.8z M65.1,127.7
		c-0.6,0.2-0.2,1.2,0.4,0.9C66.1,128.4,65.7,127.4,65.1,127.7z M56.9,133.8c-0.6,0.2-0.2,1.2,0.4,0.9
		C57.9,134.5,57.5,133.6,56.9,133.8z M35.3,139.2c-0.6,0.2-0.2,1.2,0.4,0.9C36.3,139.9,35.9,138.9,35.3,139.2z M39.1,137.6
		c0.6-0.2,0.2-1.2-0.4-0.9C38.1,136.9,38.5,137.8,39.1,137.6z M57.4,122.2c0.6-0.2,0.2-1.2-0.4-0.9
		C56.4,121.5,56.8,122.4,57.4,122.2z M66.2,113.7c-0.6,0.2-0.2,1.2,0.4,0.9C67.2,114.4,66.8,113.5,66.2,113.7z M23.4,130.2
		c-0.6,0.2-0.2,1.2,0.4,0.9C24.4,130.9,24,130,23.4,130.2z M57.8,128.1c0.6-0.2,0.2-1.2-0.4-0.9C56.8,127.4,57.2,128.3,57.8,128.1z"
		/>
</g>
<g>
	<path class="st6" d="M155.5,87.8c0.1-2.3-1.8-3.3-3.8-3.1c0-0.1-0.1-0.2-0.2-0.3c-3.4-2.9-6.4,3-6.8,5.8c-0.4,2.8-2.7,14.3,3,13.8
		c1.8-0.2,3.6-4.5,4.3-5.7C153.5,95.2,155.3,91.3,155.5,87.8z"/>
	<path class="st6" d="M207,107.1l1.4-1.9c-0.5-0.7-1.2-1.1-2.4-1.1c-0.1,0-0.3,0-0.4,0.1c-1.5-1.4-3.5-1.9-4.9,0
		c-2.1,2.8-3.2,6.9-3.9,10.3c-0.3,1.4-1.6,5.9-0.4,7.1c4,4.1,9.6-6.2,11.1-8.7c0.9-1.4,1.7-4.1,1.4-6.2L207,107.1L207,107.1z"/>
	<path d="M197.4,122.9c-0.5-0.2-0.9-0.5-1.4-0.9c-1.2-1.2-0.6-4.2,0.1-6.9c0.1-0.3,0.1-0.5,0.2-0.7c1-4.8,2.3-8.2,4-10.5
		c1-1.3,2.4-1.7,3.9-1.2c0.5,0.2,1.1,0.5,1.6,1c0.1,0,0.1,0,0.2,0c1.2,0,2.2,0.4,2.8,1.3l0.2,0.3l-0.9,1.2l1.3-0.2l0.1,0.5
		c0.3,2.1-0.5,4.9-1.5,6.5l-0.4,0.6C205.7,117,201.4,124.3,197.4,122.9L197.4,122.9z M203.8,103.6c-0.7-0.3-1.8-0.3-2.7,0.9
		c-1.6,2.2-2.9,5.5-3.8,10.1c0,0.2-0.1,0.4-0.2,0.7c-0.4,1.5-1.2,5-0.4,5.9c0.3,0.3,0.6,0.5,1,0.7c3.2,1.1,7.5-6.2,9-8.6l0.4-0.6
		c0.8-1.3,1.5-3.5,1.4-5.3l-2.6,0.5l1.8-2.6c-0.4-0.4-1-0.6-1.7-0.6c-0.1,0-0.1,0-0.2,0l-0.3,0.1l-0.2-0.2
		C204.8,104.1,204.3,103.8,203.8,103.6L203.8,103.6z"/>
	<polyline class="st1" points="169.1,75.2 172.1,69.9 172.5,72.3 176.7,70.4 175.8,73.5 178.4,72.9 177.3,75.4 	"/>
	<polyline class="st1" points="199.6,86 209.4,90.4 204.8,89.7 213.6,96.3 207.6,95.3 213.1,104.2 204.6,97.1 	"/>
	<path class="st1" d="M203.3,110.4c5.2-14.4-2.6-30.4-17.4-35.7c-14.8-5.4-30.6,0.8-36.2,16.3c-10.5,28.9,2.6,30.4,17.4,35.7
		C181.9,132,192.9,139.2,203.3,110.4z"/>
	<path class="st7" d="M151.2,101.6c-4.8,13.3,1.2,27.8,13.4,32.2c12.2,4.4,26.1-2.8,30.9-16.1c4.8-13.3,10.8-30.3-13.2-33
		C159.2,70.3,156,88.2,151.2,101.6L151.2,101.6z"/>
	
		<ellipse transform="matrix(0.3409 -0.9401 0.9401 0.3409 -5.0352 239.5019)" class="st7" cx="168.3" cy="123.3" rx="17.5" ry="29.2"/>
	<path d="M146.4,102.9c0,0-0.5-0.1-1-0.7c-0.7-0.9-1.5-3.1-0.7-8.1c0.2-2.1,0.5-3.8,0.9-5.1c0.1-0.3,0.2-0.5,0.2-0.7
		c0.8-2.3,1.8-3.3,2.7-3.7c1.4-0.6,2.8,0.2,3.5,0.6c0.2,0.1,0.3,0.2,0.3,0.3l0.6-0.8c-0.1-0.1-2.4-2-4.8-1c-2.1,0.9-3.5,3.7-4.1,8.3
		c-0.1,0.7-0.2,1.4-0.2,2.1c-0.7,4.3-0.4,7.2,0.9,8.8c0.4,0.6,0.9,0.8,1.2,0.9c0.2,0.1,0.4,0.1,0.4,0.1L146.4,102.9L146.4,102.9z"/>
	<path d="M162.3,86.8c-0.3,0.5,0.7,0,1.2-0.1c0.8-0.1,1.7,0,2.6,0.2c2.3,0.4,4.5,1.6,6.5,3c0.4,0.3,2.3-2.1,1.4-2.7
		c-4.3-3-10.2-4.6-12.2-1.5c-0.3,0.4-0.8,1.2-0.5,1.9C161.4,88,162.3,86.9,162.3,86.8L162.3,86.8z"/>
	<path d="M195.6,98.9c-0.1,0.6-0.5-0.5-0.8-0.8c-0.6-0.6-1.3-1.1-2.1-1.5c-2-1.1-4.5-1.7-6.9-1.9c-0.5,0-0.4-3.1,0.7-3
		c5.2,0.5,10.8,3.1,10.4,6.7c-0.1,0.5-0.1,1.5-0.8,1.8C195.5,100.3,195.6,99,195.6,98.9L195.6,98.9z"/>
	<path class="st5" d="M140.8,113.4c0,0,4.5-0.2,5.1,1.8c1.5,4.9,8.5-0.7,10.3,3.7c1.9,4.6,12.5,1.5,12.1,4.4c-0.7,6.4,10,0.3,11.1,3
		c1.2,2.7,5.6,0.3,7.1,3.6c2.8,6.2,9.1,3.3,9.1,3.3"/>
	<ellipse transform="matrix(0.3409 -0.9401 0.9401 0.3409 19.5401 219.1228)" class="st8" cx="166" cy="95.6" rx="8.5" ry="6.7"/>
	
		<ellipse transform="matrix(0.3409 -0.9401 0.9401 0.3409 26.4202 244.6177)" class="st8" cx="187.7" cy="103.5" rx="8.5" ry="6.7"/>
	<ellipse transform="matrix(0.3409 -0.9401 0.9401 0.3409 19.0642 218.9897)" cx="165.7" cy="95.9" rx="6.8" ry="4.4"/>
	<ellipse transform="matrix(0.3409 -0.9401 0.9401 0.3409 25.9442 244.4846)" cx="187.3" cy="103.7" rx="6.8" ry="4.4"/>
</g>
<g>
	<path class="st0" d="M91,111.1c0.2,1.4,0.5,6.1,2.1,6.8c5.1,2.5,6.9-9.1,7.5-11.9c0.6-2.8-0.2-9.3-4.4-7.7
		c-0.1,0.1-0.2,0.1-0.3,0.2c-1.8-0.8-4-0.6-4.6,1.7C90.2,103.4,90.6,107.7,91,111.1L91,111.1z"/>
	<path class="st0" d="M43.1,100.1c-0.7-2.3-2.8-2.5-4.6-1.7c-0.1-0.1-0.2-0.1-0.3-0.2c-4.2-1.6-5,5-4.4,7.7
		c0.6,2.8,2.4,14.4,7.5,11.9c1.6-0.8,1.9-5.4,2.1-6.8C43.8,107.7,44.1,103.4,43.1,100.1L43.1,100.1z"/>
	<path class="st1" d="M95.7,105c0-15.3-12.8-27.7-28.5-27.7c-15.7,0-28.5,11.2-28.5,27.7c0,30.7,12.8,27.7,28.5,27.7
		C83,132.7,95.7,135.7,95.7,105z"/>
	<path class="st2" d="M43.8,114.5c0,14.2,10.6,25.7,23.6,25.7c13,0,23.6-11.5,23.6-25.7S90.8,82.4,67.2,88
		C40.5,82.4,43.8,100.3,43.8,114.5L43.8,114.5z"/>
	<ellipse class="st8" cx="55.8" cy="106.9" rx="6.7" ry="8.5"/>
	<ellipse class="st8" cx="78.8" cy="106.9" rx="6.7" ry="8.5"/>
	<ellipse class="st9" cx="56.2" cy="109.8" rx="2.7" ry="4.2"/>
	<ellipse class="st9" cx="78.2" cy="109.8" rx="2.7" ry="4.2"/>
	<ellipse class="st4" cx="67.2" cy="129.2" rx="29.2" ry="17.5"/>
	<path d="M39.6,117.4c0,0-0.5,0.1-1.1-0.3c-1-0.6-2.4-2.4-3.4-7.4c-0.6-2.1-0.9-3.8-1-5.1c0-0.3,0-0.5,0-0.8
		c-0.1-2.5,0.6-3.7,1.3-4.4c1.1-1,2.7-0.8,3.5-0.6c0.2,0.1,0.4,0.1,0.4,0.1l0.4-0.9c-0.1,0-3-1.1-4.9,0.7c-1.7,1.5-2,4.6-1.1,9.2
		c0.1,0.7,0.3,1.3,0.5,2c0.8,4.2,2.1,6.9,3.8,8c0.6,0.4,1.1,0.5,1.5,0.5c0.2,0,0.4,0,0.4-0.1L39.6,117.4L39.6,117.4z"/>
	<path d="M99.7,98.7c-1.9-1.8-4.8-0.7-4.9-0.7l0.3,0.9c0,0,2.4-0.9,3.9,0.5c0.1,0.1,0.1,0.1,0.2,0.2c0.9,1.1,1.6,3.5,0.4,8.9
		c-0.1,0.4-0.2,0.8-0.3,1.2c0,0,0,0,0,0c-0.9,4.9-2.3,6.7-3.3,7.3c-0.7,0.4-1.2,0.3-1.2,0.3l-0.3,1c0,0,0.2,0.1,0.4,0.1
		c0.3,0,0.9-0.1,1.5-0.5c1.7-1.1,3-3.8,3.8-8C101.8,104.2,101.6,100.4,99.7,98.7L99.7,98.7z"/>
	<path d="M48.8,98.3c0,0.6,0.5-0.4,0.9-0.8c0.6-0.5,1.4-1,2.2-1.4c2.1-1,4.6-1.4,7-1.4c0.5,0,0.6-3.1-0.5-3c-5.2,0.1-11,2.3-10.8,6
		c0,0.5,0,1.5,0.7,1.8C48.7,99.7,48.8,98.3,48.8,98.3L48.8,98.3z"/>
	<path d="M86,98.3c0,0.6-0.5-0.4-0.9-0.8c-0.6-0.5-1.4-1-2.2-1.4c-2.1-1-4.6-1.4-7-1.4c-0.5,0-0.6-3.1,0.5-3c5.2,0.1,11,2.3,10.8,6
		c0,0.5,0,1.5-0.7,1.8C86.1,99.7,86,98.3,86,98.3L86,98.3z"/>
	<line class="st5" x1="38" y1="128.8" x2="96.5" y2="128.8"/>
	<ellipse class="st10" cx="55.9" cy="106.2" rx="9.7" ry="9.2"/>
	<line class="st11" x1="46.4" y1="104.4" x2="38.7" y2="97.5"/>
	<ellipse class="st10" cx="78.4" cy="106.2" rx="9.7" ry="9.2"/>
	<line class="st11" x1="88" y1="104.4" x2="95.6" y2="97.5"/>
	<path class="st12" d="M66,106.2c0,0,1.4-0.8,2.4,0"/>
</g>
<g>
	<path d="M129.8,133.9c-1.3-0.1-2.7-0.3-4-0.6c-0.6-0.2-1.2-0.5-1.8-0.7c-2.1-0.8-3.9-2.1-6-2.8c-0.7-0.2-2.3,0.7-1.2,1.1
		c1.9,0.6,3.5,1.9,5.4,2.6c0.1,0.1,0.3,0.1,0.4,0.2c-0.1,0.2,0,0.3,0.4,0.4c0.2,0,0.4,0.1,0.6,0.1c0.7,0.5,1.6,0.5,2.3,0.9
		c0.2,0.1,0.4,0.1,0.7,0c0.9,0.4,1.8,0.8,2.7,1.2c0.5,0.2,1.9,0,1.7-0.7C130.8,134.9,130.6,134,129.8,133.9z M164.1,129.6
		c-0.3-0.4-0.9-0.2-1.3-0.1c0,0,0,0,0,0c-0.3,0.1-0.8,0.3-0.8,0.7c-0.1,0-0.3,0.1-0.4,0.2c-0.5,0.2-1,0.4-1.4,0.8
		c-0.3,0-0.8,0.1-1.1,0.3c-0.4,0-0.9,0.2-1.1,0.4c-0.1,0-0.2,0-0.2,0c-0.8,0-1.6,0.3-2.4,0.6c-0.2,0.1-0.3,0.2-0.4,0.3
		c-0.7,0.1-1.5,0.4-2.2,0.4c-0.3,0-0.6,0.1-0.8,0.3c-0.5-0.1-1.1-0.1-1.4,0c-0.4,0.1-0.7,0.3-0.9,0.7c-0.2,0.4,0.2,0.7,0.2,1.1
		c0.1,1.1,1.4,0.7,2.1,0.4c1.1-0.5,2.3-0.8,3.4-1.3c0.1-0.1,0.3-0.2,0.4-0.3c0.4,0.1,0.7,0,1.1-0.1c0.6-0.2,1.2-0.4,1.7-0.8
		c0.1-0.1,0.2-0.2,0.2-0.3c0,0,0,0,0,0c0.1,0,0.3-0.1,0.4-0.3c0.4-0.1,0.8-0.2,1-0.4c0.4-0.2,0.9-0.4,1.4-0.7
		c0.5-0.3,0.9-0.5,1.4-0.8c0,0,0.1,0,0.1-0.1c0.1,0,0.2,0,0.3,0c0.2,0,0.3-0.1,0.5-0.2C163.9,130.3,164.4,129.9,164.1,129.6
		L164.1,129.6z"/>
	<path class="st0" d="M163.9,111.6c0.2,1.4,0.5,6.1,2.1,6.8c5.1,2.5,6.9-9.1,7.5-11.9c0.6-2.8-0.2-9.3-4.4-7.8
		c-0.1,0.1-0.2,0.1-0.3,0.2c-1.8-0.8-4-0.6-4.6,1.7C163.1,103.9,163.4,108.2,163.9,111.6L163.9,111.6z"/>
	<path class="st0" d="M116,100.6c-0.7-2.2-2.8-2.5-4.6-1.7c-0.1-0.1-0.2-0.1-0.3-0.2c-4.2-1.6-5,5-4.4,7.8
		c0.6,2.8,2.4,14.4,7.5,11.9c1.6-0.8,1.9-5.4,2.1-6.8C116.7,108.2,117,103.9,116,100.6z"/>
	<path class="st1" d="M168.6,105.5c0-15.3-12.8-27.7-28.5-27.7c-15.7,0-28.5,11.2-28.5,27.7c0,30.7,12.8,27.7,28.5,27.7
		C155.9,133.1,168.6,136.2,168.6,105.5z"/>
	<path class="st2" d="M116.6,115c0,14.2,10.6,25.7,23.6,25.7c13,0,23.6-11.5,23.6-25.7c0-14.2-0.1-32.2-23.7-26.6
		C113.4,82.9,116.6,100.8,116.6,115z"/>
	<ellipse class="st8" cx="128.7" cy="107.4" rx="6.7" ry="8.5"/>
	<ellipse class="st8" cx="151.7" cy="107.4" rx="6.7" ry="8.5"/>
	<ellipse cx="129.1" cy="110.3" rx="2.7" ry="4.2"/>
	<ellipse cx="151.1" cy="110.3" rx="2.7" ry="4.2"/>
	<ellipse class="st4" cx="140.1" cy="129.6" rx="29.2" ry="17.5"/>
	<path class="st13" d="M111,126.6c29.1,17.5,58.2,0,58.2,0"/>
	<path class="st14" d="M111.2,126.6c29,24.9,57.8,0,57.8,0"/>
	<path class="st15" d="M139.1,151.7c-4.6,0-8.7,0-8.7-12.5c0-1.6,0.1-3.1,0.2-4.4c2.7,0.4,5.5,0.6,8.3,0.6c3.5,0,7.1-0.3,10.7-0.9
		c0.2,1.4,0.2,3,0.2,4.7c0,5.6-0.8,9.1-2.4,10.8c-1.4,1.5-3.5,1.7-5.8,1.7L139.1,151.7L139.1,151.7z"/>
	<path d="M149.2,135c0.1,1.2,0.2,2.6,0.2,4.2c0,12-3.4,12-7.7,12l-0.7,0l-0.8,0l-0.5,0l-0.5,0c-4.6,0-8.2,0-8.2-12
		c0-1.4,0.1-2.7,0.2-3.8c2.6,0.4,5.2,0.5,7.8,0.5C142.3,135.9,145.8,135.6,149.2,135 M150.1,133.9c-3.4,0.6-7.2,1-11.1,1
		c-2.8,0-5.7-0.2-8.7-0.7c-0.2,1.4-0.3,3-0.3,5c0,12.6,4,13,9.2,13c0.3,0,0.7,0,1,0c0.5,0,1,0,1.5,0c4.9,0,8.7-0.6,8.7-13
		C150.4,137.1,150.3,135.3,150.1,133.9L150.1,133.9z"/>
	<path d="M112.5,117.9c0,0-0.5,0.1-1.1-0.3c-1-0.6-2.4-2.4-3.4-7.4c-0.6-2.1-0.9-3.8-1-5.1c0-0.3,0-0.5,0-0.8
		c-0.1-2.5,0.6-3.7,1.3-4.4c1.1-1,2.7-0.8,3.5-0.6c0.2,0.1,0.4,0.1,0.4,0.1l0.4-0.9c-0.1,0-3-1.1-4.9,0.7c-1.7,1.5-2,4.6-1.1,9.2
		c0.1,0.7,0.3,1.3,0.5,2c0.8,4.3,2.1,6.9,3.8,8c0.6,0.4,1.1,0.5,1.5,0.5c0.2,0,0.4,0,0.4-0.1L112.5,117.9L112.5,117.9z"/>
	<path d="M172.6,99.2c-1.9-1.8-4.8-0.7-4.9-0.7l0.3,0.9c0,0,2.4-0.9,3.9,0.5c0.1,0.1,0.1,0.1,0.2,0.2c0.9,1.1,1.6,3.5,0.4,8.9
		c-0.1,0.4-0.2,0.8-0.3,1.2c0,0,0,0,0,0c-0.9,4.9-2.3,6.7-3.3,7.3c-0.7,0.4-1.2,0.3-1.2,0.3l-0.3,1c0,0,0.2,0.1,0.4,0.1
		c0.3,0,0.9-0.1,1.5-0.5c1.7-1.1,3-3.8,3.8-8C174.7,104.7,174.5,100.9,172.6,99.2L172.6,99.2z"/>
	<path d="M121.7,98.8c0,0.6,0.5-0.4,0.9-0.8c0.6-0.5,1.4-1,2.2-1.4c2.1-1,4.6-1.4,7-1.4c0.5,0,0.6-3.1-0.5-3c-5.2,0.1-11,2.3-10.8,6
		c0,0.5,0,1.5,0.7,1.8C121.6,100.2,121.7,98.8,121.7,98.8L121.7,98.8z"/>
	<path d="M158.9,98.8c0,0.6-0.5-0.4-0.9-0.8c-0.6-0.5-1.4-1-2.2-1.4c-2.1-1-4.6-1.4-7-1.4c-0.5,0-0.6-3.1,0.5-3
		c5.2,0.1,11,2.3,10.8,6c0,0.5,0,1.5-0.7,1.8C159,100.2,158.9,98.8,158.9,98.8L158.9,98.8z"/>
	<line class="st11" x1="140.1" y1="134.9" x2="140.1" y2="141.9"/>
</g>
<g>
	<path class="st0" d="M124.9,126.6c0.2,1.4,0.5,6.1,2.1,6.8c5.1,2.5,6.9-9.1,7.5-11.9c0.6-2.8-0.2-9.3-4.4-7.8
		c-0.1,0.1-0.2,0.1-0.3,0.2c-1.8-0.8-4-0.6-4.6,1.7C124.1,118.9,124.5,123.2,124.9,126.6z"/>
	<path class="st0" d="M77,115.6c-0.7-2.2-2.8-2.5-4.6-1.7c-0.1-0.1-0.2-0.1-0.3-0.2c-4.2-1.6-5,5-4.4,7.8c0.6,2.8,2.4,14.4,7.5,11.9
		c1.6-0.8,1.9-5.4,2.1-6.8C77.7,123.2,78,118.9,77,115.6z"/>
	<path class="st1" d="M129.6,120.5c0-15.3-12.8-27.7-28.5-27.7c-15.7,0-28.5,11.2-28.5,27.7c0,30.7,12.8,27.7,28.5,27.7
		C116.9,148.1,129.6,151.2,129.6,120.5z"/>
	<path class="st2" d="M77.6,130c0,14.2,10.6,25.7,23.6,25.7c13,0,23.6-11.5,23.6-25.7c0-14.2-0.1-32.2-23.7-26.6
		C74.4,97.9,77.6,115.8,77.6,130z"/>
	<ellipse class="st8" cx="89.7" cy="122.4" rx="6.7" ry="8.5"/>
	<ellipse class="st8" cx="112.7" cy="122.4" rx="6.7" ry="8.5"/>
	<ellipse cx="90.1" cy="125.3" rx="2.7" ry="4.2"/>
	<ellipse cx="112.1" cy="125.3" rx="2.7" ry="4.2"/>
	<ellipse class="st4" cx="101.1" cy="144.6" rx="29.2" ry="17.5"/>
	<path class="st16" d="M72.8,144.8c2.8,2.2,14.5,10.6,29.4,10.6h0c9.7,0,18.9-3.6,27.2-10.6c-8.4-3.9-17.5-5.9-27.2-5.9
		C87.5,138.8,75.8,143.5,72.8,144.8z"/>
	<path class="st17" d="M71.9,144.6c0,0,29.2,25.3,58.4,0C101.1,130.4,71.9,144.6,71.9,144.6"/>
	<g>
		<path class="st18" d="M71.9,144.6c0,0,29.2,7,58.4,0"/>
		<line class="st18" x1="77.8" y1="142.3" x2="77.8" y2="149.1"/>
		<line class="st18" x1="85.6" y1="140.4" x2="85.6" y2="152.1"/>
		<line class="st18" x1="92.8" y1="139.1" x2="92.8" y2="154.5"/>
		<line class="st18" x1="124.8" y1="142.3" x2="124.8" y2="149.1"/>
		<line class="st19" x1="117" y1="140" x2="117" y2="153.1"/>
		<line class="st20" x1="109.8" y1="139.1" x2="109.8" y2="155.2"/>
		<line class="st18" x1="101.1" y1="138.3" x2="101.1" y2="155.9"/>
	</g>
	<path d="M73.5,132.9c0,0-0.5,0.1-1.1-0.3c-1-0.6-2.4-2.4-3.4-7.4c-0.6-2.1-0.9-3.8-1-5.1c0-0.3,0-0.5,0-0.8
		c-0.1-2.5,0.6-3.7,1.3-4.4c1.1-1,2.7-0.8,3.5-0.6c0.2,0.1,0.4,0.1,0.4,0.1l0.4-0.9c-0.1,0-3-1.1-4.9,0.7c-1.7,1.5-2,4.6-1.1,9.2
		c0.1,0.7,0.3,1.3,0.5,2c0.8,4.3,2.1,6.9,3.8,8c0.6,0.4,1.1,0.5,1.5,0.5c0.2,0,0.4,0,0.4-0.1C73.8,133.8,73.5,132.9,73.5,132.9z"/>
	<path d="M133.6,114.2c-1.9-1.8-4.8-0.7-4.9-0.7l0.4,0.9c0,0,2.4-0.9,3.9,0.5c0.1,0.1,0.1,0.1,0.2,0.2c0.9,1.1,1.6,3.5,0.4,8.9
		c-0.1,0.4-0.2,0.8-0.3,1.2c0,0,0,0,0,0c-0.9,4.9-2.3,6.7-3.3,7.3c-0.7,0.4-1.2,0.3-1.2,0.3l-0.3,1c0,0,0.2,0.1,0.4,0.1
		c0.4,0,0.9-0.1,1.5-0.5c1.7-1.1,3-3.8,3.8-8C135.7,119.7,135.5,115.9,133.6,114.2z"/>
	<path d="M119.9,113.8c0,0.6-0.5-0.4-0.9-0.8c-0.6-0.5-1.4-1-2.2-1.4c-2.1-1-4.6-1.4-7-1.4c-0.5,0-0.6-3.1,0.5-3
		c5.2,0.1,11,2.3,10.8,6c0,0.5,0,1.5-0.7,1.8C120,115.2,119.9,113.8,119.9,113.8z"/>
	<path d="M82.6,113.8c0,0.6,0.5-0.4,0.9-0.8c0.6-0.5,1.4-1,2.2-1.4c2.1-1,4.6-1.4,7-1.4c0.5,0,0.6-3.1-0.5-3c-5.2,0.1-11,2.3-10.8,6
		c0,0.5,0,1.5,0.7,1.8C82.6,115.2,82.6,113.8,82.6,113.8z"/>
</g>
</svg>
