<?xml version="1.0" encoding="utf-8"?>
<!-- Generator: Adobe Illustrator 22.1.0, SVG Export Plug-In . SVG Version: 6.00 Build 0)  -->
<svg version="1.1" id="Layer_1" xmlns="http://www.w3.org/2000/svg" xmlns:xlink="http://www.w3.org/1999/xlink" x="0px" y="0px"
	 viewBox="0 0 220 220" style="enable-background:new 0 0 220 220;" xml:space="preserve">
<style type="text/css">
	.st0{fill:#D8B78B;}
	.st1{fill:#7F512E;stroke:#000000;stroke-miterlimit:10;}
	.st2{fill:#D8B78B;stroke:#000000;stroke-width:1.2015;stroke-miterlimit:10;}
	.st3{fill:#FFFFFF;stroke:#000000;stroke-miterlimit:10;}
	.st4{fill:#D8B78B;stroke:#000000;stroke-miterlimit:10;}
	.st5{fill:#7F512E;stroke:#1A171B;stroke-miterlimit:10;}
	.st6{fill:#FFFFFF;}
	.st7{fill:none;stroke:#000000;stroke-width:0.9238;stroke-linecap:round;stroke-miterlimit:10;}
	.st8{fill:none;stroke:#000000;stroke-miterlimit:10;}
</style>
<g>
	<path class="st0" d="M94.9,101.5c0.6,1.2,2.4,5.6,4.1,5.8c5.7,0.7,3.6-10.9,3.3-13.7c-0.4-2.8-3.2-8.8-6.7-5.9
		c-0.1,0.1-0.2,0.2-0.2,0.3c-2-0.2-3.9,0.7-3.8,3.1C91.7,94.5,93.4,98.4,94.9,101.5L94.9,101.5z"/>
	<path class="st0" d="M46,106.5c-1.4-1.9-3.4-1.4-4.9-0.1c-0.1,0-0.2-0.1-0.4-0.1c-4.5-0.1-3.1,6.3-1.7,8.8
		c1.4,2.5,6.9,12.9,10.9,8.9c1.3-1.2,0-5.8-0.3-7.1C49.1,113.5,48,109.3,46,106.5L46,106.5z"/>
	<path class="st1" d="M97.4,94.2c-4.9-14.5-21-22.1-35.9-17C46.6,82.2,38.1,97,43.4,112.5c9.9,29.1,21,22.1,35.9,17
		C94.2,124.5,107.3,123.3,97.4,94.2z"/>
	<path class="st2" d="M51.2,119.9c4.6,13.4,18.3,20.9,30.6,16.8c12.3-4.2,18.6-18.5,14.1-31.9s-10.5-30.4-31-17.5
		C37.9,90.5,46.7,106.5,51.2,119.9L51.2,119.9z"/>
	<ellipse transform="matrix(0.9469 -0.3216 0.3216 0.9469 -31.7948 25.1305)" class="st3" cx="60.2" cy="108.8" rx="6.7" ry="8.5"/>
	<ellipse transform="matrix(0.9469 -0.3216 0.3216 0.9469 -28.26 31.7407)" class="st3" cx="82" cy="101.4" rx="6.7" ry="8.5"/>
	<ellipse transform="matrix(0.9469 -0.3216 0.3216 0.9469 -32.5794 25.709)" cx="61.5" cy="111.5" rx="2.7" ry="4.2"/>
	<ellipse transform="matrix(0.9469 -0.3216 0.3216 0.9469 -29.1983 32.0318)" cx="82.4" cy="104.4" rx="2.7" ry="4.2"/>
	
		<ellipse transform="matrix(0.9469 -0.3216 0.3216 0.9469 -36.4428 31.8441)" class="st4" cx="78.2" cy="126.2" rx="29.2" ry="17.5"/>
	<path d="M48.3,124c0,0-0.4,0.3-1.2,0.1c-1.2-0.3-3.1-1.5-5.6-5.9c-1.2-1.8-2-3.3-2.6-4.5c-0.1-0.3-0.2-0.5-0.3-0.7
		c-0.9-2.3-0.7-3.7-0.2-4.5c0.7-1.3,2.3-1.6,3.1-1.7c0.3,0,0.4,0,0.4,0l0-1c-0.1,0-3.2-0.1-4.4,2.2c-1.1,2-0.4,5,2,9.1
		c0.3,0.6,0.7,1.2,1.1,1.8c2.1,3.8,4.2,5.9,6.2,6.3c0.7,0.2,1.2,0.1,1.6,0c0.2-0.1,0.4-0.2,0.4-0.2L48.3,124L48.3,124z"/>
	<path d="M99.1,87c-2.4-1-4.8,0.9-4.9,0.9l0.6,0.8c0,0,2-1.6,3.8-0.8c0.1,0,0.2,0.1,0.3,0.1c1.2,0.7,2.7,2.8,3.2,8.3
		c0,0.4,0.1,0.8,0.1,1.2c0,0,0,0,0,0c0.7,4.9-0.1,7.1-0.8,8c-0.5,0.6-1,0.7-1,0.7l0,1c0,0,0.2,0,0.4-0.1c0.3-0.1,0.8-0.4,1.3-0.9
		c1.3-1.6,1.7-4.5,1.1-8.8C102.9,91.5,101.5,88,99.1,87L99.1,87z"/>
	<path d="M52,102.2c0.1,0.6,0.5-0.5,0.8-0.8c0.6-0.6,1.3-1.1,2.1-1.5c2-1.1,4.5-1.7,6.9-1.9c0.5,0,0.4-3.1-0.7-3
		c-5.2,0.5-10.8,3-10.4,6.7c0.1,0.5,0.1,1.5,0.8,1.8C52.1,103.6,52,102.2,52,102.2z"/>
	<path d="M84.6,91.1c0.3,0.5-0.7-0.1-1.2-0.2c-0.8-0.1-1.7,0-2.6,0.1c-2.3,0.3-4.6,1.4-6.6,2.7C73.8,94,72,91.6,72.9,91
		c4.4-2.8,10.4-4.2,12.3-1c0.3,0.4,0.8,1.2,0.4,1.9C85.4,92.3,84.6,91.2,84.6,91.1z"/>
	<path d="M91.4,126.1c-0.2,0.8-0.9,1.3-1.6,1.6c-6.8,3.1-15.7,3-23.1,3.4c-1.5,0.1-3.2,0.9-4.5,1.7c-0.3,0.2-2.2,1.5-0.7,1.4
		c9.9-0.5,20.3-1.3,29.4-5.4c1.9-0.8,6.3-2.7,6.8-5.1C97.9,123.2,91.7,124.6,91.4,126.1z"/>
</g>
<g>
	<path class="st0" d="M170.9,115.7c-0.2,1.4-1.2,6,0.1,7.1c4.3,3.8,9.2-6.9,10.5-9.4c1.3-2.5,2.4-9-2.1-8.7c-0.1,0-0.3,0-0.4,0.1
		c-1.5-1.3-3.6-1.7-4.9,0.3C172.2,108.1,171.3,112.3,170.9,115.7L170.9,115.7z"/>
	<path class="st0" d="M127.8,91.9c0-2.3-2-3.1-4-2.9c0-0.1-0.1-0.2-0.2-0.3c-3.6-2.7-6.2,3.4-6.4,6.2c-0.2,2.8-1.7,14.5,3.9,13.5
		c1.7-0.3,3.3-4.7,3.9-6C126.3,99.4,127.9,95.4,127.8,91.9L127.8,91.9z"/>
	<path class="st5" d="M125.3,123.1c-0.5-0.2-0.9-0.4-1.4-0.7c-0.1,0-0.2,0-0.3,0c1.9,1.9,4.5,3.2,7.4,4.3c0,0,0,0,0,0
		C129.4,126,127.2,124.5,125.3,123.1L125.3,123.1z"/>
	<path class="st1" d="M157.3,76.7c-15.1-4.3-30.5,2.9-35,18.7c-3.5,12.1-3.3,19.3-0.9,23.9c0,0,0.1,0,0.1,0c2.6,1.6,5.7,2,8.3,3.6
		c1.3,0.8,2.9,1.6,3.7,2.9c0,0,0.1,0.1,0.1,0.1c0.1,0,0.1,0,0.2,0c0.6,0,0.6,1,0,1c-0.2,0-0.3,0-0.5,0c-0.2,0.1-0.4,0.2-0.5,0.1
		c-0.1,0-0.2,0-0.2,0c2.9,0.9,6.2,1.7,9.5,2.7c15.1,4.3,26.6,10.8,35-18.7C181.3,96.5,172.4,81,157.3,76.7L157.3,76.7z"/>
	<path class="st2" d="M154.4,86.9c-24.1-12.7-26,5.4-29.9,19.1c-1.4,5.1-1.4,10.1-0.1,14.7c1.8,0.7,3.7,1.2,5.4,2.3
		c1.3,0.8,2.9,1.6,3.7,2.9c0,0,0.1,0.1,0.1,0.1c0.1,0,0.1,0,0.2,0c0.6,0,0.6,1,0,1c-0.2,0-0.3,0-0.5,0c-0.2,0.1-0.4,0.2-0.5,0.1
		c-0.4,0.1-0.9,0.2-1.3,0.2c-0.4,0-0.6-0.4-0.4-0.7c-1.7-0.7-3.9-2.2-5.8-3.5c-0.1,0-0.1-0.1-0.2-0.1c2.6,6.7,7.9,12.1,15,14.2
		c12.5,3.6,25.8-4.6,29.8-18.2C173.7,105.3,178.5,88,154.4,86.9L154.4,86.9z"/>
	<ellipse transform="matrix(0.2756 -0.9613 0.9613 0.2756 2.0845 206.6429)" class="st3" cx="138.1" cy="101.9" rx="8.5" ry="6.7"/>
	
		<ellipse transform="matrix(0.2756 -0.9613 0.9613 0.2756 12.0069 232.4877)" class="st3" cx="160.3" cy="108.3" rx="8.5" ry="6.7"/>
	<ellipse transform="matrix(0.2756 -0.9613 0.9613 0.2756 -1.0517 208.4143)" cx="137.8" cy="104.9" rx="4.2" ry="2.7"/>
	<ellipse transform="matrix(0.2756 -0.9613 0.9613 0.2756 8.4392 233.1355)" cx="158.9" cy="111" rx="4.2" ry="2.7"/>
	
		<ellipse transform="matrix(0.2756 -0.9613 0.9613 0.2756 -18.0272 229.114)" class="st4" cx="143" cy="126.5" rx="17.5" ry="29.2"/>
	<path d="M119.7,107.6c0,0-0.5,0-1-0.6c-0.8-0.9-1.7-3-1.2-8c0-2.2,0.2-3.9,0.5-5.2c0.1-0.3,0.1-0.5,0.2-0.8
		c0.6-2.4,1.6-3.4,2.4-3.8c1.3-0.7,2.8,0,3.5,0.4c0.2,0.1,0.4,0.2,0.4,0.2L125,89c-0.1-0.1-2.6-1.9-4.9-0.7c-2,1-3.2,3.9-3.6,8.6
		c0,0.7-0.1,1.4-0.1,2.1c-0.4,4.3,0.1,7.3,1.5,8.8c0.5,0.5,1,0.7,1.3,0.8c0.2,0.1,0.4,0.1,0.4,0.1L119.7,107.6L119.7,107.6z"/>
	<path d="M182.6,106.2c-1.4-2.2-4.4-2-4.5-2l0.1,1c0,0,2.6-0.2,3.6,1.5c0,0.1,0.1,0.2,0.1,0.3c0.6,1.3,0.6,3.8-2.1,8.6
		c-0.2,0.3-0.4,0.7-0.6,1.1c0,0,0,0,0,0c-2.2,4.4-4.1,5.8-5.2,6.1c-0.8,0.2-1.2,0-1.2,0l-0.5,0.8c0,0,0.2,0.1,0.4,0.2
		c0.3,0.1,0.9,0.2,1.6,0c2-0.5,4-2.8,5.9-6.6C183.1,112.1,184,108.4,182.6,106.2L182.6,106.2z"/>
	<path d="M133.8,91.7c-0.1,0.5,0.6-0.3,1.1-0.5c0.7-0.4,1.6-0.6,2.5-0.7c2.3-0.4,4.8,0,7.1,0.6c0.5,0.1,1.4-2.8,0.4-3
		c-5.1-1.3-11.2-0.8-12,2.8c-0.1,0.5-0.4,1.4,0.2,1.9C133.3,93.1,133.7,91.8,133.8,91.7L133.8,91.7z"/>
	<path d="M168.7,100.5c0.1,0.6-0.6-0.4-1-0.6c-0.7-0.5-1.5-0.8-2.4-1c-2.2-0.7-4.8-0.7-7.1-0.4c-0.5,0.1-1-2.9,0-3.1
		c5.2-0.7,11.2,0.7,11.6,4.3c0,0.5,0.2,1.5-0.4,1.9C168.9,101.9,168.7,100.6,168.7,100.5L168.7,100.5z"/>
	<path class="st6" d="M159.7,137.9c0,0-4.6-12.9-25.6-10.3l-0.4-0.2C141.7,133.6,149.1,141.1,159.7,137.9z"/>
	<path d="M160.1,137.7c0-0.1-5-13.3-26.1-10.6c0,0-1.4,0.1-1.4,0.1c1.2,0.9,2.3,1.8,3.4,2.7c4.8,3.9,9.8,7.8,15.6,8.9
		c2.5,0.5,5.2,0.4,8.2-0.5l0.5-0.1L160.1,137.7L160.1,137.7z M136.6,129.2c-0.5-0.4-1-0.8-1.6-1.3c17.4-1.8,22.9,7.5,24,9.7
		C150.1,140,143.6,134.7,136.6,129.2L136.6,129.2z"/>
	<line class="st7" x1="134.1" y1="127.6" x2="159.7" y2="137.9"/>
	<line class="st7" x1="140.9" y1="127.2" x2="139.4" y2="131.9"/>
	<line class="st7" x1="145.7" y1="127.8" x2="143.4" y2="134.9"/>
	<line class="st7" x1="150.4" y1="129.2" x2="148" y2="137"/>
	<line class="st8" x1="155.3" y1="132.4" x2="153.2" y2="138.4"/>
</g>
</svg>
