<?xml version="1.0" encoding="utf-8"?>
<!-- Generator: Adobe Illustrator 22.1.0, SVG Export Plug-In . SVG Version: 6.00 Build 0)  -->
<svg version="1.1" id="Layer_1" xmlns="http://www.w3.org/2000/svg" xmlns:xlink="http://www.w3.org/1999/xlink" x="0px" y="0px"
	 viewBox="0 0 220 220" style="enable-background:new 0 0 220 220;" xml:space="preserve">
<style type="text/css">
	.st0{fill:#D8B78B;}
	.st1{fill:none;stroke:#000000;stroke-width:1.2015;stroke-miterlimit:10;}
	.st2{fill:none;stroke:#000000;stroke-width:1.2414;stroke-miterlimit:10;}
	.st3{fill:#7F512E;stroke:#000000;stroke-miterlimit:10;}
	.st4{fill:#D8B78B;stroke:#000000;stroke-width:1.2015;stroke-miterlimit:10;}
	.st5{fill:#D8B78B;stroke:#000000;stroke-miterlimit:10;}
	.st6{fill:none;stroke:#000000;stroke-miterlimit:10;}
	.st7{fill:none;stroke:#000000;stroke-width:2.126;stroke-linecap:round;stroke-miterlimit:10;}
	.st8{fill:#CC0000;stroke:#000000;stroke-width:0.5669;stroke-miterlimit:10;}
	.st9{fill:#CC0033;stroke:#000000;stroke-width:0.7087;stroke-miterlimit:10;}
	.st10{fill:#FFFFFF;stroke:#000000;stroke-miterlimit:10;}
	.st11{fill:#808080;}
</style>
<g>
	<path class="st0" d="M131.5,55.5c0.2,1.4,0.5,6.1,2.1,6.8c5.1,2.5,6.9-9.1,7.5-11.9c0.6-2.8-0.2-9.3-4.4-7.8
		c-0.1,0.1-0.2,0.1-0.3,0.2c-1.8-0.8-4-0.6-4.6,1.7C130.7,47.8,131,52.1,131.5,55.5L131.5,55.5z"/>
	<path class="st0" d="M83.6,44.5c-0.7-2.2-2.8-2.5-4.6-1.7c-0.1-0.1-0.2-0.1-0.3-0.2c-4.2-1.6-5,5-4.4,7.8
		c0.6,2.8,2.4,14.4,7.5,11.9c1.6-0.8,1.9-5.4,2.1-6.8C84.2,52.1,84.6,47.8,83.6,44.5z"/>
	<line class="st1" x1="65.1" y1="34.6" x2="151" y2="34.6"/>
	<polygon class="st2" points="74.3,37.8 65.1,34.6 74.3,31.5 	"/>
	<path class="st3" d="M136.2,49.4c0-15.3-12.8-27.7-28.5-27.7c-15.7,0-28.5,11.2-28.5,27.7c0,30.7,12.8,27.7,28.5,27.7
		C123.4,77,136.2,80.1,136.2,49.4z"/>
	<path class="st4" d="M84.2,58.9c0,14.2,10.6,25.7,23.6,25.7c13,0,23.6-11.5,23.6-25.7c0-14.2-0.1-32.1-23.7-26.6
		C81,26.7,84.2,44.7,84.2,58.9z"/>
	<ellipse class="st5" cx="107.7" cy="73.5" rx="29.2" ry="17.5"/>
	<path d="M80.1,61.8c0,0-0.5,0.1-1.1-0.3c-1-0.6-2.4-2.4-3.4-7.4c-0.6-2.1-0.9-3.8-1-5.1c0-0.3,0-0.5,0-0.8
		c-0.1-2.5,0.6-3.7,1.3-4.4c1.1-1,2.7-0.8,3.5-0.6c0.2,0.1,0.4,0.1,0.4,0.1l0.4-0.9c-0.1,0-3-1.1-4.9,0.7c-1.7,1.5-2,4.6-1.1,9.2
		c0.1,0.7,0.3,1.3,0.5,2c0.8,4.3,2.1,6.9,3.8,8c0.6,0.4,1.1,0.5,1.5,0.5c0.2,0,0.4,0,0.4-0.1L80.1,61.8L80.1,61.8z"/>
	<path d="M140.1,43c-1.9-1.8-4.8-0.7-4.9-0.7l0.3,0.9c0,0,2.4-0.9,3.9,0.5c0.1,0.1,0.1,0.1,0.2,0.2c0.9,1.1,1.6,3.5,0.4,8.9
		c-0.1,0.4-0.2,0.8-0.3,1.2c0,0,0,0,0,0c-0.9,4.9-2.3,6.7-3.3,7.3c-0.7,0.4-1.2,0.3-1.2,0.3l-0.3,1c0,0,0.2,0.1,0.4,0.1
		c0.3,0,0.9-0.1,1.5-0.5c1.7-1.1,3-3.8,3.8-8C142.2,48.6,142,44.8,140.1,43L140.1,43z"/>
	<path d="M90.6,43.3c-0.1,0.6,0.6-0.3,1.1-0.5c0.7-0.4,1.6-0.6,2.5-0.8c2.3-0.4,4.8-0.1,7.1,0.4c0.5,0.1,1.4-2.8,0.3-3.1
		c-5.1-1.2-11.2-0.6-12,3c-0.1,0.5-0.3,1.4,0.2,1.9C90.2,44.7,90.6,43.4,90.6,43.3L90.6,43.3z"/>
	<path d="M124,43.3c0.1,0.6-0.6-0.3-1.1-0.5c-0.7-0.4-1.6-0.6-2.5-0.8c-2.3-0.4-4.8-0.1-7.1,0.4c-0.5,0.1-1.4-2.8-0.3-3.1
		c5.1-1.2,11.2-0.6,12,3c0.1,0.5,0.3,1.4-0.2,1.9C124.4,44.7,124,43.4,124,43.3L124,43.3z"/>
	<path class="st6" d="M78.5,73.5c29.3-14.2,58.4,0,58.4,0"/>
	<line class="st7" x1="99.6" y1="52.7" x2="92.8" y2="45.9"/>
	<line class="st7" x1="92.8" y1="52.7" x2="99.6" y2="45.9"/>
	<line class="st7" x1="121.6" y1="52.7" x2="114.8" y2="45.9"/>
	<line class="st7" x1="114.8" y1="52.7" x2="121.6" y2="45.9"/>
	<path class="st8" d="M81.5,54c0,1.5,0.8,2.8,1.7,2.8s1.7-1.2,1.7-2.8s-1.6-5.2-1.6-5.2S81.5,52.4,81.5,54L81.5,54z"/>
	<path class="st8" d="M81.5,41.2c0,1.5,0.8,2.8,1.7,2.8s1.7-1.2,1.7-2.8c0-1.5-1.6-5.2-1.6-5.2S81.5,39.7,81.5,41.2L81.5,41.2z"/>
	<line class="st2" x1="151" y1="34.6" x2="155.1" y2="31.8"/>
	<line class="st2" x1="147" y1="34.6" x2="151.1" y2="31.8"/>
	<line class="st2" x1="143" y1="34.6" x2="147.1" y2="31.8"/>
	<line class="st2" x1="147.1" y1="37.6" x2="143" y2="34.8"/>
	<line class="st2" x1="151.1" y1="37.6" x2="147" y2="34.8"/>
	<line class="st2" x1="155.1" y1="37.6" x2="151" y2="34.8"/>
</g>
<g>
	<path class="st0" d="M84.5,127.9c0.2,1.4,0.5,6.1,2.1,6.8c5.1,2.5,6.9-9.1,7.5-11.9c0.6-2.8-0.2-9.3-4.4-7.7
		c-0.1,0.1-0.2,0.1-0.3,0.2c-1.8-0.8-4-0.6-4.6,1.7C83.7,120.3,84.1,124.6,84.5,127.9L84.5,127.9z"/>
	<path class="st0" d="M36.6,116.9c-0.7-2.3-2.8-2.5-4.6-1.7c-0.1-0.1-0.2-0.1-0.3-0.2c-4.2-1.6-5,5-4.4,7.7
		c0.6,2.8,2.4,14.4,7.5,11.9c1.6-0.8,1.9-5.4,2.1-6.8C37.3,124.6,37.6,120.3,36.6,116.9L36.6,116.9z"/>
	<path class="st3" d="M89.2,121.9c0-15.3-12.8-27.7-28.5-27.7c-15.7,0-28.5,11.2-28.5,27.7c0,30.7,12.8,27.7,28.5,27.7
		C76.5,149.5,89.2,152.6,89.2,121.9z"/>
	<path class="st4" d="M37.2,131.4c0,14.2,10.6,25.7,23.6,25.7c13,0,23.6-11.5,23.6-25.7s-0.1-32.1-23.7-26.6
		C34,99.2,37.2,117.2,37.2,131.4z"/>
	<ellipse class="st5" cx="60.7" cy="146" rx="29.2" ry="17.5"/>
	<path d="M33.1,134.2c0,0-0.5,0.1-1.1-0.3c-1-0.6-2.4-2.4-3.4-7.4c-0.6-2.1-0.9-3.8-1-5.1c0-0.3,0-0.5,0-0.8
		c-0.1-2.5,0.6-3.7,1.3-4.4c1.1-1,2.7-0.8,3.5-0.6c0.2,0.1,0.4,0.1,0.4,0.1l0.4-0.9c-0.1,0-3-1.1-4.9,0.7c-1.7,1.5-2,4.6-1.1,9.2
		c0.1,0.7,0.3,1.3,0.5,2c0.8,4.2,2.1,6.9,3.8,8c0.6,0.4,1.1,0.5,1.5,0.5c0.2,0,0.4,0,0.4-0.1L33.1,134.2L33.1,134.2z"/>
	<path d="M93.2,115.5c-1.9-1.8-4.8-0.7-4.9-0.7l0.4,0.9c0,0,2.4-0.9,3.9,0.5c0.1,0.1,0.1,0.1,0.2,0.2c0.9,1.1,1.6,3.5,0.4,8.9
		c-0.1,0.4-0.2,0.8-0.3,1.2c0,0,0,0,0,0c-0.9,4.9-2.3,6.7-3.3,7.3c-0.7,0.4-1.2,0.3-1.2,0.3l-0.3,1c0,0,0.2,0.1,0.4,0.1
		c0.4,0,0.9-0.1,1.5-0.5c1.7-1.1,3-3.8,3.8-8C95.3,121.1,95.1,117.3,93.2,115.5L93.2,115.5z"/>
	<path d="M42.2,115.1c0,0.6,0.5-0.4,0.9-0.8c0.6-0.5,1.4-1,2.2-1.4c2.1-1,4.6-1.4,7-1.4c0.5,0,0.6-3.1-0.5-3c-5.2,0.1-11,2.3-10.8,6
		c0,0.5,0,1.5,0.7,1.8C42.2,116.5,42.3,115.2,42.2,115.1L42.2,115.1z"/>
	<path d="M79.5,115.1c0,0.6-0.5-0.4-0.9-0.8c-0.6-0.5-1.4-1-2.2-1.4c-2.1-1-4.6-1.4-7-1.4c-0.5,0-0.6-3.1,0.5-3
		c5.2,0.1,11,2.3,10.8,6c0,0.5,0,1.5-0.7,1.8C79.6,116.5,79.5,115.2,79.5,115.1L79.5,115.1z"/>
	<path class="st6" d="M31.5,143c29.2,17.5,58.4,0,58.4,0"/>
	<path class="st9" d="M74.9,116c-1.1-0.3-2.3,0.2-3.2,1.2c-0.9-1-2.1-1.5-3.2-1.2c-1.8,0.5-2.8,3-2.1,5.6c0.7,2.5,3.3,7.2,5.2,7.3
		c0,0,0.1,0,0.1,0c0,0,0.1,0,0.1,0c1.9-0.1,4.5-4.8,5.2-7.3C77.7,119.1,76.8,116.5,74.9,116L74.9,116z"/>
	<path class="st9" d="M52.9,116c-1.1-0.3-2.3,0.2-3.2,1.2c-0.9-1-2.1-1.5-3.2-1.2c-1.8,0.5-2.8,3-2.1,5.6c0.7,2.5,3.3,7.2,5.2,7.3
		c0,0,0.1,0,0.1,0c0,0,0.1,0,0.1,0c1.9-0.1,4.5-4.8,5.2-7.3C55.7,119.1,54.8,116.5,52.9,116L52.9,116z"/>
</g>
<g>
	<path class="st0" d="M179.4,127.6c0.2,1.4,0.5,6.1,2.1,6.8c5.1,2.5,6.9-9.1,7.5-11.9c0.6-2.8-0.2-9.3-4.4-7.8
		c-0.1,0.1-0.2,0.1-0.3,0.2c-1.8-0.8-4-0.6-4.6,1.7C178.6,119.9,178.9,124.2,179.4,127.6L179.4,127.6z"/>
	<path class="st0" d="M131.5,116.6c-0.7-2.2-2.8-2.5-4.6-1.7c-0.1-0.1-0.2-0.1-0.3-0.2c-4.2-1.6-5,5-4.4,7.8
		c0.6,2.8,2.4,14.4,7.5,11.9c1.6-0.8,1.9-5.4,2.1-6.8C132.2,124.2,132.5,119.9,131.5,116.6z"/>
	<path class="st3" d="M184.1,121.5c0-15.3-12.8-27.7-28.5-27.7c-15.7,0-28.5,11.2-28.5,27.7c0,30.7,12.8,27.7,28.5,27.7
		C171.4,149.1,184.1,152.2,184.1,121.5z"/>
	<path class="st4" d="M132.1,131c0,14.2,10.6,25.7,23.6,25.7c13,0,23.6-11.5,23.6-25.7c0-14.2-0.1-32.2-23.7-26.6
		C128.9,98.9,132.1,116.8,132.1,131z"/>
	<ellipse class="st10" cx="144.2" cy="123.4" rx="6.7" ry="8.5"/>
	<ellipse class="st10" cx="167.2" cy="123.4" rx="6.7" ry="8.5"/>
	<ellipse cx="144.6" cy="126.3" rx="2.7" ry="4.2"/>
	<ellipse cx="166.6" cy="126.3" rx="2.7" ry="4.2"/>
	<ellipse class="st5" cx="155.6" cy="145.6" rx="29.2" ry="17.5"/>
	<path d="M128,133.9c0,0-0.5,0.1-1.1-0.3c-1-0.6-2.4-2.4-3.4-7.4c-0.6-2.1-0.9-3.8-1-5.1c0-0.3,0-0.5,0-0.8
		c-0.1-2.5,0.6-3.7,1.3-4.4c1.1-1,2.7-0.8,3.5-0.6c0.2,0.1,0.4,0.1,0.4,0.1l0.4-0.9c-0.1,0-3-1.1-4.9,0.7c-1.7,1.5-2,4.6-1.1,9.2
		c0.1,0.7,0.3,1.3,0.5,2c0.8,4.3,2.1,6.9,3.8,8c0.6,0.4,1.1,0.5,1.5,0.5c0.2,0,0.4,0,0.4-0.1L128,133.9L128,133.9z"/>
	<path d="M188.1,115.2c-1.9-1.8-4.8-0.7-4.9-0.7l0.3,0.9c0,0,2.4-0.9,3.9,0.5c0.1,0.1,0.1,0.1,0.2,0.2c0.9,1.1,1.6,3.5,0.4,8.9
		c-0.1,0.4-0.2,0.8-0.3,1.2c0,0,0,0,0,0c-0.9,4.9-2.3,6.7-3.3,7.3c-0.7,0.4-1.2,0.3-1.2,0.3l-0.3,1c0,0,0.2,0.1,0.4,0.1
		c0.3,0,0.9-0.1,1.5-0.5c1.7-1.1,3-3.8,3.8-8C190.2,120.7,190,116.9,188.1,115.2L188.1,115.2z"/>
	<path d="M137.2,114.8c0,0.6,0.5-0.4,0.9-0.8c0.6-0.5,1.4-1,2.2-1.4c2.1-1,4.6-1.4,7-1.4c0.5,0,0.6-3.1-0.5-3
		c-5.2,0.1-11,2.3-10.8,6c0,0.5,0,1.5,0.7,1.8C137.1,116.2,137.2,114.8,137.2,114.8L137.2,114.8z"/>
	<path d="M174.4,114.8c0,0.6-0.5-0.4-0.9-0.8c-0.6-0.5-1.4-1-2.2-1.4c-2.1-1-4.6-1.4-7-1.4c-0.5,0-0.6-3.1,0.5-3
		c5.2,0.1,11,2.3,10.8,6c0,0.5,0,1.5-0.7,1.8C174.5,116.2,174.4,114.8,174.4,114.8L174.4,114.8z"/>
	<path class="st6" d="M126.4,142.6c29.2,17.5,58.4,0,58.4,0"/>
</g>
<path class="st11" d="M110.2,124.8h-5.9v-1.6c0-1.9,0.3-3.5,0.8-4.5c0.8-1.3,1.9-2.7,3.7-4.3c2.1-1.6,3.2-2.7,3.5-2.9
	c0.5-0.8,0.8-1.6,0.8-2.7c0-1.1-0.5-2.1-1.3-3.2c-1.1-0.8-2.4-1.3-4.3-1.3c-1.6,0-2.9,0.5-4,1.6c-1.1,0.8-1.9,2.1-2.4,4.3l-5.9-0.8
	c0.3-2.7,1.3-5.1,3.5-6.9c2.1-2.1,5.1-2.9,8.5-2.9c3.7,0,6.7,0.8,9.1,2.9c2.1,1.9,3.2,4,3.2,6.7c0,1.3-0.5,2.7-1.3,4
	s-2.4,3.2-5.1,5.3c-1.3,1.1-2.1,1.9-2.4,2.7C110.2,121.9,110.2,122.9,110.2,124.8z M104.3,133.3v-6.4h5.9v6.4H104.3z"/>
</svg>
